<svg width="171" height="41" viewBox="0 0 171 41" fill="none" xmlns="http://www.w3.org/2000/svg">
<path d="M19.5194 22.7897C19.3725 23.2095 19.1527 23.6 18.8702 23.9431C18.6128 24.249 18.2954 24.4987 17.9377 24.6766C17.5844 24.847 17.1968 24.934 16.8046 24.931C16.4599 24.9475 16.1183 24.8588 15.825 24.6766C15.5621 24.5069 15.3403 24.2806 15.1758 24.0141C15.0141 23.7519 14.8927 23.4667 14.8158 23.1683C14.7395 22.8988 14.6998 22.6202 14.6977 22.3401C14.6977 19.6961 14.6977 17.472 14.6977 15.656C14.6977 13.8401 14.6977 12.3613 14.6977 11.2137C14.6977 10.0662 14.6977 9.22032 14.7272 8.67613C14.7568 8.13194 14.7272 7.81843 14.7272 7.73562C14.7554 7.40433 14.7455 7.0709 14.6977 6.74187C14.6829 6.61276 14.62 6.49404 14.5214 6.40956C14.4229 6.32507 14.2961 6.28108 14.1666 6.28641C14.0827 6.28461 13.9998 6.30499 13.9262 6.34548C13.8527 6.38598 13.7911 6.44517 13.7476 6.5171C13.6341 6.69723 13.5578 6.89838 13.5233 7.10861C13.4706 7.34548 13.4449 7.58758 13.4466 7.83026V9.60481C13.4466 10.1963 13.4466 10.983 13.4466 11.9176C13.4466 12.8522 13.4466 13.911 13.4466 15.0941V18.7378C13.4393 19.3714 13.3741 20.003 13.2518 20.6247C13.1254 21.3084 12.886 21.9661 12.5436 22.5708C12.1909 23.1834 11.6972 23.7026 11.1036 24.0851C10.3758 24.5135 9.53877 24.7191 8.69576 24.6766C7.51672 24.7008 6.35678 24.3757 5.36132 23.742C4.39174 23.1002 3.56904 22.2595 2.94755 21.2754C2.26868 20.1979 1.77401 19.0144 1.48394 17.7736C1.16194 16.4412 0.999485 15.075 1 13.704C1.0095 12.2198 1.20783 10.7429 1.59017 9.30905C1.93221 7.93073 2.50921 6.62199 3.29574 5.44054C4.03675 4.31939 5.01373 3.37449 6.15804 2.67225C7.36112 1.95254 8.74079 1.58379 10.1417 1.60752C10.6883 1.59993 11.2325 1.68185 11.7528 1.85004C12.18 1.99011 12.5899 2.17865 12.9745 2.41198C13.2761 2.58883 13.5555 2.80132 13.8066 3.0449C13.9551 3.18902 14.0913 3.34533 14.2138 3.5122C14.31 3.62156 14.3626 3.7627 14.3613 3.90852C14.3613 4.08597 14.2846 4.18061 14.1194 4.18061C14.0299 4.16866 13.9439 4.13832 13.8668 4.0915C13.7896 4.04468 13.7229 3.98238 13.6709 3.90852C13.1276 3.32789 12.4567 2.8823 11.7115 2.60718C11.1003 2.39379 10.4584 2.2819 9.81117 2.27593C8.54729 2.24551 7.30082 2.57579 6.21706 3.22827C5.19064 3.86547 4.32113 4.72687 3.67345 5.74813C2.97656 6.83879 2.46595 8.03826 2.16263 9.29722C1.83272 10.6225 1.66624 11.9832 1.66689 13.3491C1.66338 14.6782 1.81993 16.003 2.13312 17.2945C2.41455 18.5007 2.88888 19.6533 3.53771 20.7075C4.1189 21.6832 4.9066 22.5192 5.84526 23.1564C6.78896 23.7781 7.89708 24.1016 9.02625 24.0851C9.75474 24.1152 10.4733 23.9076 11.0741 23.4936C11.582 23.1299 11.9999 22.6544 12.2958 22.1035C12.5929 21.5504 12.7925 20.9501 12.8859 20.329C12.979 19.7797 13.0283 19.2239 13.0335 18.6668V16.3954C13.0335 15.7566 13.0335 15.0527 13.0335 14.2778C13.0335 13.5029 13.0335 12.7458 13.0335 12.0123C13.0335 11.2788 13.0335 10.5867 13.063 9.9538C13.0925 9.32088 13.063 8.81809 13.063 8.45727C13.0689 7.64941 13.1599 6.84443 13.3345 6.05572C13.4761 5.52335 13.7771 5.25126 14.2374 5.25126C14.3408 5.24924 14.4426 5.27719 14.5305 5.33175C14.6185 5.38632 14.6888 5.46517 14.7331 5.55884C14.856 5.78466 14.9436 6.02804 14.9928 6.28049C15.0535 6.57864 15.0891 6.88138 15.0991 7.18551C15.0991 7.51084 15.0991 7.77703 15.0991 8.0018V20.9501C15.0991 21.3109 15.0991 21.6895 15.1463 22.0799C15.1711 22.4474 15.2466 22.8097 15.3705 23.1564C15.4839 23.463 15.6702 23.7371 15.9135 23.955C16.2049 24.1845 16.5705 24.2983 16.9404 24.2744C17.2088 24.2682 17.4743 24.2162 17.7253 24.1206C18.0168 24.0135 18.2838 23.8485 18.5102 23.6355C18.7711 23.3812 18.9727 23.0721 19.1004 22.7305C19.2978 22.293 19.4062 21.8205 19.4191 21.3405V21.0092C19.4191 20.8673 19.4663 20.7963 19.5666 20.7963H19.6905C19.7318 20.7963 19.7496 20.7963 19.7496 20.8377V21.2931C19.7611 21.8017 19.6832 22.3083 19.5194 22.7897Z" fill="#142466" stroke="#142466" stroke-width="0.2304" stroke-miterlimit="10"/>
<path d="M30.174 23.8693C29.9257 24.1764 29.6103 24.422 29.2521 24.5872C28.8939 24.7523 28.5025 24.8326 28.1084 24.8217C27.6431 24.8489 27.1821 24.7198 26.7982 24.4549C26.4903 24.2196 26.255 23.9017 26.1195 23.5381C25.9858 23.1434 25.9142 22.7304 25.9071 22.3137C25.9071 21.87 25.9071 21.4441 25.9071 21.0419V20.0718C25.9157 19.8794 25.8641 19.6891 25.7595 19.5276C25.7243 19.4684 25.6753 19.4186 25.6168 19.3826C25.5582 19.3465 25.4917 19.3252 25.4231 19.3206C25.3395 19.3308 25.2598 19.3623 25.1916 19.412C25.1235 19.4616 25.0691 19.5279 25.0336 19.6045C24.89 19.9108 24.827 20.2488 24.8507 20.5864V22.7632C24.8765 23.062 24.8371 23.3628 24.7352 23.6447C24.6332 23.9267 24.4713 24.183 24.2605 24.3958C23.9009 24.7254 23.4317 24.9089 22.9444 24.9104C22.4412 24.9093 21.9552 24.7266 21.5752 24.3958C21.3689 24.2059 21.2085 23.9714 21.1062 23.71C21.0039 23.4486 20.9625 23.1673 20.9851 22.8874V19.7701C20.9922 19.679 20.9795 19.5874 20.9479 19.5016C20.9164 19.4158 20.8666 19.3379 20.8021 19.2733C20.7514 19.2212 20.6908 19.1797 20.6239 19.1513C20.5571 19.1229 20.4852 19.108 20.4126 19.1076C20.3355 19.1064 20.259 19.1221 20.1886 19.1538C20.1182 19.1855 20.0557 19.2323 20.0054 19.291C19.8829 19.4446 19.8238 19.6393 19.8402 19.8352V20.8585C19.8402 21.0242 19.7811 21.101 19.6572 21.101C19.5333 21.101 19.5097 21.0242 19.5097 20.8585V19.9476C19.4986 19.571 19.5586 19.1957 19.6867 18.8415C19.7543 18.6945 19.8668 18.5729 20.0079 18.4942C20.149 18.4155 20.3114 18.3838 20.4716 18.4037C20.6363 18.3845 20.8026 18.4206 20.9446 18.5062C21.0866 18.5918 21.1963 18.7222 21.2566 18.8769C21.3885 19.2385 21.4506 19.6219 21.4395 20.0067V22.7869C21.4267 23.016 21.4676 23.245 21.5588 23.4555C21.65 23.6661 21.789 23.8523 21.9647 23.9995C22.2834 24.2653 22.6833 24.4135 23.0979 24.4194C23.4425 24.419 23.7748 24.2904 24.0303 24.0586C24.1675 23.9028 24.2692 23.7189 24.3283 23.5197C24.3874 23.3205 24.4025 23.1108 24.3726 22.9052V20.4681C24.3706 20.0573 24.4303 19.6485 24.5497 19.2555C24.5898 19.0799 24.6906 18.9242 24.8343 18.816C24.9779 18.7077 25.1551 18.6539 25.3346 18.664C25.4992 18.6448 25.6655 18.6808 25.8076 18.7664C25.9496 18.8521 26.0593 18.9825 26.1195 19.1372C26.2514 19.4988 26.3135 19.8822 26.3025 20.267V21.0241C26.3005 21.4488 26.3202 21.8733 26.3615 22.2959C26.3906 22.6542 26.4763 23.0056 26.6153 23.337C26.7396 23.6209 26.9449 23.8617 27.2054 24.029C27.5297 24.2156 27.9001 24.3058 28.2736 24.2893C28.5364 24.284 28.7962 24.2319 29.0408 24.1355C29.3257 24.0269 29.5835 23.8574 29.7962 23.6386C30.0493 23.3711 30.2495 23.058 30.3864 22.7159C30.5553 22.2786 30.6375 21.8124 30.6284 21.3436V21.0123C30.6284 20.8704 30.6874 20.7994 30.8054 20.7994C30.9058 20.7994 30.9589 20.7994 30.9589 20.8585V21.1602C31.0268 22.128 30.7485 23.0885 30.174 23.8693Z" fill="#142466" stroke="#142466" stroke-width="0.2304" stroke-miterlimit="10"/>
<path d="M37.2244 22.7318C37.078 23.1609 36.8583 23.5612 36.5752 23.9149C36.3221 24.2351 36.0017 24.4956 35.6369 24.6779C35.2956 24.8469 34.9198 24.9339 34.5392 24.9323C34.2336 24.9731 33.9228 24.9316 33.6386 24.812C33.3544 24.6924 33.1071 24.4992 32.9221 24.252C32.6351 23.7296 32.4963 23.1384 32.5208 22.5426C32.5212 22.0676 32.5547 21.5932 32.6211 21.1229C32.6919 20.6201 32.7805 20.1292 32.8808 19.6441C32.8808 19.585 32.8808 19.5554 32.8808 19.5554C32.7278 19.6023 32.5687 19.6262 32.4087 19.6264C32.2021 19.6264 31.9837 19.6264 31.7654 19.6264C31.547 19.6264 31.3464 19.6264 31.1752 19.6264H30.886C30.827 19.6264 30.7975 19.6678 30.7975 19.7447L30.9214 20.1706C30.9784 20.3969 31.0081 20.6293 31.01 20.8627C31.0139 20.8915 31.0111 20.9209 31.0018 20.9486C30.9925 20.9762 30.9769 21.0013 30.9564 21.0219C30.9358 21.0425 30.9108 21.0581 30.8832 21.0674C30.8557 21.0767 30.8263 21.0795 30.7975 21.0756C30.7149 21.0756 30.6795 21.0756 30.6795 20.9869C30.6797 20.7888 30.6639 20.5909 30.6323 20.3954C30.5807 20.1557 30.4824 19.9285 30.3431 19.727C30.2934 19.6364 30.2225 19.5592 30.1365 19.5022L29.865 19.3543C29.7872 19.3088 29.7158 19.2531 29.6526 19.1887C29.6224 19.1562 29.599 19.1181 29.5838 19.0764C29.5686 19.0348 29.5619 18.9905 29.5641 18.9462C29.5645 18.8618 29.5847 18.7787 29.6231 18.7036C29.639 18.6684 29.6647 18.6384 29.6972 18.6174C29.7296 18.5965 29.7674 18.5853 29.806 18.5853C29.8493 18.5832 29.8926 18.59 29.9332 18.6053C29.9738 18.6206 30.0108 18.6439 30.0421 18.6741C30.2558 18.8192 30.5003 18.9124 30.7562 18.9462C31.0395 18.9875 31.3256 19.0072 31.6119 19.0053C31.8539 19.0053 32.0959 19.0053 32.3378 19.0053H32.928C33.0514 18.9987 33.1747 19.021 33.288 19.0704C33.3706 19.1059 33.4119 19.2064 33.4119 19.372C33.3831 19.812 33.3019 20.2469 33.17 20.6675C33.0099 21.2453 32.9285 21.8423 32.928 22.442C32.9138 22.9178 33.0456 23.3865 33.3057 23.7847C33.4847 23.9934 33.7111 24.1561 33.9657 24.259C34.2204 24.3619 34.496 24.4021 34.7693 24.3763C35.0321 24.3709 35.2919 24.3189 35.5365 24.2225C35.8214 24.1139 36.0792 23.9443 36.2919 23.7256C36.5471 23.4597 36.7476 23.1462 36.8821 22.8028C37.056 22.3607 37.1384 21.8878 37.1241 21.4128V21.0105C37.1241 20.8686 37.189 20.7976 37.307 20.7976C37.4251 20.7976 37.4605 20.7976 37.4605 20.8567V21.1584C37.4696 21.6924 37.3898 22.2242 37.2244 22.7318Z" fill="#142466" stroke="#142466" stroke-width="0.2304" stroke-miterlimit="10"/>
<path d="M45.8138 20.8584C45.8904 21.7603 45.6201 22.6575 45.0584 23.3664C44.8435 23.6112 44.5794 23.8078 44.2835 23.9434C43.9875 24.0789 43.6664 24.1504 43.341 24.1531C42.6291 24.1514 41.9464 23.8687 41.4407 23.3664C41.2067 23.764 40.8883 24.1053 40.5082 24.3661C40.126 24.628 39.6729 24.7663 39.2099 24.7624C38.8806 24.788 38.5501 24.7292 38.2497 24.5916C37.9493 24.454 37.6887 24.242 37.4925 23.9757C37.1234 23.4326 36.9335 22.7871 36.9496 22.1301C36.9593 21.2513 37.2238 20.3943 37.7109 19.6635C37.9455 19.3221 38.2491 19.0339 38.602 18.8176C38.9605 18.6093 39.368 18.5011 39.7823 18.5041C40.1119 18.4768 40.4429 18.5348 40.7436 18.6726C41.0443 18.8104 41.3047 19.0232 41.4997 19.2909C41.8695 19.8314 42.0595 20.4752 42.0427 21.1305C42.0412 21.7787 41.8982 22.4187 41.6237 23.0056C41.8361 23.2436 42.0962 23.4341 42.387 23.5645C42.6779 23.695 42.9929 23.7625 43.3115 23.7627C43.593 23.7605 43.8712 23.7018 44.1297 23.5901C44.3882 23.4783 44.6217 23.3158 44.8165 23.112C45.0616 22.8242 45.2469 22.4902 45.3615 22.1296C45.476 21.769 45.5174 21.3891 45.4833 21.0122C45.4833 20.8525 45.5542 20.7696 45.6958 20.7696C45.8374 20.7696 45.8138 20.7992 45.8138 20.8584ZM41.1692 23.1298C40.5333 22.3425 40.1929 21.3566 40.2073 20.3437C40.2093 19.9792 40.2389 19.6154 40.2958 19.2554C40.0737 19.1702 39.837 19.13 39.5994 19.1371C39.2689 19.1307 38.942 19.208 38.6492 19.3618C38.3829 19.5074 38.1514 19.7093 37.9705 19.9533C37.7895 20.211 37.6519 20.4968 37.5633 20.7992C37.4737 21.1087 37.428 21.4293 37.4276 21.7516C37.4227 22.3475 37.5976 22.9309 37.9292 23.4255C38.0918 23.6689 38.3153 23.8653 38.5773 23.9951C38.8393 24.1248 39.1307 24.1834 39.4223 24.1649C39.7889 24.1751 40.1503 24.0763 40.461 23.881C40.7527 23.6898 40.9953 23.4325 41.1692 23.1298ZM41.5942 21.4676C41.5972 21.0771 41.5188 20.6903 41.364 20.3319C41.2258 19.9926 41.0021 19.695 40.7148 19.4683C40.6805 19.6078 40.6607 19.7506 40.6558 19.8942V20.2846C40.6108 21.151 40.8674 22.0061 41.3817 22.7039C41.5292 22.3088 41.6013 21.8894 41.5942 21.4676Z" fill="#142466" stroke="#142466" stroke-width="0.2304" stroke-miterlimit="10"/>
<path d="M54.1738 20.8583C54.2073 21.2379 54.1657 21.6204 54.0512 21.9838C53.9368 22.3473 53.7518 22.6844 53.507 22.976C53.3098 23.1854 53.0719 23.3522 52.8081 23.4662C52.5442 23.5801 52.2598 23.6387 51.9725 23.6385C51.5585 23.6395 51.1514 23.5314 50.7922 23.3249C50.3949 23.0985 50.0554 22.7826 49.8007 22.4022C49.6428 22.7346 49.5106 23.0787 49.4053 23.4314C49.2964 23.7759 49.1176 24.0941 48.8801 24.366C48.7998 24.4623 48.7009 24.5413 48.5893 24.5983C48.4777 24.6552 48.3558 24.6889 48.2309 24.6973C47.8296 24.6973 47.564 24.3956 47.446 23.7922L46.785 20.1663C46.7023 19.699 46.5312 19.4683 46.2715 19.4683C46.2073 19.4697 46.1445 19.4872 46.0889 19.5192C46.0332 19.5513 45.9864 19.5968 45.9528 19.6516C45.8535 19.8041 45.8059 19.9845 45.8171 20.1663V20.8583C45.8171 21.024 45.7581 21.1009 45.6341 21.1009C45.5102 21.1009 45.4866 21.024 45.4866 20.8583V20.1663C45.4761 19.8173 45.5597 19.4719 45.7286 19.1666C45.7897 19.0439 45.8842 18.9411 46.0012 18.8699C46.1181 18.7988 46.2528 18.7622 46.3896 18.7644C46.4984 18.7638 46.6044 18.7987 46.6917 18.8637C46.779 18.9288 46.8428 19.0206 46.8735 19.1252C46.9905 19.4284 47.0813 19.7411 47.145 20.0598L47.7765 23.2954C47.8787 23.7804 48.0755 24.0229 48.3666 24.0229C48.6086 24.0229 48.8033 23.8632 48.9568 23.5379C49.024 23.3363 49.1028 23.1388 49.1928 22.9464C49.3168 22.6861 49.4348 22.3549 49.5587 22.0414C49.2609 21.4076 49.1154 20.7127 49.1338 20.0125C49.125 19.5789 49.2353 19.1512 49.4525 18.7762C49.5294 18.6138 49.6505 18.4765 49.802 18.3802C49.9534 18.2839 50.1289 18.2325 50.3083 18.232C50.3989 18.2306 50.4886 18.2502 50.5705 18.2891C50.6524 18.3281 50.7242 18.3855 50.7804 18.4568C50.9214 18.6431 50.9906 18.8741 50.9751 19.1074C50.9557 19.3653 50.9042 19.6196 50.8217 19.8646C50.8217 19.8646 50.7391 20.1071 50.5679 20.5448C50.3968 20.9825 50.2079 21.4321 49.9778 21.9171C50.2199 22.3209 50.5561 22.6598 50.9574 22.905C51.2935 23.1288 51.6871 23.2501 52.0906 23.254C52.3248 23.2499 52.5553 23.195 52.7663 23.0928C52.9772 22.9907 53.1635 22.8439 53.3122 22.6625C53.7046 22.1427 53.8917 21.496 53.8375 20.8465C53.8375 20.7282 53.9083 20.669 54.0499 20.669C54.1325 20.7105 54.1738 20.7578 54.1738 20.8583ZM50.5207 19.2908C50.5207 18.9241 50.3909 18.7466 50.1312 18.7466C50.0415 18.7517 49.9545 18.7793 49.8782 18.8269C49.8019 18.8744 49.7388 18.9404 49.6945 19.0187C49.5444 19.2632 49.4743 19.5486 49.4938 19.835C49.4939 20.1324 49.5195 20.4293 49.5705 20.7223C49.6186 20.9883 49.6958 21.2481 49.8007 21.4972C49.901 21.1955 50.0014 20.9057 50.1135 20.6513C50.2256 20.3969 50.3083 20.1722 50.3732 20.0125C50.4522 19.779 50.5017 19.5366 50.5207 19.2908Z" fill="#142466" stroke="#142466" stroke-width="0.2304" stroke-miterlimit="10"/>
<path d="M55.6758 15.6561C55.6795 15.9256 55.5875 16.1877 55.4161 16.3955C55.3252 16.5058 55.2091 16.5925 55.0775 16.6481C54.946 16.7037 54.803 16.7266 54.6607 16.7149C54.5386 16.722 54.4167 16.698 54.3063 16.6453C54.1959 16.5926 54.1006 16.5127 54.0292 16.4132C53.8906 16.2203 53.8163 15.9884 53.8168 15.7507C53.8171 15.4701 53.9014 15.196 54.0587 14.964C54.1418 14.8421 54.2552 14.7442 54.3877 14.6798C54.5203 14.6155 54.6673 14.587 54.8142 14.5973C54.94 14.5909 55.0652 14.619 55.1764 14.6783C55.2876 14.7377 55.3807 14.8262 55.4456 14.9344C55.589 15.1483 55.6688 15.3985 55.6758 15.6561ZM59.3112 23.819C59.0662 24.1037 58.7627 24.332 58.4215 24.4882C58.0802 24.6444 57.7093 24.7249 57.3342 24.724C56.8556 24.7571 56.3808 24.6187 55.9945 24.3336C55.6781 24.0717 55.4427 23.725 55.3158 23.3339C55.1716 22.917 55.0939 22.4798 55.0856 22.0385C55.0856 21.5712 55.0856 21.1394 55.0561 20.7372C55.0492 20.403 55.0256 20.0693 54.9853 19.7375C54.942 19.4773 54.8299 19.3471 54.6489 19.3471C54.4679 19.3471 54.3322 19.4773 54.2417 19.7375C54.1873 20.1076 54.1636 20.4815 54.1709 20.8555C54.1709 21.0211 54.106 21.098 53.9879 21.098C53.8699 21.098 53.8345 21.0211 53.8345 20.8555C53.8345 20.6899 53.8345 20.3941 53.864 20.1338C53.8856 19.8825 53.9271 19.6333 53.9879 19.3885C54.0348 19.1718 54.1318 18.9692 54.2712 18.797C54.3381 18.7231 54.4203 18.6647 54.512 18.6258C54.6038 18.587 54.7028 18.5687 54.8024 18.5722C54.9231 18.5684 55.0409 18.6099 55.1327 18.6888C55.2244 18.7676 55.2834 18.8779 55.2981 18.9981C55.377 19.3436 55.4185 19.6966 55.422 20.051C55.422 20.4769 55.422 20.9383 55.422 21.4293C55.4171 21.8931 55.4788 22.3553 55.605 22.8016C55.7081 23.1993 55.9113 23.5639 56.1951 23.8604C56.3645 24.0137 56.5635 24.1306 56.7797 24.2038C56.9959 24.2771 57.2248 24.3051 57.4522 24.2863C57.7149 24.2805 57.9746 24.2284 58.2194 24.1325C58.5035 24.0224 58.761 23.853 58.9748 23.6356C59.23 23.3697 59.4305 23.0562 59.565 22.7128C59.7361 22.27 59.8184 21.7976 59.807 21.3228V20.8969C59.807 20.7786 59.866 20.7194 59.9899 20.7194C60.1138 20.7194 60.1374 20.7608 60.1374 20.8377V21.1394C60.2103 22.1052 59.915 23.0628 59.3112 23.819ZM55.3158 15.6561C55.3179 15.5049 55.2702 15.3573 55.1801 15.2361C55.1322 15.1746 55.0701 15.1258 54.9991 15.0938C54.9282 15.0619 54.8505 15.0478 54.7728 15.0527C54.6951 15.0467 54.6171 15.0603 54.5459 15.0924C54.4748 15.1244 54.4128 15.1738 54.3656 15.2361C54.2729 15.3559 54.2249 15.5045 54.2299 15.6561C54.2224 15.8044 54.2709 15.9501 54.3656 16.0642C54.4157 16.1221 54.4786 16.1672 54.5494 16.196C54.6202 16.2248 54.6967 16.2364 54.7728 16.2298C54.852 16.2386 54.9321 16.2269 55.0054 16.1958C55.0788 16.1647 55.143 16.1154 55.1919 16.0524C55.2723 15.9359 55.3156 15.7977 55.3158 15.6561Z" fill="#142466" stroke="#142466" stroke-width="0.2304" stroke-miterlimit="10"/>
<path d="M65.4903 23.8495C65.2471 24.1352 64.9448 24.3646 64.6045 24.5218C64.2642 24.6791 63.8939 24.7605 63.5192 24.7604C63.2311 24.7587 62.9455 24.7067 62.6752 24.6066C62.3793 24.5017 62.1151 24.3225 61.908 24.0861C61.6863 23.828 61.5179 23.5285 61.4123 23.2047C61.2828 22.7895 61.221 22.3561 61.2293 21.9212C61.2726 18.656 61.3139 15.7339 61.3533 13.1549C61.3533 12.0488 61.3887 10.9604 61.4005 9.88973C61.4123 8.81909 61.4005 7.86675 61.4005 7.02088C61.4005 6.17502 61.4005 5.47111 61.43 4.92101C61.4595 4.3709 61.43 4.05739 61.43 3.99824C61.43 3.53686 61.2529 3.30025 60.887 3.30025C60.7277 3.30025 60.6097 3.40673 60.527 3.61967C60.4614 3.76755 60.4215 3.9256 60.409 4.08697C60.409 4.08697 60.409 4.43596 60.409 5.06888C60.409 5.7018 60.409 6.52993 60.3618 7.54733C60.3146 8.56474 60.3205 9.70045 60.291 10.9485C60.2615 12.1966 60.232 13.4388 60.2143 14.6692C60.1966 15.8995 60.1729 17.0352 60.1552 18.1591C60.1375 19.283 60.1139 20.1466 60.0903 20.8328C60.0903 20.9984 60.0313 21.0753 59.9133 21.0753C59.7952 21.0753 59.7598 20.9984 59.7598 20.8328C59.7598 20.1466 59.7952 19.2712 59.807 18.2064C59.8188 17.1417 59.807 15.9883 59.8483 14.7579C59.8897 13.5275 59.8897 12.2972 59.9133 11.055C59.9369 9.81284 59.9487 8.68896 59.9546 7.6538C59.9605 6.61865 59.9546 5.7787 59.9546 5.09846C59.9546 4.41822 59.9546 4.04556 59.9546 3.96867C59.9618 3.59625 60.0337 3.22795 60.167 2.88028C60.2302 2.72883 60.3412 2.6023 60.483 2.52004C60.6247 2.43779 60.7894 2.40434 60.952 2.42481C61.0497 2.42028 61.1472 2.43697 61.2378 2.47372C61.3285 2.51047 61.4101 2.56643 61.4772 2.63776C61.6056 2.77799 61.704 2.94305 61.7664 3.1228C61.8238 3.2931 61.8595 3.46998 61.8726 3.64925C61.8726 3.82079 61.8726 3.93909 61.8726 3.99824C61.79 7.70704 61.7251 11.0136 61.6602 13.912C61.5952 16.8105 61.5716 19.425 61.5716 21.7437C61.5033 22.4506 61.7153 23.156 62.1618 23.7075C62.3362 23.8932 62.5465 24.0414 62.7798 24.1431C63.0132 24.2448 63.2647 24.2978 63.5192 24.299C63.782 24.2937 64.0418 24.2417 64.2864 24.1452C64.5713 24.0367 64.8291 23.8671 65.0418 23.6484C65.2968 23.3824 65.4973 23.0689 65.632 22.7256C65.8036 22.2829 65.8858 21.8104 65.8739 21.3356V20.9511C65.8739 20.8268 65.933 20.7677 66.051 20.7677C66.169 20.7677 66.2044 20.8091 66.2044 20.886V21.1936C66.3065 22.1373 66.0517 23.085 65.4903 23.8495Z" fill="#142466" stroke="#142466" stroke-width="0.2304" stroke-miterlimit="10"/>
<path d="M71.6752 23.8502C71.4308 24.1361 71.1275 24.3655 70.7862 24.5227C70.4449 24.68 70.0738 24.7613 69.6981 24.7612C69.4101 24.759 69.1246 24.7069 68.8542 24.6074C68.5711 24.5055 68.3176 24.3348 68.1165 24.1105C67.8907 23.8553 67.7217 23.5549 67.6208 23.2291C67.4883 22.8146 67.4264 22.3807 67.4378 21.9456C67.4772 18.6804 67.5165 15.7583 67.5559 13.1793C67.5559 12.0732 67.5913 10.9848 67.6031 9.91413C67.6149 8.84349 67.6031 7.89115 67.6031 7.04529C67.6031 6.19942 67.6031 5.49551 67.6326 4.94541C67.6621 4.3953 67.6326 4.08179 67.6326 4.02264C67.6326 3.56126 67.4496 3.32465 67.0896 3.32465C66.9303 3.32465 66.8063 3.43113 66.7296 3.64407C66.6629 3.79193 66.621 3.94982 66.6057 4.11137C66.6057 4.11137 66.6057 4.46036 66.6057 5.09328C66.6057 5.72621 66.6057 6.55433 66.5644 7.57173C66.5231 8.58914 66.5172 9.72485 66.4876 10.9729C66.4581 12.221 66.4345 13.4632 66.4109 14.6936C66.3873 15.9239 66.3696 17.0596 66.3519 18.1835C66.3342 19.3074 66.3106 20.171 66.2929 20.8572C66.2929 21.0228 66.2339 21.0997 66.1099 21.0997C65.986 21.0997 65.9624 21.0228 65.9624 20.8572C65.9624 20.171 65.9978 19.2956 66.0037 18.2308C66.0096 17.1661 66.0037 16.0127 66.0509 14.7823C66.0981 13.552 66.0922 12.3216 66.1099 11.0794C66.1276 9.83724 66.1454 8.71336 66.1572 7.67821C66.169 6.64305 66.1572 5.8031 66.1867 5.12286C66.2162 4.44262 66.1867 4.06996 66.1867 3.99307C66.195 3.62131 66.2648 3.25352 66.3932 2.90468C66.4572 2.75383 66.5684 2.62787 66.7099 2.54574C66.8514 2.46361 67.0157 2.42973 67.1781 2.44921C67.2767 2.44499 67.375 2.46179 67.4665 2.4985C67.5581 2.53521 67.6409 2.59099 67.7093 2.66216C67.838 2.80111 67.9347 2.96669 67.9926 3.1472C68.0499 3.3175 68.0856 3.49438 68.0988 3.67365C68.0988 3.84519 68.0988 3.96349 68.0988 4.02264C68.0162 7.73341 67.9454 11.038 67.8863 13.9364C67.8273 16.8349 67.7959 19.4454 67.7919 21.7681C67.7565 22.1183 67.7904 22.472 67.8917 22.809C67.9929 23.146 68.1596 23.4596 68.3821 23.7319C68.5563 23.9179 68.7665 24.0662 68.9999 24.1679C69.2333 24.2697 69.485 24.3226 69.7395 24.3234C70.0022 24.3176 70.2619 24.2656 70.5067 24.1696C70.7908 24.0596 71.0483 23.8902 71.2621 23.6728C71.5172 23.4069 71.7177 23.0934 71.8523 22.75C72.0267 22.3081 72.109 21.835 72.0942 21.36V20.9518C72.0901 20.9268 72.0921 20.9012 72.0998 20.8771C72.1076 20.853 72.1209 20.831 72.1388 20.8131C72.1567 20.7952 72.1786 20.7818 72.2026 20.774C72.2267 20.7663 72.2522 20.7644 72.2772 20.7684C72.3775 20.7684 72.4247 20.8098 72.4247 20.8867V21.1943C72.5167 22.1426 72.2491 23.0907 71.6752 23.8502Z" fill="#142466" stroke="#142466" stroke-width="0.2304" stroke-miterlimit="10"/>
<path d="M79.6856 22.9048C79.4612 23.3572 79.1481 23.7596 78.765 24.0879C78.3967 24.395 77.9715 24.6262 77.5138 24.7681C77.0637 24.9029 76.5967 24.9726 76.1269 24.9751C75.5072 24.987 74.8958 24.8318 74.3564 24.5256C74.1199 24.4018 73.9224 24.2145 73.7859 23.9847C73.6494 23.7549 73.5792 23.4917 73.5833 23.2243C73.599 22.875 73.6917 22.5336 73.8548 22.2246C73.8665 22.2133 73.8753 22.1993 73.8805 22.1839C73.8856 22.1684 73.8869 22.1519 73.8843 22.1359C73.8843 22.0531 73.8548 22.0117 73.7958 22.0117C73.3916 21.9726 73.0008 21.8454 72.6509 21.639C72.4552 21.4992 72.3012 21.3085 72.2056 21.0876C72.1099 20.8666 72.0761 20.6237 72.1079 20.385C72.1108 20.0182 72.2135 19.6591 72.4048 19.3465C72.5962 19.0338 72.8689 18.7793 73.1938 18.6104C73.4443 18.4763 73.7243 18.4071 74.0082 18.4093C74.4449 18.3852 74.8777 18.5035 75.2417 18.7465C75.4852 18.9071 75.7006 19.107 75.8791 19.338C75.9004 19.3946 75.9105 19.4549 75.9086 19.5155C75.9086 19.5983 75.9086 19.6515 75.8496 19.6692C75.8122 19.6916 75.769 19.7019 75.7256 19.6988C75.6459 19.6986 75.5695 19.6667 75.5132 19.6101C75.3244 19.3961 75.0878 19.2299 74.8227 19.1251C74.5565 19.0582 74.2825 19.0283 74.0082 19.0363C73.8082 19.0455 73.6119 19.094 73.4307 19.1793C73.2494 19.2646 73.0867 19.3848 72.9519 19.5332C72.8084 19.6596 72.692 19.814 72.6099 19.9868C72.5277 20.1597 72.4814 20.3475 72.4738 20.5388C72.4627 20.7065 72.5017 20.8736 72.5858 21.019C72.6699 21.1644 72.7953 21.2814 72.9459 21.3551C73.2577 21.5169 73.6041 21.6002 73.9551 21.5976C74.2609 21.6173 74.5676 21.5771 74.8581 21.4793C74.949 21.4232 75.0525 21.3907 75.1591 21.3846C75.283 21.3846 75.342 21.4379 75.342 21.5384C75.342 21.639 75.283 21.6863 75.1591 21.7455C74.8324 21.8631 74.5389 22.0579 74.3033 22.3133C74.1323 22.5035 74.0359 22.7494 74.0318 23.0054C74.0442 23.2159 74.1084 23.42 74.2185 23.5996C74.3287 23.7791 74.4815 23.9286 74.6633 24.0346C75.1915 24.3682 75.8107 24.5275 76.4338 24.4901C76.8333 24.4885 77.2306 24.4308 77.6142 24.3186C78.0103 24.2103 78.3787 24.018 78.6943 23.7547C79.0099 23.4914 79.2655 23.1633 79.4437 22.7925C79.6556 22.3396 79.7587 21.8432 79.7447 21.3432V21.012C79.7447 20.87 79.8037 20.799 79.9217 20.799C80.022 20.799 80.0751 20.799 80.0751 20.8582V21.1599C80.082 21.7639 79.9486 22.3613 79.6856 22.9048Z" fill="#142466" stroke="#142466" stroke-width="0.2304" stroke-miterlimit="10"/>
<path d="M104.408 23.868C104.167 24.1633 103.863 24.4016 103.52 24.5662C103.176 24.7308 102.8 24.8175 102.419 24.8204C101.952 24.8485 101.489 24.7194 101.103 24.4536C100.781 24.2106 100.539 23.877 100.407 23.4954C100.26 23.0721 100.174 22.6299 100.153 22.1822C100.153 21.6972 100.106 21.218 100.106 20.733V11.0026C100.107 10.5437 100.078 10.0852 100.017 9.63025C99.9685 9.23419 99.8506 8.8498 99.6692 8.49454C99.5102 8.18574 99.2769 7.92148 98.9905 7.72557C98.6656 7.52246 98.2873 7.42152 97.9046 7.43573C97.6658 7.42929 97.428 7.47041 97.2052 7.55671C96.9823 7.64302 96.7787 7.77279 96.6063 7.93852C96.2605 8.27218 95.989 8.67533 95.8095 9.12155C95.6157 9.60143 95.4848 10.1045 95.42 10.6181C95.3548 11.0687 95.3193 11.5232 95.3138 11.9786V22.7619C95.3439 23.2297 95.2217 23.6946 94.9656 24.0869C94.8799 24.2205 94.7644 24.3323 94.6282 24.4134C94.4919 24.4945 94.3387 24.5427 94.1807 24.5542C94.0614 24.5487 93.9452 24.514 93.8423 24.4532C93.7395 24.3924 93.653 24.3072 93.5905 24.2052C93.392 23.8744 93.3012 23.4898 93.3308 23.105V8.43539C93.3308 7.25236 93.3013 6.23496 93.2423 5.38317C93.2057 4.67826 93.0989 3.97878 92.9236 3.29513C92.8197 2.84978 92.5975 2.44096 92.2803 2.1121C91.9831 1.84428 91.5939 1.70225 91.1944 1.71578C90.6981 1.70365 90.2162 1.88372 89.8489 2.21857C89.4739 2.55025 89.1672 2.95211 88.9459 3.4016C88.7159 3.87648 88.5492 4.37965 88.4502 4.89813C88.3543 5.34543 88.3029 5.80115 88.2967 6.25862V22.7619C88.3286 23.2389 88.202 23.7132 87.9367 24.1105C87.8511 24.2441 87.7355 24.3559 87.5993 24.437C87.4631 24.5181 87.3099 24.5663 87.1518 24.5778C87.0331 24.5699 86.9178 24.5343 86.8153 24.4737C86.7128 24.413 86.626 24.3292 86.5616 24.2288C86.3536 23.9017 86.2582 23.5153 86.2902 23.1286V8.43539C86.2902 8.25202 86.2194 8.16329 86.0777 8.16329C85.9905 8.18145 85.9081 8.21772 85.8357 8.26977C85.7039 8.348 85.568 8.41908 85.4285 8.48271L84.9328 8.70749C84.8093 8.76877 84.6749 8.80496 84.5374 8.81396C84.4194 8.81396 84.3426 8.81396 84.3131 8.75481C84.2769 8.69001 84.2605 8.61595 84.2659 8.54186C84.2616 8.50074 84.2694 8.45927 84.2883 8.42251C84.3072 8.38575 84.3363 8.35528 84.3721 8.33483L84.7203 8.15146C84.9387 8.05091 85.1984 7.92077 85.4875 7.75515C85.7169 7.63635 85.9343 7.49571 86.1367 7.33517C86.1656 7.3115 86.1973 7.29162 86.2312 7.27602C86.2939 7.23818 86.3647 7.21588 86.4377 7.21096C86.5617 7.21096 86.6207 7.29377 86.6207 7.45348V8.33483C86.6207 8.79622 86.6207 9.3759 86.6207 10.068C86.6207 10.76 86.6207 11.5349 86.6207 12.3808V22.0994C86.6207 22.1999 86.6207 22.3478 86.6207 22.5371C86.6256 22.7372 86.6553 22.9359 86.7092 23.1286C86.7519 23.3021 86.8174 23.4692 86.9039 23.6255C86.9298 23.6853 86.9715 23.7367 87.0246 23.7743C87.0777 23.8119 87.1401 23.834 87.2049 23.8384C87.4882 23.8384 87.6535 23.6551 87.7066 23.2943C87.7531 22.9432 87.7767 22.5895 87.7774 22.2354V6.16989C87.7734 5.48112 87.8607 4.79487 88.0371 4.12916C88.187 3.54383 88.4301 2.98656 88.7571 2.47883C89.0445 2.04232 89.4206 1.67146 89.8607 1.39045C90.2772 1.13241 90.7579 0.997121 91.2476 1.00005C91.5851 1.00041 91.9174 1.08368 92.2154 1.24257C92.5687 1.46676 92.8384 1.8015 92.9826 2.19491C93.2356 2.82408 93.4024 3.4847 93.4784 4.15874C93.6164 5.24538 93.6776 6.34044 93.6613 7.43573V17.4915C93.6613 18.3255 93.6613 19.0767 93.6613 19.7392C93.6613 20.4017 93.6613 20.9223 93.6613 21.3718V22.0698C93.6613 22.1704 93.6613 22.3183 93.6613 22.5075C93.6714 22.7076 93.703 22.9059 93.7558 23.0991C93.7959 23.2734 93.8615 23.4408 93.9505 23.5959C93.9752 23.6565 94.0167 23.7087 94.07 23.7464C94.1233 23.7842 94.1863 23.8058 94.2515 23.8089C94.5348 23.8089 94.7 23.6255 94.7472 23.2647C94.7986 22.9141 94.8242 22.5602 94.824 22.2059V11.9135C94.8196 11.2275 94.8908 10.5431 95.0364 9.87277C95.1472 9.29549 95.3462 8.73881 95.6266 8.22245C95.8722 7.79022 96.2109 7.41839 96.6181 7.13406C97.0169 6.87047 97.486 6.73434 97.9636 6.74366C98.2982 6.74298 98.6301 6.8031 98.9433 6.92111C99.264 7.05402 99.5403 7.27559 99.74 7.55995C99.9931 7.93486 100.173 8.3543 100.271 8.79622C100.415 9.45261 100.48 10.1237 100.466 10.7955V20.5378C100.466 20.9637 100.466 21.3955 100.466 21.8391C100.481 22.2425 100.557 22.6413 100.69 23.0222C100.804 23.3674 101.008 23.6758 101.28 23.9153C101.62 24.1694 102.038 24.2932 102.461 24.2643C102.724 24.259 102.983 24.2069 103.228 24.1105C103.513 24.002 103.771 23.8324 103.983 23.6137C104.238 23.3477 104.439 23.0342 104.573 22.6909C104.745 22.248 104.827 21.7756 104.815 21.3008V21.011C104.815 20.869 104.874 20.7981 104.993 20.7981C105.093 20.7981 105.146 20.7981 105.146 20.8572V21.1589C105.238 22.1219 104.976 23.0855 104.408 23.868Z" fill="#142466" stroke="#142466" stroke-width="0.2304" stroke-miterlimit="10"/>
<path d="M114.255 23.8213C114.012 24.1062 113.709 24.3347 113.369 24.4909C113.029 24.6472 112.658 24.7275 112.284 24.7263C111.804 24.7582 111.328 24.62 110.939 24.3359C110.624 24.0725 110.389 23.7263 110.26 23.3362C110.117 22.9189 110.042 22.4818 110.036 22.0408C110.036 21.5735 110.036 21.1417 110.006 20.7395C110.001 20.405 109.975 20.0712 109.929 19.7398C109.888 19.4795 109.782 19.3494 109.599 19.3494C109.416 19.3494 109.239 19.5209 109.192 19.864C109.136 20.2835 109.112 20.7067 109.121 21.1299C109.132 21.6564 109.06 22.1814 108.908 22.6856C108.791 23.0757 108.603 23.4407 108.354 23.7621C108.141 24.0282 107.873 24.2442 107.569 24.395C107.292 24.5335 106.987 24.6064 106.678 24.608C106.387 24.6254 106.097 24.5676 105.836 24.4401C105.574 24.3127 105.35 24.1199 105.184 23.8804C104.849 23.3811 104.676 22.7903 104.689 22.1887C104.692 21.7866 104.758 21.3876 104.883 21.0057C105.01 20.6033 105.21 20.2281 105.474 19.8995C105.735 19.5686 106.063 19.2965 106.436 19.101C106.847 18.8933 107.303 18.7897 107.763 18.7993C107.987 18.7928 108.211 18.8127 108.43 18.8585C108.566 18.8585 108.637 18.9886 108.637 19.1897C108.639 19.2273 108.63 19.2646 108.611 19.2971C108.592 19.3296 108.564 19.356 108.531 19.3731C108.482 19.4066 108.425 19.427 108.365 19.4322H108.005C107.586 19.425 107.169 19.5077 106.784 19.6747C106.455 19.81 106.158 20.0113 105.91 20.2663C105.681 20.5158 105.5 20.8069 105.379 21.124C105.264 21.4343 105.204 21.7627 105.202 22.094C105.195 22.5797 105.353 23.0534 105.651 23.4368C105.805 23.6285 106.002 23.7818 106.225 23.8847C106.449 23.9876 106.693 24.0373 106.939 24.0298C107.184 24.0224 107.425 23.958 107.642 23.8418C107.859 23.7256 108.046 23.5606 108.188 23.3599C108.61 22.6933 108.816 21.9124 108.779 21.124C108.779 20.8045 108.814 20.491 108.826 20.1894C108.832 19.895 108.865 19.6019 108.926 19.3139C108.962 19.1448 109.042 18.9879 109.156 18.8585C109.229 18.7746 109.32 18.7089 109.423 18.6668C109.525 18.6247 109.636 18.6073 109.746 18.6159C109.868 18.6106 109.987 18.6514 110.08 18.7304C110.173 18.8093 110.233 18.9206 110.248 19.0418C110.325 19.3876 110.364 19.7405 110.366 20.0947C110.366 20.5206 110.366 20.982 110.366 21.4729C110.362 21.9363 110.422 22.3981 110.543 22.8453C110.649 23.2418 110.852 23.6057 111.133 23.9041C111.302 24.0569 111.5 24.1736 111.715 24.2468C111.93 24.3201 112.158 24.3484 112.384 24.33C112.647 24.3247 112.907 24.2726 113.152 24.1762C113.437 24.0676 113.694 23.898 113.907 23.6793C114.162 23.4133 114.363 23.0998 114.497 22.7565C114.668 22.3137 114.751 21.8413 114.739 21.3665V21.0116C114.739 20.8696 114.798 20.7986 114.916 20.7986C115.017 20.7986 115.07 20.7986 115.07 20.8578V21.1594C115.144 22.1181 114.853 23.0693 114.255 23.8213Z" fill="#142466" stroke="#142466" stroke-width="0.2304" stroke-miterlimit="10"/>
<path d="M121.338 22.7329C121.191 23.1619 120.972 23.5622 120.689 23.9159C120.435 24.2362 120.115 24.4967 119.75 24.679C119.409 24.8479 119.033 24.935 118.653 24.9333C118.348 24.9743 118.038 24.9328 117.754 24.8132C117.471 24.6936 117.225 24.5002 117.041 24.2531C116.752 23.7313 116.611 23.14 116.634 22.5436C116.638 22.0687 116.671 21.5946 116.734 21.124C116.805 20.6212 116.894 20.1302 116.994 19.6452C116.994 19.586 116.994 19.5565 116.965 19.5565C116.814 19.6029 116.656 19.6268 116.498 19.6274C116.286 19.6274 116.068 19.6274 115.849 19.6274C115.631 19.6274 115.43 19.6274 115.259 19.6274H114.976C114.911 19.6274 114.881 19.6688 114.881 19.7457L115.005 20.1716C115.062 20.398 115.092 20.6303 115.094 20.8637C115.098 20.8926 115.095 20.922 115.086 20.9496C115.076 20.9772 115.061 21.0023 115.04 21.0229C115.02 21.0435 114.995 21.0591 114.967 21.0684C114.94 21.0777 114.91 21.0806 114.881 21.0767C114.805 21.0767 114.763 21.0767 114.763 20.9879C114.764 20.7898 114.748 20.592 114.716 20.3964C114.668 20.152 114.574 19.9191 114.439 19.7103C114.385 19.6206 114.313 19.5438 114.226 19.4855L113.984 19.3317C113.906 19.2862 113.835 19.2305 113.772 19.1661C113.742 19.1336 113.718 19.0955 113.703 19.0538C113.688 19.0121 113.681 18.9678 113.683 18.9235C113.684 18.8392 113.704 18.7561 113.742 18.681C113.758 18.6457 113.784 18.6158 113.816 18.5948C113.849 18.5738 113.887 18.5627 113.925 18.5627C114.014 18.5596 114.101 18.5914 114.167 18.6514C114.379 18.7965 114.621 18.8897 114.875 18.9235C115.159 18.9649 115.445 18.9846 115.731 18.9827C115.973 18.9827 116.215 18.9827 116.457 18.9827H117.047C117.171 18.9761 117.294 18.9984 117.407 19.0478C117.49 19.0832 117.531 19.1838 117.531 19.3494C117.502 19.7894 117.421 20.2242 117.289 20.6448C117.129 21.2227 117.048 21.8197 117.047 22.4194C117.033 22.8952 117.165 23.3639 117.425 23.7621C117.604 23.9704 117.831 24.1328 118.085 24.2357C118.34 24.3386 118.615 24.379 118.889 24.3536C119.151 24.3483 119.411 24.2963 119.656 24.1999C119.941 24.0913 120.198 23.9217 120.411 23.703C120.664 23.4355 120.864 23.1224 121.001 22.7802C121.17 22.3369 121.251 21.8645 121.237 21.3902V21.0116C121.237 20.8696 121.302 20.7986 121.42 20.7986C121.538 20.7986 121.574 20.7986 121.574 20.8578V21.1595C121.583 21.6934 121.503 22.2252 121.338 22.7329Z" fill="#142466" stroke="#142466" stroke-width="0.2304" stroke-miterlimit="10"/>
<path d="M130.607 23.8205C130.362 24.1056 130.059 24.3341 129.718 24.4903C129.376 24.6465 129.005 24.7268 128.63 24.7255C128.152 24.7566 127.678 24.6184 127.29 24.3351C126.976 24.0717 126.741 23.7255 126.612 23.3355C126.467 22.9189 126.391 22.4813 126.387 22.04C126.387 21.5727 126.387 21.1409 126.358 20.7387C126.352 20.4042 126.327 20.0704 126.281 19.7391C126.24 19.4788 126.128 19.3487 125.951 19.3487C125.774 19.3487 125.591 19.5202 125.543 19.8633C125.487 20.2728 125.461 20.6861 125.467 21.0995C125.478 21.6261 125.406 22.1511 125.254 22.6552C125.137 23.0454 124.949 23.4104 124.7 23.7318C124.486 23.9969 124.219 24.2128 123.915 24.3647C123.638 24.5026 123.333 24.5754 123.023 24.5776C122.731 24.5983 122.438 24.542 122.174 24.4144C121.911 24.2868 121.684 24.0923 121.519 23.8501C121.183 23.3508 121.01 22.76 121.023 22.1583C121.026 21.7563 121.092 21.3572 121.218 20.9753C121.344 20.573 121.544 20.1978 121.808 19.8692C122.068 19.5373 122.396 19.265 122.77 19.0706C123.181 18.8629 123.637 18.7593 124.098 18.769C124.319 18.7621 124.541 18.782 124.759 18.8281C124.9 18.8281 124.971 18.9582 124.971 19.1594C124.973 19.1969 124.964 19.2342 124.945 19.2668C124.926 19.2993 124.898 19.3257 124.865 19.3427C124.816 19.3763 124.759 19.3966 124.7 19.4019H124.34C123.92 19.3934 123.503 19.4761 123.118 19.6444C122.797 19.7847 122.508 19.9878 122.267 20.2417C122.025 20.4957 121.837 20.7954 121.713 21.1232C121.596 21.4332 121.534 21.7616 121.53 22.0933C121.525 22.5796 121.686 23.0532 121.985 23.436C122.139 23.6277 122.335 23.781 122.558 23.8839C122.781 23.9868 123.024 24.0365 123.27 24.029C123.515 24.0216 123.755 23.9572 123.972 23.841C124.188 23.7247 124.375 23.5598 124.517 23.3591C124.941 22.6938 125.148 21.912 125.107 21.1232C125.107 20.8038 125.136 20.4903 125.148 20.1886C125.159 19.8943 125.194 19.6014 125.254 19.3132C125.288 19.1443 125.365 18.9873 125.479 18.8577C125.552 18.7752 125.644 18.7106 125.746 18.6686C125.848 18.6266 125.958 18.6083 126.069 18.6152C126.189 18.6113 126.307 18.6529 126.399 18.7317C126.491 18.8105 126.55 18.9209 126.564 19.0411C126.643 19.3866 126.685 19.7396 126.688 20.094C126.688 20.5198 126.688 20.9812 126.688 21.4722C126.686 21.9359 126.748 22.3976 126.871 22.8445C126.977 23.2411 127.18 23.605 127.461 23.9033C127.63 24.0568 127.827 24.1738 128.043 24.2471C128.258 24.3203 128.486 24.3483 128.713 24.3292C128.975 24.3239 129.235 24.2718 129.48 24.1754C129.765 24.0668 130.023 23.8973 130.235 23.6785C130.488 23.411 130.689 23.0979 130.825 22.7558C130.994 22.3125 131.075 21.8401 131.062 21.3657V21.0108C131.062 20.8688 131.126 20.7979 131.244 20.7979C131.362 20.7979 131.398 20.7979 131.398 20.857V21.1587C131.479 22.1142 131.197 23.0651 130.607 23.8205Z" fill="#142466" stroke="#142466" stroke-width="0.2304" stroke-miterlimit="10"/>
<path d="M136.793 23.8501C136.549 24.1356 136.245 24.3648 135.904 24.5221C135.563 24.6793 135.192 24.7608 134.816 24.761C134.532 24.7604 134.25 24.7083 133.984 24.6073C133.705 24.4952 133.458 24.3165 133.264 24.0867C133.037 23.8297 132.862 23.5302 132.751 23.2054C132.611 22.7923 132.545 22.3578 132.556 21.9218C132.556 21.7207 132.556 21.3953 132.556 20.9399C132.556 20.4844 132.556 19.9461 132.556 19.3073C132.556 18.6684 132.556 17.9645 132.585 17.1778C132.615 16.3911 132.615 15.563 132.633 14.6994H131.553C131.511 15.7878 131.488 16.8702 131.476 17.9468C131.464 19.0233 131.476 19.9875 131.435 20.8334C131.435 20.999 131.37 21.0759 131.252 21.0759C131.134 21.0759 131.098 20.999 131.098 20.8334C131.098 19.9875 131.134 19.0588 131.145 17.9468C131.157 16.8347 131.145 15.7878 131.193 14.6994H127.876C127.492 14.6994 127.286 14.6106 127.286 14.4273C127.286 14.2439 127.475 14.1552 127.876 14.1552H131.222C131.222 13.469 131.258 12.8184 131.269 12.2032C131.281 11.588 131.269 11.0201 131.299 10.5588C131.328 10.0974 131.299 9.67741 131.328 9.37573C131.358 9.07406 131.328 8.87886 131.328 8.81379C131.32 8.44157 131.386 8.07143 131.523 7.72541C131.594 7.57597 131.709 7.45231 131.853 7.37171C131.997 7.2911 132.162 7.25759 132.326 7.27585C132.423 7.27133 132.521 7.28801 132.612 7.32476C132.702 7.36152 132.784 7.41747 132.851 7.4888C132.981 7.62535 133.08 7.78892 133.14 7.96793C133.197 8.1404 133.233 8.31917 133.246 8.50029C133.246 8.67183 133.246 8.78422 133.246 8.84929C133.205 10.0323 133.182 11.0261 133.176 11.8719C133.17 12.7178 133.14 13.4808 133.099 14.167H136.475C136.858 14.167 137.065 14.2557 137.065 14.4391C137.065 14.6225 136.876 14.7112 136.475 14.7112H133.099C133.099 15.3737 133.063 15.977 133.052 16.4857C133.04 16.9945 133.052 17.5564 133.004 18.0888C132.957 18.6211 132.969 19.1771 132.963 19.7509C132.957 20.3247 132.963 20.9872 132.963 21.7325C132.895 22.4394 133.107 23.1448 133.553 23.6963C133.728 23.8814 133.939 24.0293 134.172 24.1309C134.405 24.2326 134.656 24.2859 134.911 24.2878C135.175 24.2826 135.437 24.2305 135.684 24.134C135.967 24.0252 136.223 23.8556 136.433 23.6372C136.69 23.3728 136.891 23.0589 137.023 22.7144C137.195 22.2717 137.277 21.7992 137.265 21.3243V20.9517C137.261 20.9267 137.263 20.9011 137.271 20.877C137.279 20.8528 137.292 20.8309 137.31 20.813C137.328 20.7951 137.35 20.7817 137.374 20.7739C137.398 20.7662 137.423 20.7642 137.448 20.7683C137.549 20.7683 137.596 20.8097 137.596 20.8866V21.1942C137.67 22.149 137.383 23.0969 136.793 23.8501ZM132.798 8.86111C132.798 8.39382 132.615 8.16313 132.255 8.16313C132.09 8.16313 131.972 8.2696 131.889 8.48255C131.826 8.63119 131.786 8.78886 131.771 8.94984C131.771 8.94984 131.771 9.12138 131.771 9.40531C131.771 9.68924 131.771 10.0619 131.73 10.5351C131.688 11.0083 131.688 11.5584 131.665 12.1854C131.641 12.8124 131.623 13.4749 131.606 14.1788H132.733C132.733 13.5163 132.733 12.8716 132.733 12.2564C132.733 11.6412 132.733 11.0734 132.733 10.612C132.733 10.1506 132.733 9.73064 132.762 9.42897C132.792 9.1273 132.798 8.92027 132.798 8.86111Z" fill="#142466" stroke="#142466" stroke-width="0.2304" stroke-miterlimit="10"/>
<path d="M147.151 23.8391C146.906 24.128 146.601 24.3601 146.258 24.5194C145.914 24.6787 145.54 24.7614 145.162 24.7618C144.662 24.7975 144.165 24.6574 143.757 24.3655C143.446 24.105 143.22 23.7567 143.108 23.3658C142.987 22.9439 142.916 22.5091 142.896 22.0704C142.896 21.6031 142.843 21.1713 142.796 20.7691C142.759 20.419 142.655 20.0793 142.489 19.7694C142.405 19.6556 142.297 19.5616 142.174 19.4941C142.05 19.4266 141.912 19.3872 141.772 19.3787C141.631 19.3703 141.49 19.3929 141.359 19.4451C141.228 19.4973 141.11 19.5777 141.013 19.6807C140.804 19.945 140.703 20.279 140.73 20.6153V22.7625C140.729 22.99 140.713 23.2172 140.683 23.4427C140.655 23.6644 140.603 23.8825 140.529 24.0934C140.47 24.2773 140.367 24.4438 140.228 24.5784C140.093 24.7009 139.915 24.7665 139.733 24.7618C139.644 24.7648 139.555 24.7501 139.472 24.7186C139.389 24.6871 139.313 24.6395 139.249 24.5784C139.119 24.4403 139.022 24.2745 138.965 24.0934C138.891 23.8825 138.84 23.6644 138.812 23.4427C138.782 23.2172 138.766 22.99 138.765 22.7625V4.20666C138.772 4.1151 138.76 4.02305 138.729 3.93644C138.699 3.84984 138.651 3.77061 138.588 3.70387C138.481 3.60095 138.34 3.54185 138.192 3.53825C138.115 3.53696 138.039 3.55272 137.968 3.58441C137.898 3.6161 137.835 3.66295 137.785 3.72162C137.665 3.87653 137.606 4.07023 137.62 4.26581V20.8578C137.62 21.0234 137.549 21.1003 137.407 21.1003C137.266 21.1003 137.289 21.0234 137.289 20.8578V4.35454C137.276 3.97923 137.339 3.60512 137.472 3.25432C137.537 3.10507 137.649 2.98109 137.791 2.90107C137.932 2.82105 138.096 2.78933 138.257 2.81068C138.41 2.79749 138.564 2.83111 138.698 2.90714C138.832 2.98316 138.939 3.09801 139.007 3.23657C139.156 3.55842 139.229 3.91084 139.219 4.26581V5.44884C139.219 5.89248 139.219 6.51948 139.219 7.32394C139.219 8.1284 139.219 9.21088 139.219 10.5595V22.585C139.219 22.6205 139.219 22.7211 139.219 22.869C139.232 23.0258 139.254 23.1818 139.284 23.3363C139.309 23.4893 139.359 23.6372 139.432 23.774C139.455 23.8323 139.495 23.8824 139.546 23.9182C139.597 23.954 139.658 23.9737 139.721 23.9751C139.784 23.9718 139.846 23.9514 139.899 23.916C139.952 23.8806 139.994 23.8315 140.022 23.774C140.103 23.6393 140.159 23.491 140.187 23.3363C140.187 23.1766 140.24 23.0228 140.264 22.869C140.287 22.7152 140.264 22.6205 140.264 22.585V20.497C140.264 20.3964 140.264 20.2545 140.293 20.0711C140.317 19.8793 140.38 19.6943 140.476 19.5269C140.588 19.3357 140.742 19.1721 140.925 19.0478C141.178 18.892 141.472 18.8176 141.769 18.8348C141.96 18.8138 142.154 18.8399 142.333 18.9111C142.512 18.9822 142.671 19.0962 142.796 19.243C143.008 19.5438 143.147 19.8901 143.203 20.2545C143.278 20.6886 143.323 21.1273 143.338 21.5676C143.356 22.0189 143.421 22.467 143.533 22.9045C143.62 23.2846 143.807 23.6341 144.076 23.9159C144.243 24.0645 144.439 24.1774 144.651 24.2476C144.863 24.3178 145.087 24.3438 145.31 24.3241C145.574 24.3189 145.836 24.2668 146.083 24.1703C146.366 24.0615 146.622 23.8919 146.832 23.6734C147.087 23.4075 147.288 23.094 147.422 22.7507C147.594 22.3078 147.676 21.8354 147.664 21.3606V21.0116C147.664 20.8696 147.723 20.7987 147.847 20.7987C147.971 20.7987 147.995 20.7987 147.995 20.8578V21.1595C148.062 22.1275 147.76 23.0849 147.151 23.8391Z" fill="#142466" stroke="#142466" stroke-width="0.2304" stroke-miterlimit="10"/>
<path d="M156.336 20.8579C156.412 21.7598 156.142 22.657 155.58 23.3659C155.365 23.6107 155.101 23.8073 154.805 23.9429C154.509 24.0784 154.188 24.1499 153.863 24.1526C153.151 24.1515 152.468 23.8688 151.963 23.3659C151.728 23.7651 151.407 24.1067 151.024 24.3656C150.642 24.6275 150.189 24.7658 149.726 24.7619C149.397 24.7869 149.066 24.7279 148.766 24.5903C148.466 24.4527 148.205 24.2411 148.008 23.9752C147.642 23.4307 147.453 22.7862 147.465 22.1296C147.467 21.6945 147.533 21.262 147.66 20.846C147.785 20.4252 147.974 20.0262 148.221 19.663C148.454 19.3204 148.758 19.0319 149.112 18.8171C149.47 18.608 149.878 18.4997 150.292 18.5036C150.622 18.4775 150.952 18.536 151.253 18.6737C151.553 18.8113 151.814 19.0236 152.01 19.2904C152.377 19.8321 152.567 20.4751 152.553 21.13C152.552 21.7789 152.407 22.4195 152.128 23.0051C152.341 23.2425 152.601 23.4326 152.892 23.563C153.182 23.6934 153.497 23.7613 153.816 23.7622C154.098 23.7608 154.377 23.7025 154.637 23.5907C154.897 23.4789 155.131 23.316 155.326 23.1115C155.571 22.8233 155.755 22.489 155.868 22.1284C155.982 21.7678 156.022 21.3882 155.987 21.0117C155.987 20.852 156.058 20.7691 156.2 20.7691C156.342 20.7691 156.336 20.7987 156.336 20.8579ZM151.691 23.1293C151.406 22.7629 151.181 22.3536 151.024 21.9167C150.835 21.4142 150.743 20.8802 150.753 20.3433C150.755 19.9787 150.784 19.6149 150.841 19.2549C150.621 19.1697 150.386 19.1295 150.151 19.1366C149.82 19.1302 149.493 19.2075 149.201 19.3613C148.934 19.5069 148.703 19.7088 148.522 19.9529C148.336 20.2078 148.198 20.4944 148.115 20.7987C148.025 21.1082 147.979 21.4288 147.979 21.7511C147.972 22.3463 148.145 22.9298 148.475 23.4251C148.638 23.668 148.861 23.8641 149.123 23.9938C149.385 24.1235 149.676 24.1823 149.968 24.1644C150.334 24.1746 150.696 24.0758 151.006 23.8805C151.295 23.6891 151.534 23.4316 151.703 23.1293H151.691ZM152.11 21.4671C152.112 21.0773 152.036 20.6911 151.886 20.3314C151.746 19.9933 151.522 19.6962 151.237 19.4678C151.199 19.6068 151.18 19.7498 151.178 19.8937V20.2841C151.134 21.1494 151.388 22.0035 151.898 22.7034C152.049 22.3091 152.125 21.8897 152.122 21.4671H152.11Z" fill="#142466" stroke="#142466" stroke-width="0.2304" stroke-miterlimit="10"/>
<path d="M166.233 23.8387C165.987 24.1278 165.681 24.3599 165.337 24.5192C164.993 24.6785 164.618 24.7612 164.239 24.7615C163.741 24.7963 163.246 24.6562 162.84 24.3652C162.527 24.1064 162.3 23.7575 162.191 23.3655C162.064 22.9449 161.992 22.5093 161.978 22.0701C161.978 21.6028 161.925 21.171 161.872 20.7688C161.841 20.4185 161.738 20.0783 161.571 19.7691C161.487 19.6553 161.38 19.5613 161.256 19.4938C161.132 19.4263 160.995 19.3869 160.854 19.3784C160.713 19.3699 160.572 19.3926 160.441 19.4448C160.31 19.497 160.192 19.5774 160.096 19.6804C159.882 19.9423 159.778 20.2776 159.806 20.615V22.7622C159.807 22.9896 159.793 23.2168 159.765 23.4424C159.734 23.6636 159.683 23.8814 159.612 24.0931C159.552 24.277 159.449 24.4435 159.311 24.5781C159.175 24.7005 158.998 24.7661 158.815 24.7615C158.726 24.7671 158.637 24.7549 158.553 24.7258C158.469 24.6966 158.391 24.651 158.325 24.5916C158.258 24.5321 158.204 24.4601 158.166 24.3796C158.128 24.2991 158.105 24.2118 158.101 24.1226C158.02 23.6937 157.98 23.2579 157.983 22.8213V20.8575C157.987 20.5455 157.945 20.2345 157.859 19.9347C157.819 19.8112 157.739 19.7043 157.633 19.6305C157.526 19.5568 157.398 19.5202 157.269 19.5266C157.147 19.5284 157.026 19.555 156.915 19.6048C156.803 19.6546 156.703 19.7266 156.62 19.8164C156.371 20.206 156.269 20.6713 156.33 21.1296C156.33 21.2538 156.289 21.313 156.206 21.313C156.152 21.3131 156.099 21.2919 156.059 21.2538C156.049 21.2494 156.038 21.2471 156.026 21.2471C156.015 21.2471 156.004 21.2494 155.994 21.2538V21.0704C155.953 20.4817 156.084 19.8938 156.372 19.3787C156.48 19.2095 156.629 19.0708 156.806 18.9756C156.983 18.8804 157.18 18.8318 157.381 18.8345C157.552 18.8187 157.724 18.8624 157.867 18.9582C158.009 19.0541 158.115 19.1963 158.166 19.361C158.296 19.7658 158.358 20.1897 158.349 20.615V22.6734C158.349 22.7148 158.349 22.8036 158.349 22.9455C158.363 23.0925 158.384 23.2386 158.414 23.3833C158.437 23.5256 158.483 23.6633 158.549 23.7914C158.567 23.8426 158.599 23.8875 158.642 23.9201C158.686 23.9528 158.737 23.9718 158.791 23.9748C158.855 23.9715 158.916 23.951 158.969 23.9156C159.022 23.8802 159.065 23.8312 159.092 23.7737C159.172 23.6372 159.232 23.4897 159.269 23.3359C159.309 23.1828 159.335 23.0264 159.346 22.8686C159.346 22.7208 159.346 22.6202 159.346 22.5847V20.4967C159.347 20.3542 159.357 20.212 159.376 20.0708C159.399 19.8811 159.455 19.6969 159.541 19.5266C159.645 19.3332 159.795 19.1686 159.978 19.0474C160.231 18.8916 160.525 18.8173 160.822 18.8345C161.01 18.8164 161.2 18.844 161.376 18.915C161.552 18.9861 161.708 19.0985 161.831 19.2426C162.054 19.5393 162.2 19.8869 162.256 20.2541C162.328 20.6886 162.373 21.1272 162.391 21.5673C162.405 22.012 162.464 22.454 162.568 22.8864C162.657 23.2656 162.845 23.6145 163.111 23.8979C163.28 24.0458 163.477 24.1581 163.69 24.2282C163.903 24.2984 164.127 24.3248 164.351 24.306C164.614 24.3007 164.873 24.2486 165.118 24.1522C165.403 24.0436 165.661 23.8741 165.873 23.6554C166.126 23.3878 166.327 23.0747 166.464 22.7326C166.635 22.2897 166.717 21.8173 166.706 21.3425V21.0113C166.706 20.8693 166.765 20.7983 166.883 20.7983C166.983 20.7983 167.036 20.7983 167.036 20.8575V21.1592C167.114 22.1217 166.828 23.0785 166.233 23.8387Z" fill="#142466" stroke="#142466" stroke-width="0.2304" stroke-miterlimit="10"/>
<path d="M68.4419 40.3202V36.5523H70.053C70.212 36.5518 70.3691 36.5861 70.5134 36.6528C70.6493 36.7227 70.7713 36.8169 70.8734 36.9308C70.9731 37.0448 71.0529 37.1748 71.1094 37.3153C71.1652 37.4544 71.1933 37.6031 71.1921 37.753C71.1944 37.9233 71.1623 38.0924 71.0976 38.2499C71.0352 38.4007 70.9405 38.536 70.8203 38.6462C70.7048 38.7576 70.5624 38.8371 70.4071 38.8769L71.316 40.3202H70.773L69.9173 38.9597H68.9199V40.3202H68.4419ZM68.9199 38.5457H70.0589C70.1813 38.5466 70.3009 38.5094 70.4012 38.4392C70.5009 38.3633 70.58 38.2637 70.6314 38.1493C70.6865 38.0266 70.7147 37.8935 70.714 37.7589C70.7129 37.6252 70.6806 37.4935 70.6196 37.3745C70.5612 37.2592 70.4737 37.1613 70.3658 37.0905C70.2672 37.0215 70.1498 36.9843 70.0294 36.9841H68.9199V38.5457Z" fill="#142466"/>
<path d="M73.4803 40.3498C73.2193 40.3582 72.9602 40.3034 72.7249 40.1901C72.5258 40.0932 72.3551 39.9465 72.2291 39.7642C72.104 39.5857 72.0139 39.3849 71.9635 39.1727C71.904 38.9448 71.8743 38.7102 71.875 38.4747V36.5522H72.353V38.4569C72.3529 38.6377 72.3707 38.818 72.4062 38.9952C72.4429 39.1613 72.5046 39.3209 72.5891 39.4684C72.6764 39.6042 72.796 39.7161 72.9373 39.7938C73.1023 39.8818 73.2876 39.9246 73.4744 39.918C73.6649 39.9245 73.854 39.8817 74.0232 39.7938C74.1645 39.713 74.2825 39.5968 74.3655 39.4566C74.4525 39.3124 74.5144 39.1543 74.5485 38.9893C74.5836 38.814 74.6014 38.6357 74.6016 38.4569V36.5522H75.0796V38.4569C75.0807 38.7022 75.051 38.9467 74.9911 39.1845C74.9406 39.3988 74.8462 39.6003 74.7137 39.776C74.587 39.9547 74.4162 40.0974 74.218 40.1901C73.9878 40.3 73.7352 40.3547 73.4803 40.3498Z" fill="#142466"/>
<path d="M76.4041 37.4336V40.3202H75.926V36.5522H76.3273L78.629 39.5098V36.5522H79.107V40.3202H78.6703L76.4041 37.4336Z" fill="#142466"/>
<path d="M81.3428 40.3202V36.5522H83.8274V36.9781H81.8209V38.2321H83.5087V38.6344H81.8209V40.3202H81.3428Z" fill="#142466"/>
<path d="M85.8819 40.3497C85.6327 40.3536 85.3861 40.2989 85.1619 40.19C84.9356 40.0891 84.7341 39.9397 84.5717 39.7523C84.4154 39.5787 84.2914 39.3783 84.2058 39.1608C84.1233 38.9353 84.0813 38.697 84.0819 38.4569C84.0789 38.2116 84.1251 37.9682 84.2176 37.7411C84.3047 37.5216 84.4329 37.3208 84.5953 37.1496C84.7506 36.9702 84.9416 36.8251 85.156 36.7237C85.3746 36.6167 85.615 36.562 85.8583 36.564C86.1097 36.5627 86.3581 36.6194 86.5842 36.7296C86.7963 36.8397 86.9848 36.9904 87.1389 37.1733C87.4501 37.5375 87.6217 38.001 87.6229 38.4805C87.6249 38.7271 87.5809 38.9719 87.493 39.2022C87.4045 39.4196 87.2787 39.6198 87.1212 39.7937C86.9536 39.9723 86.7532 40.1169 86.5311 40.2196C86.3258 40.307 86.1049 40.3513 85.8819 40.3497ZM84.5953 38.4332C84.5945 38.6221 84.6244 38.8099 84.6838 38.9892C84.7463 39.1621 84.8359 39.3239 84.9494 39.4684C85.0616 39.6035 85.2002 39.7142 85.3566 39.7937C85.521 39.8776 85.7033 39.9202 85.8878 39.9179C86.075 39.9219 86.2601 39.8771 86.4248 39.7878C86.583 39.7059 86.7219 39.5909 86.832 39.4506C86.9441 39.3071 87.03 39.1449 87.0858 38.9715C87.1443 38.7981 87.1742 38.6163 87.1743 38.4332C87.1727 38.2459 87.1408 38.0602 87.0799 37.8831C87.0236 37.7093 86.9333 37.5484 86.8143 37.4099C86.7051 37.2703 86.5659 37.1571 86.4071 37.0786C86.2453 37.0001 86.0676 36.9596 85.8878 36.9603C85.6995 36.9577 85.5133 37.0003 85.3448 37.0846C85.1866 37.1665 85.0477 37.2814 84.9376 37.4217C84.8291 37.5653 84.7435 37.725 84.6838 37.8949C84.6254 38.0683 84.5955 38.2502 84.5953 38.4332Z" fill="#142466"/>
<path d="M88.3159 40.3202V36.5523H89.9211C90.0801 36.5512 90.2373 36.5856 90.3814 36.6528C90.5174 36.7227 90.6394 36.8169 90.7414 36.9308C90.8411 37.0448 90.9209 37.1748 90.9775 37.3153C91.0333 37.4544 91.0614 37.6031 91.0601 37.753C91.0625 37.9234 91.0304 38.0924 90.9657 38.2499C90.9032 38.4007 90.8086 38.536 90.6883 38.6462C90.5728 38.7577 90.4305 38.8371 90.2752 38.8769L91.1841 40.3202H90.647L89.7854 38.9597H88.788V40.3202H88.3159ZM88.788 38.5457H89.927C90.0494 38.5466 90.169 38.5094 90.2693 38.4392C90.3707 38.3651 90.4502 38.265 90.4995 38.1494C90.5546 38.0266 90.5827 37.8935 90.5821 37.759C90.581 37.6252 90.5486 37.4935 90.4877 37.3745C90.4293 37.2592 90.3418 37.1613 90.2339 37.0905C90.1352 37.0215 90.0178 36.9844 89.8975 36.9841H88.788V38.5457Z" fill="#142466"/>
<path d="M95.6977 36.9781H94.3816V40.3202H93.9036V36.9781H92.6111V36.5522H95.6859L95.6977 36.9781Z" fill="#142466"/>
<path d="M99.2559 36.5522V40.3202H98.7779V38.6048H96.7359V40.3202H96.2579V36.5522H96.7359V38.1789H98.8074V36.5522H99.2559Z" fill="#142466"/>
<path d="M102.714 39.8943V40.3202H100.164V36.5522H102.643V36.9781H100.636V38.1967H102.407V38.593H100.636V39.8943H102.714Z" fill="#142466"/>
<path d="M105.644 39.7287C105.73 39.7824 105.823 39.8242 105.921 39.8529C106.056 39.8979 106.198 39.9199 106.34 39.918C106.48 39.9223 106.62 39.8939 106.747 39.8352C106.853 39.7794 106.939 39.6928 106.995 39.5867C107.057 39.4545 107.095 39.3123 107.107 39.1667C107.132 38.9705 107.144 38.773 107.143 38.5752V36.5522H107.615V38.451C107.617 38.706 107.603 38.9608 107.573 39.2141C107.552 39.4193 107.497 39.6193 107.408 39.8056C107.325 39.9735 107.191 40.1103 107.025 40.196C106.818 40.2999 106.588 40.3488 106.358 40.3379C106.2 40.3384 106.044 40.3185 105.891 40.2788C105.759 40.239 105.634 40.1792 105.52 40.1013L105.644 39.7287Z" fill="#142466"/>
<path d="M110 40.3498C109.751 40.3524 109.505 40.2978 109.28 40.19C109.067 40.0838 108.879 39.9348 108.726 39.7523C108.569 39.5787 108.445 39.3784 108.36 39.1608C108.277 38.9354 108.235 38.697 108.236 38.4569C108.233 38.2116 108.279 37.9683 108.371 37.7412C108.459 37.5231 108.585 37.3226 108.743 37.1497C108.906 36.9658 109.108 36.8204 109.333 36.7238C109.552 36.6161 109.792 36.5614 110.036 36.5641C110.285 36.5622 110.532 36.6189 110.756 36.7297C110.981 36.8344 111.182 36.9856 111.346 37.1733C111.497 37.3495 111.619 37.5493 111.706 37.7648C111.875 38.2208 111.875 38.7226 111.706 39.1786C111.617 39.3974 111.489 39.5979 111.328 39.7701C111.161 39.9491 110.961 40.0938 110.738 40.196C110.507 40.3033 110.255 40.3559 110 40.3498ZM108.714 38.4332C108.715 38.6225 108.747 38.8103 108.808 38.9893C108.866 39.163 108.954 39.3251 109.068 39.4684C109.184 39.6023 109.324 39.7128 109.481 39.7937C109.646 39.8779 109.829 39.9218 110.015 39.9218C110.201 39.9218 110.384 39.8779 110.549 39.7937C110.707 39.7118 110.846 39.5968 110.956 39.4566C111.18 39.1653 111.299 38.8067 111.293 38.4392C111.293 38.2522 111.263 38.0664 111.204 37.8891C111.143 37.7174 111.053 37.5574 110.939 37.4158C110.827 37.2783 110.689 37.1655 110.531 37.0846C110.368 37.0051 110.188 36.9646 110.006 36.9663C109.82 36.9632 109.635 37.0059 109.469 37.0905C109.311 37.1724 109.172 37.2874 109.062 37.4277C108.951 37.5699 108.865 37.7299 108.808 37.9009C108.746 38.0714 108.714 38.2516 108.714 38.4332Z" fill="#142466"/>
<path d="M112.324 36.5522L113.463 38.5161L114.614 36.5522H115.133L113.705 38.9183V40.3202H113.227V38.9597L111.798 36.5937L112.324 36.5522Z" fill="#142466"/>
<path d="M118.345 40.3498C118.096 40.353 117.849 40.2984 117.625 40.19C117.411 40.0824 117.221 39.9337 117.064 39.7523C116.91 39.5784 116.788 39.378 116.704 39.1608C116.62 38.9357 116.576 38.6974 116.574 38.4569C116.574 38.2119 116.62 37.9691 116.71 37.7412C116.801 37.5239 116.929 37.3238 117.088 37.1497C117.251 36.9658 117.452 36.8204 117.678 36.7238C117.896 36.6161 118.137 36.5614 118.38 36.5641C118.63 36.5622 118.876 36.6189 119.1 36.7297C119.314 36.8365 119.504 36.9877 119.655 37.1733C119.81 37.3466 119.932 37.5471 120.015 37.7648C120.102 37.9852 120.146 38.22 120.145 38.4569C120.145 38.7038 120.099 38.9486 120.009 39.1786C119.84 39.629 119.506 39.9987 119.077 40.2137C118.846 40.3135 118.596 40.36 118.345 40.3498ZM117.058 38.4332C117.056 38.6227 117.088 38.811 117.153 38.9893C117.211 39.163 117.299 39.3251 117.412 39.4684C117.525 39.6035 117.663 39.7142 117.82 39.7937C117.984 39.8776 118.166 39.9203 118.351 39.918C118.54 39.9219 118.727 39.8771 118.894 39.7878C119.05 39.7058 119.187 39.5908 119.295 39.4507C119.409 39.3085 119.495 39.1459 119.549 38.9715C119.607 38.7981 119.637 38.6163 119.637 38.4332C119.639 38.2457 119.607 38.0595 119.543 37.8831C119.486 37.7107 119.398 37.5503 119.283 37.4099C119.172 37.2724 119.033 37.1596 118.876 37.0787C118.712 36.9992 118.533 36.9587 118.351 36.9604C118.164 36.9566 117.98 36.9993 117.814 37.0846C117.655 37.1665 117.517 37.2815 117.406 37.4218C117.296 37.5653 117.209 37.7249 117.147 37.895C117.088 38.0684 117.058 38.2502 117.058 38.4332Z" fill="#142466"/>
<path d="M120.786 40.3202V36.5522H123.27V36.9781H121.264V38.2321H122.952V38.6344H121.264V40.3202H120.786Z" fill="#142466"/>
<path d="M125.066 40.3202V36.5522H126.677C126.834 36.5519 126.989 36.5862 127.131 36.6528C127.268 36.7212 127.39 36.8156 127.491 36.9308C127.593 37.0433 127.673 37.1736 127.727 37.3153C127.784 37.4543 127.814 37.6028 127.816 37.753C127.816 37.9237 127.782 38.0927 127.715 38.2499C127.653 38.4007 127.558 38.536 127.438 38.6462C127.323 38.7576 127.18 38.8371 127.025 38.8769L127.934 40.3202H127.426L126.559 38.9597H125.567V40.3202H125.066ZM125.544 38.5457H126.683C126.803 38.5487 126.922 38.5112 127.019 38.4392C127.12 38.3651 127.2 38.265 127.249 38.1493C127.304 38.0266 127.332 37.8935 127.332 37.7589C127.334 37.6248 127.301 37.4925 127.237 37.3745C127.179 37.2609 127.094 37.1634 126.989 37.0905C126.889 37.0203 126.77 36.9831 126.647 36.9841H125.544V38.5457Z" fill="#142466"/>
<path d="M130.119 40.3498C129.857 40.358 129.596 40.3033 129.358 40.1901C129.161 40.093 128.992 39.9463 128.868 39.7642C128.741 39.586 128.649 39.3852 128.597 39.1727C128.539 38.9446 128.511 38.7099 128.514 38.4747V36.5522H128.986V38.4569C128.985 38.638 129.005 38.8186 129.045 38.9952C129.077 39.1629 129.139 39.3233 129.228 39.4684C129.313 39.604 129.431 39.7159 129.571 39.7938C129.738 39.8818 129.925 39.9246 130.113 39.918C130.302 39.9251 130.49 39.8823 130.656 39.7938C130.799 39.7149 130.918 39.5982 130.999 39.4566C131.088 39.3136 131.15 39.1551 131.182 38.9893C131.222 38.8147 131.242 38.6361 131.241 38.4569V36.5522H131.719V38.4569C131.72 38.7022 131.69 38.9467 131.63 39.1845C131.575 39.3972 131.481 39.5977 131.353 39.776C131.223 39.9521 131.053 40.0942 130.857 40.1901C130.627 40.2994 130.374 40.3541 130.119 40.3498Z" fill="#142466"/>
<path d="M133.051 37.4336V40.3202H132.573V36.5522H132.974L135.276 39.5098V36.5522H135.754V40.3202H135.317L133.051 37.4336Z" fill="#142466"/>
<path d="M137.117 37.4336V40.3202H136.639V36.5522H137.046L139.342 39.5098V36.5522H139.814V40.3202H139.377L137.117 37.4336Z" fill="#142466"/>
<path d="M140.728 40.3202V36.5522H141.2V40.3202H140.728Z" fill="#142466"/>
<path d="M142.587 37.4336V40.3202H142.109V36.5522H142.511L144.812 39.5098V36.5522H145.29V40.3202H144.853L142.587 37.4336Z" fill="#142466"/>
<path d="M147.692 40.3503C147.452 40.3502 147.215 40.2935 147.001 40.1847C146.789 40.0772 146.599 39.9307 146.441 39.7529C146.284 39.5783 146.159 39.3783 146.069 39.1614C145.982 38.9371 145.938 38.6982 145.939 38.4575C145.937 38.209 145.981 37.9622 146.069 37.7299C146.156 37.5118 146.282 37.3114 146.441 37.1384C146.595 36.963 146.784 36.8219 146.996 36.7243C147.213 36.6214 147.451 36.5688 147.692 36.5705C148.009 36.5584 148.322 36.6385 148.595 36.8012C148.823 36.9454 149.007 37.1501 149.126 37.3928L148.76 37.6471C148.664 37.4427 148.508 37.2732 148.312 37.1621C148.119 37.0547 147.901 36.9996 147.68 37.0024C147.499 37.0005 147.321 37.0432 147.161 37.1266C147.004 37.2057 146.867 37.3189 146.759 37.4578C146.649 37.5999 146.563 37.7599 146.506 37.931C146.449 38.1087 146.421 38.2945 146.423 38.4811C146.419 38.6824 146.451 38.8828 146.517 39.0727C146.58 39.246 146.674 39.4064 146.795 39.5459C146.913 39.6786 147.055 39.7871 147.214 39.8653C147.374 39.943 147.549 39.9834 147.727 39.9836C147.935 39.9814 148.139 39.9243 148.317 39.818C148.533 39.6874 148.721 39.5167 148.872 39.3152V39.8061C148.727 39.9772 148.546 40.1145 148.342 40.2085C148.138 40.3025 147.916 40.3509 147.692 40.3503ZM148.837 38.8006H148.022V38.4397H149.262V40.3208H148.86L148.837 38.8006Z" fill="#142466"/>
<path d="M154.659 40.3189C154.658 40.1841 154.67 40.0494 154.695 39.9167C154.717 39.79 154.761 39.668 154.824 39.5559C154.893 39.4321 154.98 39.3203 155.084 39.2246C155.217 39.1051 155.364 39.0018 155.521 38.9171L155.845 38.7455C155.952 38.6923 156.052 38.6331 156.146 38.574C156.233 38.5211 156.309 38.453 156.371 38.3729C156.427 38.3002 156.456 38.2103 156.453 38.1185C156.453 38.0326 156.428 37.9486 156.382 37.876C156.331 37.7941 156.257 37.7285 156.17 37.6867C156.065 37.6309 155.947 37.6044 155.828 37.6098C155.73 37.6103 155.633 37.6242 155.539 37.6512C155.455 37.6778 155.376 37.7156 155.302 37.7636C155.239 37.8027 155.18 37.8483 155.125 37.8996L154.996 38.0298L154.7 37.7044C154.745 37.6558 154.794 37.6121 154.848 37.5743C154.926 37.5076 155.011 37.4501 155.102 37.4028C155.215 37.3443 155.334 37.2968 155.456 37.2608C155.601 37.2172 155.753 37.1953 155.904 37.1957C156.108 37.1881 156.31 37.2286 156.495 37.314C156.64 37.3817 156.765 37.4881 156.855 37.6216C156.942 37.753 156.987 37.9076 156.984 38.0653C156.987 38.1913 156.957 38.3158 156.896 38.4261C156.838 38.5312 156.762 38.6253 156.672 38.7041C156.586 38.7801 156.493 38.8475 156.394 38.9052L156.129 39.0472L155.721 39.266C155.623 39.3193 155.53 39.3827 155.444 39.4553C155.379 39.5143 155.319 39.5797 155.267 39.6505C155.221 39.7251 155.19 39.8072 155.173 39.8931H157.043V40.3189H154.659Z" fill="#142466"/>
<path d="M160.244 38.7872C160.25 39.0695 160.19 39.3494 160.067 39.6035C159.964 39.8406 159.799 40.0451 159.589 40.195C159.383 40.326 159.145 40.3956 158.901 40.3956C158.658 40.3956 158.419 40.326 158.214 40.195C158.003 40.0451 157.838 39.8406 157.736 39.6035C157.619 39.3473 157.558 39.0689 157.558 38.7872C157.558 38.5055 157.619 38.2271 157.736 37.9709C157.838 37.7338 158.003 37.5292 158.214 37.3794C158.417 37.244 158.657 37.1719 158.901 37.1719C159.146 37.1719 159.385 37.244 159.589 37.3794C159.799 37.5292 159.964 37.7338 160.067 37.9709C160.19 38.225 160.25 38.5048 160.244 38.7872ZM159.772 38.7872C159.773 38.5846 159.735 38.3837 159.659 38.1957C159.593 38.036 159.487 37.8957 159.353 37.7875C159.219 37.6954 159.06 37.6462 158.898 37.6462C158.736 37.6462 158.577 37.6954 158.444 37.7875C158.309 37.8957 158.203 38.036 158.137 38.1957C157.993 38.5769 157.993 38.9975 158.137 39.3787C158.204 39.5365 158.309 39.6749 158.444 39.7809C158.577 39.873 158.736 39.9223 158.898 39.9223C159.06 39.9223 159.219 39.873 159.353 39.7809C159.487 39.6749 159.593 39.5365 159.659 39.3787C159.735 39.1906 159.773 38.9898 159.772 38.7872Z" fill="#142466"/>
<path d="M160.757 40.3191C160.744 40.1853 160.744 40.0507 160.757 39.9169C160.779 39.7901 160.823 39.6682 160.886 39.556C160.954 39.4323 161.042 39.3204 161.146 39.2248C161.28 39.104 161.429 39.0006 161.589 38.9172L161.907 38.7457C162.014 38.6924 162.114 38.6333 162.208 38.5741C162.295 38.5213 162.371 38.4532 162.433 38.373C162.49 38.3009 162.522 38.2111 162.521 38.1187C162.52 38.0328 162.496 37.9488 162.45 37.8761C162.399 37.7943 162.325 37.7286 162.238 37.6869C162.13 37.6319 162.01 37.6054 161.89 37.61C161.792 37.6109 161.695 37.6248 161.6 37.6514C161.518 37.6768 161.441 37.7147 161.37 37.7638C161.305 37.8028 161.244 37.8484 161.187 37.8998L161.058 38.0299L160.768 37.7046C160.812 37.6572 160.859 37.6137 160.91 37.5745C160.989 37.5092 161.074 37.4517 161.164 37.4029C161.279 37.3445 161.4 37.297 161.524 37.261C161.667 37.2174 161.816 37.1954 161.966 37.1959C162.17 37.1876 162.372 37.2281 162.557 37.3142C162.704 37.3817 162.83 37.488 162.922 37.6218C163.005 37.7548 163.048 37.9087 163.046 38.0654C163.049 38.1914 163.019 38.316 162.958 38.4262C162.902 38.5311 162.828 38.6252 162.739 38.7043C162.651 38.7791 162.556 38.8463 162.456 38.9054C162.373 38.9581 162.286 39.0055 162.197 39.0473L161.783 39.2662C161.685 39.3209 161.593 39.3842 161.506 39.4555C161.441 39.5129 161.383 39.5785 161.335 39.6507C161.287 39.7249 161.253 39.8071 161.235 39.8932H163.105V40.3191H160.757Z" fill="#142466"/>
<path d="M165.198 40.9942V40.0951H163.486V39.681L165.333 37.3149H165.652V39.681H166.118V40.101H165.652V41.0001L165.198 40.9942ZM163.976 39.6751H165.245V38.0129L163.976 39.6751Z" fill="#142466"/>
</svg>
