<svg width="170" height="40" viewBox="0 0 170 40" fill="none" xmlns="http://www.w3.org/2000/svg">
<path d="M143.993 28.1041C142.839 30.1414 140.787 31.6243 137.929 31.6243C134.23 31.6243 132.773 29.2133 132.773 24.7197V14.9175H130.385V14.8835L138.994 7.35645V14.3629H143.377V14.9175H138.994V22.9653C138.994 26.9722 139.835 28.4548 142.133 28.4548C142.816 28.4548 143.343 28.3531 143.971 28.0701L144.005 28.1041H143.993Z" fill="#6C60BB"/>
<path d="M34.889 30.0836H37.0412V30.6833H26.2578V30.0836H28.5557V5.81563L26 3.78955H37.4447L34.889 5.80433V30.0836ZM50.1112 30.0836V30.6833H41.3904L35.1804 17.8024L42.6906 5.77038L40.1349 3.78955H49.136L39.496 11.86L48.6764 30.0836H50.1112Z" fill="#6C60BB"/>
<path d="M102.371 30.0709H104.523V30.6706H93.7396V30.0709H96.0377V5.80297L93.4819 3.77686H104.927L102.371 5.79164V30.0709ZM117.593 30.0709V30.6706H108.872L102.662 17.7897L110.172 5.75768L107.617 3.77686H116.618L106.978 11.8473L116.158 30.0709H117.593Z" fill="#6C60BB"/>
<path d="M48.621 25.4437H50.0109V15.9811L48.4304 14.7134L55.5484 12.3817V25.4551H56.9383V25.8739H48.6322V25.4551L48.621 25.4437ZM49.6971 9.03126C49.6971 7.3221 50.8068 6.15625 52.7684 6.15625C54.7299 6.15625 55.8397 7.3221 55.8397 9.03126C55.8397 10.7404 54.7299 11.9402 52.7684 11.9402C50.8068 11.9402 49.6971 10.7744 49.6971 9.03126Z" fill="#6C60BB"/>
<path d="M95.5404 11.8159L93.3994 13.6496L86.461 30.1978L82.6608 40.0002L76.5854 35.0084L85.8893 30.0167L78.3454 13.6496L76.1708 11.8159H87.3911L85.2502 13.6496L88.8035 23.5197L91.8077 13.6496L89.3416 11.8159H95.5404Z" fill="#6C60BB"/>
<path d="M129.672 22.8783V23.331H122.576V21.7011C121.242 22.8443 119.74 23.6253 118.182 23.6253C116.344 23.6253 115.088 22.5613 115.088 20.7616C115.088 18.1243 117.868 16.3812 122.576 15.8605C122.576 12.7138 121.332 11.1292 119.168 11.1292C117.891 11.1292 117.016 11.4688 116.052 12.2158L115.907 12.0687C117.835 9.89544 119.931 8.71826 122.767 8.71826C126.342 8.71826 128.237 10.7783 128.237 14.9324V22.867H129.66L129.672 22.8783ZM122.576 21.305V16.2341C120.872 16.7208 120.222 17.8074 120.222 19.3241C120.222 20.6711 120.794 21.3842 121.926 21.3842C122.094 21.3842 122.318 21.3615 122.576 21.2936V21.305Z" fill="#6C60BB"/>
<path d="M69.0626 29.8798C68.0539 32.2227 66.2603 33.9207 63.7606 33.9207C60.5213 33.9207 59.2547 31.1474 59.2547 25.9861V14.7237H57.1584V14.6784L64.691 6.03076V14.0785H68.5248V14.7124H64.691V23.9487C64.691 28.544 65.4196 30.2533 67.4372 30.2533C68.0314 30.2533 68.5023 30.14 69.0404 29.8119L69.0626 29.8571V29.8798Z" fill="#6C60BB"/>
<path d="M80.3933 23.8264C79.2946 26.1694 77.3441 27.8673 74.6204 27.8673C71.1007 27.8673 69.7108 25.0941 69.7108 19.9327V8.68165H67.4352V8.63636L75.618 0V8.04777H79.788V8.68165H75.618V17.9179C75.618 22.5134 76.4137 24.2226 78.6108 24.2226C79.261 24.2226 79.7655 24.1094 80.3597 23.7811L80.3933 23.8264Z" fill="#6C60BB"/>
<path d="M129.674 26.7832H117.591V25.6739L129.674 24.7231V26.7832Z" fill="#6C60BB"/>
</svg>
