<svg width="112" height="102" viewBox="0 0 112 102" fill="none" xmlns="http://www.w3.org/2000/svg">
<path d="M79.6515 32.8688L80.1117 30.9922C80.8197 28.1492 78.9554 25.2949 75.9819 24.6319C74.4952 24.2948 72.9967 24.5758 71.7813 25.2837C71.6397 24.9129 71.4509 24.5645 71.2268 24.2162C70.3182 22.8115 68.8905 21.8339 67.2032 21.4518C65.3978 21.0473 63.5925 21.4069 62.153 22.3171C61.9996 21.8676 61.7872 21.4293 61.5158 21.0248C60.6073 19.6201 59.1796 18.6425 57.4922 18.2604C55.0144 17.6986 52.5247 18.5863 51.0026 20.3506C50.153 19.2156 48.9259 18.429 47.4863 18.1031C45.9288 17.7548 44.3123 18.002 42.9318 18.8111C41.563 19.6201 40.5955 20.8787 40.2297 22.3733L38.8256 28.0593C24.3359 34.1611 15.0026 47.7693 15.0026 62.9059C15.0026 83.9082 32.9495 101 55.0026 101C77.0557 101 95.0026 83.9082 95.0026 62.9059C95.0026 56.7928 93.5276 50.9495 90.6132 45.5444C88.0055 40.6337 84.2179 36.2737 79.6515 32.8688ZM75.3565 27.1603C76.8669 27.4974 77.8108 28.947 77.4568 30.3966L74.7312 41.4091C74.625 41.8586 74.4008 42.2519 74.094 42.5665C74.0822 42.5778 74.0586 42.6002 74.0468 42.6115C73.3742 43.2969 72.3595 43.6341 71.333 43.3981C70.6014 43.2295 69.9878 42.8025 69.5866 42.1957C69.1855 41.5776 69.0675 40.8585 69.2327 40.173L71.9583 29.1605C72.3241 27.7109 73.8462 26.8232 75.3565 27.1603ZM66.5896 23.9914C67.5571 24.2049 68.3831 24.778 68.9141 25.5871C69.445 26.3962 69.6102 27.3513 69.3742 28.2728L69.3035 28.5537L66.507 39.8471C66.2828 40.7686 65.681 41.5552 64.8315 42.0608C63.9819 42.5665 62.979 42.7238 62.0114 42.4991C61.0439 42.2856 60.2179 41.7125 59.6869 40.9034C59.156 40.0943 58.9908 39.1392 59.2268 38.2177L62.094 26.6322C62.5542 24.7218 64.5837 23.5307 66.5896 23.9914ZM56.8787 20.7888C57.8462 21.0023 58.6722 21.5754 59.2032 22.3845C59.7341 23.1936 59.8993 24.1487 59.6633 25.0702L59.4273 26.0366L56.3241 38.5773C56.1707 39.2066 55.8403 39.7685 55.3801 40.2179L49.4804 35.15L52.3831 23.4296C52.8433 21.5192 54.8728 20.3393 56.8787 20.7888ZM42.92 22.9576C43.1206 22.1485 43.6397 21.4518 44.3949 21.0136C45.1501 20.5753 46.035 20.4292 46.8846 20.6203C47.7341 20.8113 48.4657 21.3057 48.9259 22.0249C49.3861 22.7441 49.5394 23.5756 49.3389 24.396L47.156 33.2172C45.0675 31.8238 42.2002 32.0148 40.3359 33.7566L40.2769 33.8127C40.2887 33.6554 40.3123 33.5093 40.3477 33.352L42.92 22.9576ZM17.7636 62.8946C17.7636 49.4662 25.6338 37.3412 38.0468 31.2956L37.681 32.7564C37.4096 33.8577 37.4804 35.0039 37.8934 36.0489L31.3447 42.1957C29.3742 44.0498 29.2681 47.0726 31.1206 49.2077L40.4657 60.0404V95.5612C27.1324 90.1449 17.7636 77.548 17.7636 62.8946ZM43.2032 96.5501V78.0649V59.5797C43.2032 59.2875 43.097 58.9953 42.8964 58.7481L33.2327 47.5558C32.2769 46.4434 32.2887 44.9713 33.2681 44.0498L42.2474 35.6107C43.2268 34.6892 44.7961 34.6555 45.8226 35.532L59.2622 47.0839C59.4745 47.2637 59.4981 47.5671 59.3211 47.7693C58.5306 48.6908 57.5748 49.1965 56.4067 49.3088C53.622 49.5673 49.6338 47.6795 44.5365 43.6902C43.9583 43.2295 43.097 43.3082 42.6132 43.87C42.1294 44.4207 42.2238 45.241 42.802 45.7017C48.4657 50.1404 52.9613 52.1631 56.5011 51.9046C57.4922 55.5792 57.0085 58.5571 54.979 61.4563C54.5542 62.0518 54.7312 62.8609 55.3566 63.2655C55.5925 63.4115 55.8521 63.4902 56.1117 63.4902C56.5483 63.4902 56.9849 63.2879 57.2445 62.9171C59.7341 59.3886 60.3477 55.6354 59.1324 51.2192C59.9937 50.8034 60.7607 50.1966 61.4214 49.4212C62.5188 48.1402 62.3772 46.2636 61.0793 45.1511L60.7725 44.8814C60.9613 44.9376 61.1619 44.9938 61.3507 45.0387C61.8462 45.1511 62.3418 45.2073 62.8374 45.2073C64.0291 45.2073 65.1973 44.8926 66.2356 44.2746C66.5896 44.0611 66.92 43.8251 67.2268 43.5554C67.9701 44.7128 69.1855 45.5893 70.6722 45.9264C71.097 46.0276 71.5217 46.0725 71.9465 46.0725C72.7253 46.0725 73.4687 45.9152 74.153 45.6343C75.2504 51.2529 73.7872 55.4893 69.7164 58.5571C69.3742 58.8155 69.1973 59.1976 69.1973 59.5797V95.7073C64.8197 97.4378 60.0173 98.393 54.9908 98.393C50.8964 98.3817 46.92 97.7412 43.2032 96.5501ZM71.9701 94.5049V60.1977C76.7961 56.2872 78.3418 50.7697 76.5719 43.7689C76.9495 43.252 77.2327 42.6564 77.3979 42.0047L78.9672 35.6894C87.4745 42.4541 92.3123 52.2642 92.3123 62.9059C92.3005 76.6602 84.0291 88.6166 71.9701 94.5049ZM53.6102 13.1224L53.6574 2.30352C53.6574 1.58433 54.271 1 55.0262 1C55.7813 1 56.3949 1.58433 56.3949 2.30352L56.3477 13.1224C56.3477 13.8416 55.7341 14.4259 54.979 14.4259C54.2238 14.4259 53.6102 13.8416 53.6102 13.1224ZM31.2622 8.71996C30.8846 8.10191 31.1088 7.30407 31.7577 6.94448C32.4067 6.58489 33.2445 6.7984 33.622 7.41644L38.5424 15.451C38.92 16.0691 38.6958 16.8669 38.0468 17.2265C37.8344 17.3501 37.5984 17.4063 37.3624 17.4063C36.8905 17.4063 36.4303 17.1703 36.1825 16.7546L31.2622 8.71996ZM70.1766 16.0354L76.4185 7.41644C76.7961 6.7984 77.6338 6.58489 78.2828 6.94448C78.9318 7.30407 79.156 8.10191 78.7784 8.71996L72.5365 17.3389C72.2887 17.7547 71.8285 17.9907 71.3566 17.9907C71.1206 17.9907 70.8846 17.9345 70.6722 17.8109C70.0232 17.4513 69.799 16.6534 70.1766 16.0354Z" fill="#FFCA2D" stroke="#FFCA2D"/>
<path d="M23.0838 16.402C23.667 16.2894 24.2493 16.5294 24.5891 17.0068C24.9164 17.4881 24.9456 18.1158 24.6591 18.6107L21.6598 23.791L24.4613 29.0341C24.7336 29.5596 24.6799 30.1857 24.328 30.6466C24.1346 30.9096 23.8605 31.0891 23.5597 31.1821C23.3215 31.2557 23.0555 31.2837 22.8042 31.226L16.9167 30.0385L12.726 34.3409C12.3174 34.7516 11.6917 34.9044 11.1411 34.7224C10.5741 34.5319 10.189 34.0413 10.1212 33.4663L9.47568 27.5568L4.07647 24.9722C3.54817 24.7291 3.21812 24.1945 3.22929 23.6086C3.24046 23.0227 3.58961 22.5084 4.13076 22.2599L9.62895 19.7884L10.4835 13.8893C10.565 13.3088 10.9796 12.8285 11.5437 12.6541C12.1078 12.4798 12.7211 12.6424 13.1159 13.0757L17.15 17.4639L23.0838 16.402Z" fill="white"/>
<path d="M109.881 29.2384C110.471 29.3031 110.957 29.7043 111.141 30.2608C111.311 30.8173 111.154 31.4255 110.734 31.8138L106.339 35.8774L107.467 41.7141C107.572 42.2964 107.336 42.8788 106.863 43.2153C106.601 43.4094 106.286 43.5 105.971 43.5C105.722 43.5 105.459 43.4482 105.236 43.3188L99.9621 40.4458L94.6878 43.3188C94.1762 43.5906 93.5333 43.5518 93.0609 43.2153C92.5755 42.8659 92.3525 42.2835 92.4574 41.7141L93.5857 35.8774L89.1905 31.8138C88.7575 31.4255 88.6001 30.8173 88.7838 30.2608C88.9674 29.7043 89.4529 29.3161 90.0433 29.2384L96.0261 28.5008L98.5845 23.1171C98.8338 22.5865 99.3717 22.25 99.9621 22.25C100.553 22.25 101.09 22.5865 101.34 23.1171L103.898 28.5008L109.881 29.2384Z" fill="white"/>
</svg>
