<svg width="102" height="101" viewBox="0 0 102 101" fill="none" xmlns="http://www.w3.org/2000/svg">
<path d="M91.7098 41.2102C91.6816 41.198 91.6614 41.1818 91.6332 41.1696V41.1736C90.2828 40.5768 88.8274 40.2722 87.3521 40.2803H87.3077C86.9812 40.2641 86.6547 40.26 86.308 40.26C85.8404 40.26 85.4131 39.9839 85.2196 39.5495C84.6632 38.0552 83.5627 36.8249 82.1437 36.1144L82.0187 36.0616V36.0656C81.8333 35.9885 81.6438 35.9195 81.4503 35.8667C79.5354 35.4972 77.5682 35.5175 75.6614 35.9235C71.7471 37.1213 68.9655 40.6254 68.6673 44.7387C68.5705 45.3559 68.0223 45.7984 67.4014 45.7538C66.7806 45.7091 66.2969 45.1935 66.2888 44.5682C66.6113 40.1383 69.2639 36.2241 73.2427 34.3075C72.2712 33.3574 71.1022 32.6387 69.8202 32.2043C68.5987 31.8875 67.3128 31.916 66.1034 32.2814C65.9341 34.3441 65.406 36.3581 64.5473 38.2381C63.4669 40.5728 61.8988 42.6477 59.9517 44.3206C59.4357 44.751 59.0246 45.291 58.7383 45.9001C58.4763 46.4929 58.3392 47.1304 58.3352 47.78H59.8106C61.7336 47.78 63.2977 49.3514 63.2977 51.2923C63.2977 53.2291 61.7336 54.8045 59.8106 54.8045H58.3312V54.8857V54.8817C58.3312 56.3312 57.7587 57.724 56.7348 58.7431C56.251 59.2344 55.6786 59.6283 55.0457 59.9044C54.6708 63.2461 51.8651 65.7716 48.5272 65.7716C45.1893 65.7716 42.3836 63.2461 42.0087 59.9044C41.3798 59.6283 40.8073 59.2344 40.3196 58.7431C39.3037 57.7199 38.7272 56.3312 38.7272 54.8817V54.8005L37.2639 54.8045C35.341 54.8045 33.7769 53.2291 33.7769 51.2923C33.7769 49.3514 35.341 47.78 37.2639 47.78H38.7353C38.7313 47.1304 38.5942 46.4929 38.3281 45.9001C38.046 45.291 37.6307 44.7509 37.1147 44.3206C35.8691 43.2528 34.7807 42.0184 33.8696 40.65C32.4426 40.7922 31.1485 41.5718 30.3544 42.7777C29.528 44.1461 29.1854 46.2778 28.8346 49.2337H28.8306C28.7741 49.7047 28.4476 50.0945 28.0001 50.2367C25.005 51.1502 23.4287 52.5714 22.8765 54.3864C22.2919 56.2988 22.7475 58.7594 23.8278 61.6099V61.6058C23.9246 61.8657 23.9286 62.1458 23.844 62.4057C22.9531 65.0855 22.9168 67.1402 23.6787 68.7724H23.6827C24.4446 70.2057 25.6097 71.3751 27.0367 72.1345C27.847 67.733 30.9511 64.1152 35.1597 62.6696C35.462 62.5559 35.7926 62.5722 36.0828 62.7102C36.3731 62.8483 36.5948 63.1 36.6996 63.4086C36.8004 63.7132 36.7762 64.0502 36.6311 64.3384C36.4819 64.6267 36.2279 64.8419 35.9175 64.9353C32.0435 66.2671 29.3789 69.8566 29.2095 73.9778V76.8323C31.0559 81.6682 32.495 85.0871 34.7284 86.8696C36.9214 88.6197 40.1141 88.9038 45.6252 87.5964C45.984 87.5071 46.367 87.5924 46.6532 87.8279C46.9394 88.0674 47.1006 88.4247 47.0845 88.7983L46.758 97.2074L51.0513 97.52C54.3649 85.4321 59.658 84.3604 67.0514 82.8584C70.1595 82.3143 73.2112 81.4738 76.1579 80.3409C76.5006 79.411 76.7788 78.5908 77.0287 77.8478C78.0325 74.8918 78.6653 73.016 80.2859 71.9968C80.4391 71.0345 80.4149 70.0559 80.2174 69.1017C79.5482 65.8574 76.9359 63.3765 73.6787 62.8933C73.3482 62.873 73.0378 62.7105 72.8322 62.4507C72.6225 62.1867 72.5298 61.8538 72.5782 61.5208C72.6266 61.1879 72.808 60.8915 73.0821 60.7047C73.3562 60.5139 73.6949 60.4448 74.0214 60.5179C78.2703 61.1473 81.6768 64.3793 82.5434 68.6144C82.7208 69.4549 82.7893 70.3116 82.7531 71.1684C84.0229 71.01 85.3089 70.9735 86.5867 71.0587C86.627 71.0547 86.6673 71.0547 86.7076 71.0587L89.8561 71.4039C94.3952 69.5564 96.947 68.0135 98.1442 65.8655C99.3374 63.6932 99.2771 60.6763 98.5554 55.885L98.0273 54.6953C97.592 55.3044 97.1002 55.8688 96.5559 56.3844C95.4271 57.4686 94.0969 58.3253 92.6456 58.91C92.0369 59.1577 91.3475 58.8613 91.1016 58.2482C90.8557 57.631 91.154 56.9367 91.7627 56.689C93.9557 55.8079 95.7657 54.1674 96.8703 52.0642L95.6004 49.1975C95.5399 49.0839 95.4956 48.962 95.4755 48.8321C94.895 45.5107 94.1734 43.3221 92.8471 42.0268V42.0309C92.5084 41.7061 92.1251 41.4294 91.7098 41.2102ZM7.50501 23.612V77.9688H14.7612V74.6352H13.1769C12.5601 74.5824 12.0844 74.0627 12.0844 73.4374C12.0844 72.8121 12.5601 72.2924 13.1769 72.2356H14.7571V68.8005H13.1769C12.5601 68.7477 12.0844 68.228 12.0844 67.6027C12.0844 66.9775 12.5601 66.4577 13.1769 66.405H14.7571V62.9698L13.1769 62.9658C12.5601 62.913 12.0844 62.3932 12.0844 61.768C12.0844 61.1427 12.5601 60.6229 13.1769 60.5702H14.7571L14.7611 57.1392H10.48C10.1494 57.1676 9.81883 57.0539 9.57293 56.8265C9.32702 56.5991 9.18593 56.2783 9.18593 55.9413C9.18593 55.6043 9.32702 55.2795 9.57293 55.0521C9.81883 54.8247 10.1494 54.711 10.48 54.7395H14.7571V51.3043H13.1769C12.5601 51.2515 12.0844 50.7318 12.0844 50.1066C12.0844 49.4813 12.5601 48.9615 13.1769 48.9047H14.7571V45.4696H13.1769C12.5601 45.4168 12.0844 44.8971 12.0844 44.2718C12.0844 43.6465 12.5601 43.1268 13.1769 43.0741H14.7571L14.7611 39.6308H13.1768C12.56 39.578 12.0843 39.0583 12.0843 38.433C12.0843 37.8078 12.56 37.288 13.1768 37.2353H14.757V33.8002H10.4799C9.82277 33.8002 9.28667 33.2601 9.28667 32.5942C9.28667 31.9282 9.82282 31.3923 10.4799 31.3923H14.757L14.761 27.9613H13.1767C12.5196 27.9613 11.9835 27.4212 11.9835 26.7594C11.9835 26.0935 12.5196 25.5534 13.1767 25.5534H14.7569L14.7609 23.6126L7.50501 23.612ZM5.12254 77.9688V23.612H2.97393V77.9688H5.12254ZM1.78063 21.2161H15.9541C16.6112 21.2161 17.1473 21.752 17.1473 22.4179V79.1706C17.1473 79.4914 17.0223 79.7959 16.7966 80.0192C16.5749 80.2426 16.2685 80.3685 15.954 80.3685H1.78058C1.12348 80.3685 0.58738 79.8325 0.583252 79.1707V22.4138C0.583252 21.7519 1.11941 21.212 1.78058 21.212L1.78063 21.2161ZM40.5208 30.3154H40.5168C40.5168 30.9813 39.9846 31.5173 39.3236 31.5173C38.6625 31.5173 38.1304 30.9813 38.1304 30.3154C38.1263 27.534 39.2228 24.8704 41.1739 22.9052C43.125 20.94 45.7735 19.8356 48.5309 19.8356C49.1921 19.8356 49.7241 20.3756 49.7241 21.0415C49.7241 21.7034 49.192 22.2434 48.5309 22.2434C46.4065 22.2434 44.3666 23.092 42.863 24.6065C41.3594 26.121 40.5128 28.1756 40.5169 30.3195L40.5208 30.3154ZM69.554 22.2027V22.1987C68.9856 22.5316 68.2599 22.3367 67.9334 21.7642C67.6029 21.1917 67.8004 20.4608 68.3648 20.1319L73.9561 16.8714C74.5245 16.5425 75.2542 16.7415 75.5807 17.314C75.9072 17.8906 75.7137 18.6215 75.1413 18.9503L69.554 22.2027ZM61.3504 13.0668C61.0199 13.623 60.3063 13.8098 59.746 13.489C59.1856 13.1642 58.9841 12.4455 59.2985 11.877L62.5235 6.24117C62.85 5.66459 63.5756 5.46563 64.1481 5.79452C64.7165 6.12342 64.914 6.85831 64.5875 7.43084L61.3504 13.0668ZM28.697 20.1319C29.2654 20.4608 29.4589 21.1916 29.1324 21.7601C28.8058 22.3326 28.0802 22.5275 27.5158 22.1987L21.9245 18.9503C21.3561 18.6214 21.1585 17.8906 21.4851 17.3181C21.8116 16.7415 22.5372 16.5425 23.1096 16.8714L28.697 20.1319ZM37.7633 11.8771H37.7673C38.0898 12.4456 37.8963 13.1764 37.3279 13.5053C36.7595 13.8342 36.0339 13.6393 35.7074 13.0668L32.4824 7.43091C32.1558 6.85839 32.3534 6.13158 32.9178 5.80269C33.4862 5.46974 34.2118 5.66869 34.5383 6.24122L37.7633 11.8771ZM49.7241 9.28654C49.7524 9.61949 49.6395 9.95245 49.4137 10.2001C49.1839 10.4478 48.8655 10.5899 48.5309 10.5899C48.1963 10.5899 47.8778 10.4478 47.6521 10.2001C47.4263 9.95245 47.3135 9.6195 47.3417 9.28654V2.78177C47.3941 2.15647 47.9101 1.6814 48.5308 1.6814C49.1517 1.6814 49.6717 2.15646 49.724 2.78177L49.7241 9.28654ZM55.9483 47.779C55.9483 45.7366 56.8513 43.7998 58.4114 42.4964C61.6042 39.7638 63.5351 35.8332 63.7609 31.6184C63.9866 27.4077 62.4829 23.2905 59.6007 20.229C56.7223 17.1675 52.7193 15.4336 48.5304 15.4336C44.342 15.4336 40.3389 17.1675 37.4602 20.229C34.5778 23.2905 33.0742 27.4077 33.3 31.6184C33.5257 35.8331 35.4567 39.7636 38.6495 42.4964C40.2136 43.7957 41.1206 45.7326 41.1206 47.779H55.9483ZM55.9483 54.8035H41.1216V54.8847V54.8806C41.1297 56.5698 42.4882 57.9381 44.1612 57.9462H52.905C54.582 57.9381 55.9405 56.5698 55.9485 54.8806L55.9483 54.8035ZM59.8062 50.1787L37.2633 50.1746C36.8198 50.1787 36.4167 50.4507 36.2474 50.8649C36.0741 51.2791 36.1668 51.7541 36.4812 52.0749C36.6908 52.2861 36.969 52.4038 37.2633 52.4038H59.8062C60.2537 52.4038 60.6528 52.1318 60.8261 51.7176C60.9955 51.2994 60.8987 50.8203 60.5802 50.5035C60.3746 50.2964 60.0965 50.1787 59.8062 50.1746V50.1787ZM51.4858 62.1201C51.9735 61.6247 52.3364 61.0156 52.5379 60.3457H44.5318C44.9511 61.7669 46.0839 62.8591 47.5069 63.2245C48.9339 63.5859 50.4457 63.1676 51.4858 62.1201ZM66.135 29.8197C67.5701 29.4786 69.0656 29.5071 70.4806 29.905C72.5406 30.6196 74.3869 31.8459 75.8462 33.4781C77.6642 33.1533 79.5227 33.1249 81.3528 33.3848V16.6359H81.3568V16.5831L81.3649 16.5546V16.4694L81.3689 16.4572V16.4044H81.377V16.4004L81.381 16.3841V16.3476H81.385L81.4415 16.3273V16.2948H81.4455V16.2623L81.4576 16.242V16.2095H81.4616V16.1973H81.4697V16.1852L81.4737 16.1892C81.4778 16.177 81.4858 16.1648 81.4939 16.1567V16.1445L86.2749 6.54571V6.54165C86.4805 6.13967 86.8877 5.88792 87.3391 5.88792C87.7866 5.88792 88.1978 6.13967 88.4033 6.54165L93.1844 16.1405L93.1803 16.1445C93.3013 16.3354 93.3658 16.5587 93.3617 16.782V39.4351C93.7528 39.6909 94.1156 39.9792 94.4502 40.304C96.1877 41.9932 97.0947 44.539 97.7558 48.2909L100.763 55.084H100.759C100.803 55.1814 100.836 55.2829 100.848 55.3926C101.674 60.797 101.719 64.2727 100.183 67.046C98.6507 69.8193 95.6556 71.6424 90.427 73.7538L90.4311 73.7497C90.2497 73.8228 90.0562 73.8512 89.8627 73.8269L86.4402 73.4533C81.1148 73.2219 80.6432 74.6187 79.2847 78.6263C78.9743 79.5399 78.6276 80.5713 78.2003 81.6919C78.0753 82.0127 77.8213 82.2685 77.5029 82.3862C74.2779 83.6734 70.9319 84.6235 67.5175 85.2164C60.8014 86.5726 56.0365 87.539 53.1097 99.0953C52.9606 99.68 52.4083 100.062 51.8157 99.9927L45.4463 99.5257H45.4423C44.7893 99.477 44.2974 98.9045 44.3418 98.2467L44.3458 98.2182L44.6562 90.264C39.2423 91.3481 35.8399 90.8121 33.264 88.7495C30.5228 86.5609 28.9465 82.7887 26.9189 77.4733V77.4693C26.8665 77.3353 26.8382 77.1932 26.8382 77.047V74.7772C24.5767 73.7499 22.7143 71.9999 21.5372 69.7991C20.5455 67.6836 20.5092 65.1824 21.4646 62.0721C20.3117 58.9131 19.8803 56.079 20.61 53.6874C21.3477 51.2715 23.198 49.3955 26.5722 48.1978H26.5681C26.7012 45.8833 27.2978 43.6177 28.3217 41.5428C29.2771 39.9593 30.8412 38.8508 32.6392 38.4772C32.5989 38.396 32.5585 38.3107 32.5303 38.2336C30.3293 33.4261 30.3737 27.8836 32.6472 23.1125C34.9208 18.3413 39.1859 14.8374 44.2851 13.5624C49.3846 12.2833 54.7867 13.3675 59.0117 16.5102C63.2405 19.6529 65.8527 24.5336 66.143 29.8206L66.135 29.8197ZM74.2015 52.4562C73.5645 52.3262 73.1453 51.705 73.2662 51.0593C73.3831 50.4178 73.9959 49.9874 74.6368 50.1011C78.6923 50.8807 82.8042 49.0454 84.9568 45.4966C85.1221 45.2245 85.3841 45.0255 85.6945 44.9484C86.0009 44.8713 86.3274 44.92 86.5975 45.0865C86.8676 45.2529 87.0611 45.525 87.1337 45.8336C87.2062 46.1462 87.1538 46.4751 86.9845 46.7431C84.3199 51.1446 79.2287 53.4185 74.2015 52.4562ZM60.221 62.9724C59.8461 62.4405 59.959 61.7055 60.483 61.3157C61.0031 60.93 61.7327 61.0315 62.1278 61.5472C63.1437 62.9236 64.8973 63.5246 66.538 63.0617C67.1104 62.8952 67.7151 63.1875 67.9529 63.7357C68.1908 64.2879 67.9852 64.9335 67.4692 65.238C64.0748 67.5647 62.4543 71.759 63.3896 75.7865C63.4823 76.4037 63.0873 76.9925 62.4785 77.1346C61.8739 77.2767 61.2611 76.9275 61.0716 76.3307C60.1686 72.461 61.1684 68.3926 63.7484 65.3924C63.6073 65.3518 63.4662 65.3112 63.3332 65.2665C62.0876 64.8361 61.0032 64.0362 60.2211 62.9683L60.221 62.9724ZM50.5661 74.6217C51.1426 74.3416 51.832 74.5689 52.1302 75.1374C52.4326 75.7058 52.231 76.4124 51.6787 76.7332C47.1678 79.1653 41.6329 78.532 37.7788 75.1374C37.287 74.7029 37.2386 73.9477 37.6699 73.4523C38.1053 72.9529 38.8551 72.9042 39.3469 73.3427C42.459 76.0713 46.9261 76.5829 50.5661 74.6217Z" fill="#FFCA2D"/>
<path d="M91.0235 17.9553V38.387C90.2214 38.1718 89.403 38.0297 88.5726 37.9567M86.1861 17.9547V36.4583C85.5411 35.5447 84.7066 34.7891 83.7391 34.2369M84.4687 15.5598H90.2898L88.7338 12.4414M91.7098 41.2102C91.6816 41.198 91.6614 41.1818 91.6332 41.1696V41.1736C90.2828 40.5768 88.8274 40.2722 87.3521 40.2803H87.3077C86.9812 40.2641 86.6547 40.26 86.308 40.26C85.8404 40.26 85.4131 39.9839 85.2196 39.5495C84.6632 38.0552 83.5627 36.8249 82.1437 36.1144L82.0187 36.0616V36.0656C81.8333 35.9885 81.6438 35.9195 81.4503 35.8667C79.5354 35.4972 77.5682 35.5175 75.6614 35.9235C71.7471 37.1213 68.9655 40.6254 68.6673 44.7387C68.5705 45.3559 68.0223 45.7984 67.4014 45.7538C66.7806 45.7091 66.2969 45.1935 66.2888 44.5682C66.6113 40.1383 69.2639 36.2241 73.2427 34.3075C72.2712 33.3574 71.1022 32.6387 69.8202 32.2043C68.5987 31.8875 67.3128 31.916 66.1034 32.2814C65.9341 34.3441 65.406 36.3581 64.5473 38.2381C63.4669 40.5728 61.8988 42.6477 59.9517 44.3206C59.4357 44.751 59.0246 45.291 58.7383 45.9001C58.4763 46.4929 58.3392 47.1304 58.3352 47.78H59.8106C61.7336 47.78 63.2977 49.3514 63.2977 51.2923C63.2977 53.2291 61.7336 54.8045 59.8106 54.8045H58.3312V54.8857V54.8817C58.3312 56.3312 57.7587 57.724 56.7348 58.7431C56.251 59.2344 55.6786 59.6283 55.0457 59.9044C54.6708 63.2461 51.8651 65.7716 48.5272 65.7716C45.1893 65.7716 42.3836 63.2461 42.0087 59.9044C41.3798 59.6283 40.8073 59.2344 40.3196 58.7431C39.3037 57.7199 38.7272 56.3312 38.7272 54.8817V54.8005L37.2639 54.8045C35.341 54.8045 33.7769 53.2291 33.7769 51.2923C33.7769 49.3514 35.341 47.78 37.2639 47.78H38.7353C38.7313 47.1304 38.5942 46.4929 38.3281 45.9001C38.046 45.291 37.6307 44.7509 37.1147 44.3206C35.8691 43.2528 34.7806 42.0184 33.8696 40.65C32.4426 40.7922 31.1485 41.5718 30.3544 42.7777C29.528 44.1461 29.1854 46.2778 28.8346 49.2337H28.8306C28.7741 49.7047 28.4476 50.0945 28.0001 50.2367C25.005 51.1502 23.4287 52.5714 22.8765 54.3864C22.2919 56.2988 22.7475 58.7594 23.8278 61.6099V61.6058C23.9246 61.8657 23.9286 62.1458 23.844 62.4057C22.9531 65.0855 22.9168 67.1401 23.6787 68.7724H23.6827C24.4446 70.2057 25.6097 71.3751 27.0367 72.1345C27.847 67.733 30.9511 64.1152 35.1597 62.6696C35.462 62.5559 35.7926 62.5722 36.0828 62.7102C36.3731 62.8483 36.5948 63.1 36.6996 63.4086C36.8004 63.7131 36.7762 64.0502 36.6311 64.3384C36.4819 64.6267 36.2279 64.8419 35.9175 64.9353C32.0435 66.2671 29.3789 69.8566 29.2095 73.9778V76.8323C31.0559 81.6682 32.495 85.0871 34.7284 86.8696C36.9214 88.6197 40.1141 88.9038 45.6252 87.5964C45.984 87.5071 46.367 87.5924 46.6532 87.8279C46.9394 88.0674 47.1006 88.4247 47.0845 88.7983L46.758 97.2074L51.0513 97.52C54.3649 85.4321 59.658 84.3604 67.0514 82.8584C70.1595 82.3143 73.2112 81.4738 76.1579 80.3409C76.5006 79.4111 76.7788 78.5908 77.0287 77.8478C78.0325 74.8918 78.6653 73.016 80.2859 71.9968C80.4391 71.0345 80.4149 70.0559 80.2174 69.1017C79.5482 65.8574 76.9359 63.3765 73.6787 62.8933C73.3482 62.873 73.0378 62.7105 72.8322 62.4507C72.6225 62.1867 72.5298 61.8538 72.5782 61.5208C72.6266 61.1879 72.808 60.8915 73.0821 60.7047C73.3562 60.5139 73.6949 60.4448 74.0214 60.5179C78.2703 61.1473 81.6767 64.3793 82.5434 68.6144C82.7208 69.4549 82.7893 70.3116 82.753 71.1684C84.0229 71.01 85.3089 70.9735 86.5867 71.0587C86.627 71.0547 86.6673 71.0547 86.7077 71.0587L89.8561 71.4039C94.3952 69.5564 96.947 68.0135 98.1442 65.8655C99.3374 63.6932 99.2771 60.6763 98.5554 55.885L98.0273 54.6953C97.592 55.3044 97.1002 55.8688 96.5559 56.3844C95.4271 57.4686 94.0969 58.3253 92.6456 58.91C92.0369 59.1577 91.3475 58.8613 91.1016 58.2482C90.8557 57.631 91.154 56.9367 91.7627 56.689C93.9557 55.8079 95.7657 54.1674 96.8703 52.0642L95.6004 49.1975C95.5399 49.0839 95.4956 48.962 95.4755 48.8321C94.895 45.5107 94.1734 43.3221 92.8471 42.0268V42.0309C92.5084 41.7061 92.1251 41.4294 91.7098 41.2102ZM7.50501 23.612V77.9688H14.7612V74.6352H13.1769C12.5601 74.5824 12.0844 74.0627 12.0844 73.4374C12.0844 72.8121 12.5601 72.2924 13.1769 72.2356H14.7571V68.8005H13.1769C12.5601 68.7477 12.0844 68.228 12.0844 67.6027C12.0844 66.9775 12.5601 66.4577 13.1769 66.405H14.7571V62.9698L13.1769 62.9658C12.5601 62.913 12.0844 62.3932 12.0844 61.768C12.0844 61.1427 12.5601 60.6229 13.1769 60.5702H14.7571L14.7611 57.1392H10.48C10.1494 57.1676 9.81883 57.0539 9.57293 56.8265C9.32702 56.5991 9.18593 56.2783 9.18593 55.9413C9.18593 55.6043 9.32702 55.2795 9.57293 55.0521C9.81883 54.8247 10.1494 54.711 10.48 54.7395H14.7571V51.3043H13.1769C12.5601 51.2515 12.0844 50.7318 12.0844 50.1066C12.0844 49.4813 12.5601 48.9615 13.1769 48.9047H14.7571V45.4696H13.1769C12.5601 45.4168 12.0844 44.8971 12.0844 44.2718C12.0844 43.6465 12.5601 43.1268 13.1769 43.0741H14.7571L14.7611 39.6308H13.1768C12.56 39.578 12.0843 39.0583 12.0843 38.433C12.0843 37.8078 12.56 37.288 13.1768 37.2353H14.757V33.8002H10.4799C9.82277 33.8002 9.28667 33.2601 9.28667 32.5942C9.28667 31.9282 9.82282 31.3923 10.4799 31.3923H14.757L14.761 27.9613H13.1767C12.5196 27.9613 11.9835 27.4212 11.9835 26.7594C11.9835 26.0935 12.5196 25.5534 13.1767 25.5534H14.7569L14.7609 23.6126L7.50501 23.612ZM5.12254 77.9688V23.612H2.97393V77.9688H5.12254ZM1.78063 21.2161H15.9541C16.6112 21.2161 17.1473 21.752 17.1473 22.4179V79.1706C17.1473 79.4914 17.0223 79.7959 16.7966 80.0193C16.5749 80.2426 16.2685 80.3685 15.954 80.3685H1.78058C1.12348 80.3685 0.58738 79.8325 0.583252 79.1707V22.4138C0.583252 21.7519 1.11941 21.212 1.78058 21.212L1.78063 21.2161ZM40.5208 30.3154H40.5168C40.5168 30.9813 39.9846 31.5173 39.3236 31.5173C38.6625 31.5173 38.1304 30.9813 38.1304 30.3154C38.1263 27.534 39.2228 24.8704 41.1739 22.9052C43.125 20.94 45.7735 19.8356 48.5309 19.8356C49.1921 19.8356 49.7241 20.3756 49.7241 21.0415C49.7241 21.7034 49.192 22.2434 48.5309 22.2434C46.4065 22.2434 44.3666 23.092 42.863 24.6065C41.3594 26.121 40.5128 28.1756 40.5169 30.3195L40.5208 30.3154ZM69.554 22.2027V22.1987C68.9856 22.5316 68.2599 22.3367 67.9334 21.7642C67.6029 21.1917 67.8004 20.4608 68.3648 20.1319L73.9561 16.8714C74.5245 16.5425 75.2542 16.7415 75.5807 17.314C75.9072 17.8906 75.7137 18.6215 75.1413 18.9503L69.554 22.2027ZM61.3504 13.0668C61.0199 13.623 60.3063 13.8098 59.746 13.489C59.1856 13.1642 58.9841 12.4455 59.2985 11.877L62.5235 6.24117C62.85 5.66459 63.5756 5.46563 64.1481 5.79452C64.7165 6.12342 64.914 6.85831 64.5875 7.43084L61.3504 13.0668ZM28.697 20.1319C29.2654 20.4608 29.4589 21.1916 29.1324 21.7601C28.8058 22.3326 28.0802 22.5275 27.5158 22.1987L21.9245 18.9503C21.3561 18.6214 21.1585 17.8906 21.4851 17.3181C21.8116 16.7415 22.5372 16.5425 23.1096 16.8714L28.697 20.1319ZM37.7633 11.8771H37.7673C38.0898 12.4456 37.8963 13.1764 37.3279 13.5053C36.7595 13.8342 36.0339 13.6393 35.7074 13.0668L32.4824 7.43091C32.1558 6.85839 32.3534 6.13158 32.9178 5.80269C33.4862 5.46974 34.2118 5.66869 34.5383 6.24122L37.7633 11.8771ZM49.7241 9.28654C49.7524 9.61949 49.6395 9.95245 49.4137 10.2001C49.184 10.4478 48.8655 10.5899 48.5309 10.5899C48.1963 10.5899 47.8778 10.4478 47.6521 10.2001C47.4263 9.95245 47.3135 9.6195 47.3417 9.28654V2.78177C47.3941 2.15647 47.9101 1.6814 48.5308 1.6814C49.1517 1.6814 49.6717 2.15646 49.724 2.78177L49.7241 9.28654ZM55.9483 47.779C55.9483 45.7366 56.8513 43.7998 58.4114 42.4964C61.6042 39.7638 63.5351 35.8332 63.7609 31.6184C63.9866 27.4077 62.4829 23.2905 59.6007 20.229C56.7223 17.1675 52.7193 15.4336 48.5304 15.4336C44.342 15.4336 40.3389 17.1675 37.4602 20.229C34.5778 23.2905 33.0742 27.4077 33.3 31.6184C33.5258 35.8331 35.4567 39.7636 38.6495 42.4964C40.2136 43.7957 41.1206 45.7326 41.1206 47.779H55.9483ZM55.9483 54.8035H41.1216V54.8847V54.8806C41.1297 56.5698 42.4882 57.9381 44.1612 57.9462H52.905C54.582 57.9381 55.9405 56.5698 55.9485 54.8806L55.9483 54.8035ZM59.8062 50.1787L37.2633 50.1746C36.8198 50.1787 36.4167 50.4507 36.2474 50.8649C36.0741 51.2791 36.1668 51.7541 36.4812 52.0749C36.6908 52.2861 36.969 52.4038 37.2633 52.4038H59.8062C60.2537 52.4038 60.6528 52.1318 60.8261 51.7176C60.9955 51.2994 60.8987 50.8203 60.5802 50.5035C60.3746 50.2964 60.0965 50.1787 59.8062 50.1746V50.1787ZM51.4858 62.1201C51.9735 61.6247 52.3364 61.0156 52.5379 60.3457H44.5318C44.9511 61.7669 46.0839 62.8591 47.5069 63.2245C48.9339 63.5859 50.4457 63.1676 51.4858 62.1201ZM66.135 29.8197C67.5701 29.4787 69.0656 29.5071 70.4806 29.905C72.5406 30.6196 74.3869 31.8459 75.8462 33.4781C77.6642 33.1533 79.5227 33.1249 81.3528 33.3848V16.6359H81.3568V16.5831L81.3649 16.5546V16.4694L81.3689 16.4572V16.4044H81.377V16.4004L81.381 16.3841V16.3476H81.385L81.4415 16.3273V16.2948H81.4455V16.2623L81.4576 16.242V16.2095H81.4616V16.1973H81.4697V16.1852L81.4737 16.1892C81.4778 16.177 81.4858 16.1648 81.4939 16.1567V16.1445L86.2749 6.54571V6.54165C86.4805 6.13967 86.8877 5.88792 87.3391 5.88792C87.7866 5.88792 88.1978 6.13967 88.4033 6.54165L93.1844 16.1405L93.1803 16.1445C93.3013 16.3354 93.3658 16.5587 93.3617 16.782V39.4351C93.7528 39.6909 94.1156 39.9792 94.4502 40.304C96.1877 41.9932 97.0947 44.539 97.7558 48.2909L100.763 55.084H100.759C100.803 55.1814 100.836 55.2829 100.848 55.3926C101.674 60.797 101.719 64.2727 100.183 67.046C98.6507 69.8193 95.6556 71.6424 90.427 73.7538L90.4311 73.7497C90.2497 73.8228 90.0562 73.8512 89.8627 73.8269L86.4402 73.4533C81.1148 73.2219 80.6432 74.6187 79.2847 78.6263C78.9743 79.5399 78.6276 80.5713 78.2003 81.6919C78.0753 82.0127 77.8213 82.2685 77.5029 82.3862C74.2779 83.6734 70.9319 84.6235 67.5175 85.2164C60.8014 86.5726 56.0365 87.539 53.1098 99.0953C52.9606 99.68 52.4083 100.062 51.8157 99.9927L45.4463 99.5257H45.4423C44.7893 99.477 44.2974 98.9045 44.3418 98.2467L44.3458 98.2182L44.6562 90.264C39.2423 91.3481 35.8399 90.8121 33.264 88.7495C30.5228 86.5609 28.9465 82.7887 26.9189 77.4733V77.4693C26.8665 77.3353 26.8382 77.1932 26.8382 77.047V74.7772C24.5767 73.7499 22.7143 71.9999 21.5372 69.7991C20.5455 67.6836 20.5092 65.1824 21.4646 62.0721C20.3117 58.9131 19.8803 56.079 20.61 53.6874C21.3477 51.2715 23.198 49.3955 26.5722 48.1978H26.5681C26.7012 45.8833 27.2978 43.6177 28.3217 41.5428C29.2771 39.9593 30.8412 38.8508 32.6392 38.4772C32.5989 38.396 32.5585 38.3107 32.5303 38.2336C30.3293 33.4261 30.3737 27.8836 32.6472 23.1125C34.9208 18.3413 39.1859 14.8374 44.2851 13.5624C49.3846 12.2833 54.7867 13.3675 59.0117 16.5102C63.2405 19.6529 65.8527 24.5336 66.143 29.8206L66.135 29.8197ZM74.2015 52.4562C73.5645 52.3262 73.1453 51.705 73.2662 51.0593C73.3831 50.4178 73.9959 49.9874 74.6368 50.1011C78.6923 50.8807 82.8041 49.0454 84.9568 45.4966C85.1221 45.2245 85.3841 45.0255 85.6945 44.9484C86.0009 44.8713 86.3274 44.92 86.5975 45.0865C86.8676 45.2529 87.0611 45.525 87.1337 45.8336C87.2062 46.1462 87.1538 46.4751 86.9845 46.7431C84.3199 51.1446 79.2287 53.4185 74.2015 52.4562ZM60.221 62.9724C59.8461 62.4405 59.959 61.7055 60.483 61.3157C61.0031 60.93 61.7327 61.0315 62.1278 61.5472C63.1437 62.9236 64.8973 63.5246 66.538 63.0617C67.1104 62.8952 67.7151 63.1875 67.9529 63.7357C68.1908 64.2879 67.9852 64.9335 67.4692 65.238C64.0748 67.5647 62.4543 71.759 63.3896 75.7865C63.4823 76.4037 63.0873 76.9925 62.4785 77.1346C61.8739 77.2767 61.2611 76.9275 61.0716 76.3307C60.1686 72.461 61.1684 68.3926 63.7484 65.3924C63.6073 65.3518 63.4662 65.3112 63.3332 65.2665C62.0876 64.8361 61.0032 64.0362 60.2211 62.9683L60.221 62.9724ZM50.5661 74.6217C51.1426 74.3416 51.832 74.5689 52.1302 75.1374C52.4326 75.7058 52.231 76.4124 51.6787 76.7332C47.1678 79.1653 41.6329 78.532 37.7788 75.1374C37.287 74.7029 37.2386 73.9477 37.6699 73.4523C38.1053 72.9529 38.8551 72.9042 39.3469 73.3427C42.459 76.0713 46.9261 76.5829 50.5661 74.6217Z" stroke="#FFCA2D"/>
<path d="M81.4165 32.6862V14.5272L86.0989 3.98376C86.7931 2.42055 89.002 2.39354 89.7342 3.9393L94.7498 14.5272L95.1665 40.3361L88.4998 36.5546L81.4165 32.6862Z" fill="white" stroke="white"/>
</svg>
