<svg width="1100" height="145" viewBox="0 0 1100 145" fill="none" xmlns="http://www.w3.org/2000/svg">
<path d="M182.636 144.186C179.15 144.186 175.641 144.058 172.105 143.789C153.003 142.334 135.862 136.257 119.287 130.381C108.429 126.53 97.2008 122.55 85.6504 119.978C56.7495 113.54 18.3854 119.015 6.79925 139.077L0.203125 137.062C13.3381 114.321 55.8713 107.903 87.7448 115.004C99.8318 117.695 111.316 121.767 122.423 125.704C139.178 131.645 155.005 137.256 172.851 138.615C206.01 141.146 237.717 130.092 268.383 119.407C294.365 110.354 321.231 100.992 349.479 99.4923C373.297 98.2242 394.71 103.173 415.417 107.955C423.196 109.752 431.239 111.61 439.244 113.093C456.128 116.221 498.665 121.694 528.952 105.01C542.251 97.6831 550.484 88.7556 558.448 80.1221C567.573 70.2282 576.192 60.8819 591.391 54.7221C621.181 42.6276 667.243 51.4602 697.632 62.7002C714.942 69.1019 729.486 77.5546 743.551 85.7291C753.721 91.6391 764.239 97.7521 775.721 103.039C788.626 108.98 833.577 127.517 870.081 116.607C895.822 108.917 907.077 91.1982 918.994 72.4406C923.841 64.8098 928.854 56.9202 934.967 49.5755C968.202 9.63981 1046.52 -11.0128 1099.28 6.24258L1096.35 10.9873C1047.5 -4.99223 972.044 15.0725 941.086 52.2691C935.18 59.3654 930.253 67.1223 925.486 74.623C913.514 93.4665 901.135 112.952 872.798 121.421C834.196 132.955 789.372 115.483 771.892 107.437C760.077 101.996 749.405 95.7933 739.083 89.7961C724.664 81.4162 711.044 73.5006 694.388 67.3395C665.565 56.6783 622.208 48.1683 594.875 59.2678C581.177 64.8202 573.021 73.6606 564.388 83.0225C556.096 92.0111 547.524 101.307 533.271 109.159C500.505 127.209 455.364 121.451 437.479 118.137C429.271 116.616 421.128 114.736 413.253 112.916C392.268 108.069 372.457 103.497 350.001 104.683C323.104 106.111 296.859 115.257 271.476 124.101C243.086 133.99 213.826 144.186 182.636 144.186Z" fill="#EFE9FF"/>
</svg>
