<svg width="1009" height="122" viewBox="0 0 1009 122" fill="none" xmlns="http://www.w3.org/2000/svg">
<path d="M242.817 121.732C237.411 121.732 232.09 121.291 226.924 120.392C201.937 116.042 184.085 102.269 166.823 88.9523C155.954 80.5672 144.714 71.8959 131.828 65.6854C93.3673 47.1476 35.5064 53.0095 5.47866 78.4875L0.046875 75.1006C15.786 61.7471 38.6721 52.9523 64.486 50.3367C90.3018 47.7199 115.62 51.6334 135.781 61.3491C149.354 67.8913 160.881 76.7837 172.029 85.3834C189.335 98.7343 205.682 111.344 228.593 115.334C253.944 119.75 283.712 111.833 308.213 94.16C322.341 83.9709 333.877 71.693 345.034 59.8209C350.9 53.5766 356.967 47.1203 363.381 40.9904C387.315 18.1098 411.927 5.2453 438.619 1.66077C485.314 -4.60304 528.518 18.8915 565.348 41.4118C603.3 64.6163 644.267 85.1272 686.698 78.1415C699.951 75.9604 711.838 71.2651 724.422 66.2954C736.049 61.7042 748.072 56.9543 761.198 54.4298C793.046 48.3039 826.889 56.1011 856.114 63.8905L859.596 64.8205C888.003 72.4097 917.385 80.2602 946.721 77.3624C964.322 75.6261 981.703 68.3153 992.082 58.2796C999.794 50.8232 1003 42.5681 1001.34 34.4067L1008.42 33.6484C1010.36 43.2158 1006.69 52.8144 997.8 61.4077C986.314 72.5137 967.11 80.6036 947.683 82.5194C916.57 85.585 886.354 77.5133 857.13 69.7043L853.653 68.777C824.16 60.9147 792.866 53.7197 763.029 59.4606C750.733 61.8265 739.093 66.4229 727.836 70.8684C715.379 75.7887 702.496 80.8767 688.277 83.2166C642.804 90.6991 600.108 69.4611 560.744 45.3943C523.534 22.6425 483.549 0.915512 439.919 6.77874C415.055 10.1161 391.883 22.3381 369.076 44.1418C362.775 50.1663 356.758 56.5667 350.942 62.7577C339.595 74.8327 327.862 87.3174 313.252 97.8564C291.861 113.279 266.498 121.732 242.817 121.732Z" fill="#5829C7"/>
</svg>
