<svg width="1170" height="262" viewBox="0 0 1170 262" fill="none" xmlns="http://www.w3.org/2000/svg">
<g filter="url(#filter0_dddd_1599_794)">
<path d="M32.8322 165.053L26 163.511C35.0357 142.322 72.8507 134.795 104.173 139.757C116.421 141.697 128.328 144.908 139.84 148.014C156.089 152.397 171.437 156.537 187.913 157.527C221.414 159.533 253.282 147.888 284.116 136.625C315.562 125.136 348.074 113.26 383.269 115.089C408.724 116.416 431.865 124.823 454.245 132.954C462.476 135.945 470.986 139.036 479.43 141.704C493.649 146.193 542.349 159.295 572.124 139.378C584.535 131.079 590.251 119.269 596.303 106.766C602.361 94.2504 608.626 81.3091 622.26 72.1293C649.729 53.6318 694.957 59.2128 725.432 74.2844C742.4 82.6748 756.851 93.4804 770.827 103.931C781.367 111.811 792.266 119.962 804.081 126.931C828.243 141.183 867.522 153.495 898.7 141.282C924.396 131.218 933.666 110.365 943.482 88.2857C947.935 78.267 952.54 67.9075 958.827 58.6184C974.006 36.1852 1003.28 18.5487 1039.15 10.2312C1075.02 1.91238 1112.93 3.96737 1143.16 15.8668L1139.76 20.4424C1111.22 9.2128 1075.35 7.29957 1041.33 15.1879C1007.3 23.0788 979.574 39.7463 965.248 60.9166C959.192 69.8662 954.667 80.0436 950.292 89.8868C940.475 111.971 930.323 134.808 902.097 145.863C867.86 159.274 826.69 146.963 799.579 130.972C787.435 123.81 776.387 115.548 765.703 107.558C751.978 97.2938 737.784 86.6807 721.415 78.5869C693.274 64.6728 651.85 59.2973 627.125 75.9466C614.79 84.2524 609.09 96.0283 603.055 108.495C596.978 121.048 590.695 134.03 576.973 143.209C554.734 158.082 517.209 159.305 476.588 146.477C467.967 143.755 459.369 140.631 451.055 137.611C429.299 129.705 406.804 121.532 382.765 120.281C349.546 118.547 317.918 130.103 287.336 141.276C255.619 152.863 222.823 164.844 187.333 162.714C169.877 161.667 153.347 157.207 137.361 152.894C126.079 149.851 114.415 146.705 102.658 144.842C74.4729 140.376 40.6517 146.716 32.8322 165.053Z" fill="#F7F7F7"/>
<path d="M35.6391 163.853L28.8516 162.209C38.744 140.602 77.328 133.338 108.91 138.798C121.131 140.884 132.96 144.278 144.398 147.559C160.74 152.248 176.177 156.676 192.914 157.736C226.118 159.846 257.734 148.334 288.322 137.21C318.89 126.093 350.498 114.608 384.566 115.959C409.756 116.964 432.615 124.635 454.722 132.053C462.79 134.76 471.131 137.56 479.418 139.971C493.422 144.047 541.448 155.843 571.499 136.495C584.154 128.347 590.625 116.637 596.882 105.312C603.431 93.4568 610.205 81.1971 624.075 72.6377C652.754 54.9323 697.993 61.9465 727.887 75.9582C744.994 83.9766 759.506 94.3504 773.541 104.382C783.963 111.831 794.74 119.533 806.43 126.148C832.008 140.521 870.288 151.8 900.981 140.339C926.65 130.754 936.298 110.546 946.51 89.1505C951.069 79.5987 955.784 69.7217 962.06 60.8059C977.579 38.7655 1006.94 21.4099 1042.6 13.1913C1077.25 5.20672 1113.62 6.93785 1142.4 17.936L1139.08 22.5415C1111.98 12.1846 1077.6 10.5835 1044.77 18.1493C1010.91 25.9517 983.084 42.363 968.429 63.1757C962.38 71.7676 957.747 81.4703 953.269 90.8543C943.044 112.277 932.47 134.428 904.251 144.967C870.572 157.54 829.375 145.615 802.048 130.259C790.02 123.454 779.096 115.646 768.527 108.091C754.749 98.2431 740.503 88.0592 724.011 80.3309C695.382 66.9123 653.451 61.3235 628.703 76.6033C616.182 84.3303 610.033 95.4637 603.519 107.251C596.953 119.138 590.162 131.427 576.24 140.39C553.889 154.777 516.698 156.427 476.758 144.802C468.302 142.341 459.874 139.512 451.724 136.778C430.228 129.565 408.002 122.106 384.173 121.155C352.006 119.876 321.254 131.051 291.521 141.865C260.043 153.312 227.494 165.15 192.293 162.922C174.519 161.797 157.869 157.02 141.771 152.401C130.569 149.187 118.988 145.864 107.263 143.864C78.8018 138.941 44.2348 145.075 35.6391 163.853Z" fill="#FBFAFF"/>
<path d="M206.258 163.445C203.268 163.445 200.259 163.349 197.231 163.147C179.078 161.939 162.258 156.831 145.993 151.89C134.922 148.528 123.474 145.05 111.839 142.9C83.7129 137.699 47.6435 143.781 38.4147 162.671L31.6719 160.93C42.3906 138.989 81.7473 131.97 113.601 137.858C125.745 140.101 137.439 143.655 148.749 147.09C165.243 152.1 180.821 156.831 197.882 157.965C230.781 160.157 262.17 148.792 292.523 137.803C322.204 127.057 352.909 115.932 385.832 116.849C410.768 117.532 433.343 124.464 455.178 131.167C463.078 133.593 471.248 136.102 479.368 138.26C493.161 141.924 540.516 152.418 570.844 133.632C583.723 125.654 590.67 114.61 597.388 103.93C604.442 92.7118 611.737 81.1141 625.87 73.166C654.43 57.0967 700.028 64.2254 730.312 77.6518C747.441 85.2449 761.917 95.1218 775.918 104.674C786.307 111.761 797.049 119.09 808.739 125.378C834.501 139.235 872.853 150.202 903.238 139.415C928.896 130.305 938.927 110.733 949.545 90.013C954.199 80.9333 959.01 71.5441 965.27 63.0081C980.669 42.0055 1009.12 25.1637 1043.33 16.8007C1077.61 8.42336 1113.43 9.59523 1141.62 20.0224L1138.38 24.6591C1083.03 4.18331 1001.97 24.0101 971.584 65.4545C965.551 73.6836 960.822 82.9076 956.25 91.8286C945.609 112.594 934.604 134.068 906.379 144.089C873.117 155.895 831.938 144.325 804.488 129.56C792.462 123.09 781.564 115.656 771.024 108.468C757.29 99.0965 743.085 89.4069 726.59 82.0934C698.333 69.5658 656.13 62.718 630.25 77.2811C617.512 84.445 610.898 94.9606 603.896 106.094C596.855 117.29 589.574 128.867 575.487 137.592C553.03 151.501 516.185 153.577 476.915 143.146C468.631 140.945 460.377 138.411 452.398 135.961C430.181 129.14 409.194 122.696 385.568 122.049C354.426 121.203 324.593 132.006 295.715 142.461C267.174 152.792 237.747 163.445 206.258 163.445Z" fill="#F7F3FF"/>
<path d="M211.556 163.679C208.455 163.679 205.336 163.575 202.195 163.355C183.714 162.066 166.773 156.634 150.392 151.38C139.403 147.856 128.041 144.213 116.447 141.921C88.0615 136.309 51.223 142.186 41.2161 161.469L34.5234 159.633C46.0971 137.322 86.2229 130.555 118.325 136.899C130.437 139.294 142.05 143.019 153.279 146.62C169.873 151.941 185.546 156.968 202.878 158.177C235.496 160.456 266.647 149.224 296.775 138.365C325.559 127.989 355.308 117.256 387.123 117.72C411.817 118.078 434.115 124.271 455.679 130.261C463.404 132.406 471.391 134.624 479.34 136.529C496.747 140.7 540.452 148.485 570.219 130.75C583.289 122.96 590.694 112.602 597.855 102.585C605.433 91.9834 613.27 81.0192 627.706 73.6745C656.229 59.1478 701.021 66.045 732.761 79.3244C749.956 86.5195 764.45 95.9243 778.467 105.02C788.781 111.714 799.45 118.636 811.075 124.589C837.09 137.909 875.565 148.548 905.523 138.469C931.186 129.834 941.612 110.891 952.649 90.835C957.383 82.2326 962.28 73.3364 968.506 65.1892C984.007 44.9021 1012.04 28.4595 1045.43 20.0757C1078.91 11.6658 1113.69 12.3994 1140.85 22.0878L1137.7 26.7583C1084.53 7.79128 1005.34 27.6935 974.759 67.7163C968.753 75.5747 963.943 84.3162 959.291 92.769C948.22 112.886 936.772 133.687 908.527 143.19C867.343 157.049 820.374 135.71 806.958 128.842C794.995 122.717 784.172 115.694 773.704 108.902C759.957 99.9823 745.746 90.7595 729.193 83.8337C700.383 71.7782 657.615 64.7899 631.809 77.9367C618.81 84.5503 611.714 94.4754 604.204 104.984C596.71 115.468 588.961 126.308 574.754 134.773C542.244 154.143 495.633 145.909 477.102 141.468C468.996 139.527 460.93 137.286 453.129 135.119C431.171 129.02 410.431 123.26 386.981 122.92C356.945 122.475 327.967 132.926 299.953 143.024C271.739 153.195 242.652 163.679 211.556 163.679Z" fill="#F4EFFF"/>
<path d="M217.236 163.938C213.895 163.938 210.534 163.821 207.147 163.574C188.349 162.202 171.303 156.447 154.818 150.881C143.901 147.195 132.61 143.383 121.045 140.951C92.3944 134.926 54.794 140.601 44.0038 160.276L37.3594 158.348C49.6341 135.968 91.3857 129.3 123.032 135.953C135.126 138.497 146.668 142.393 157.832 146.162C174.511 151.795 190.267 157.114 207.862 158.397C241.025 160.826 271.278 150.187 303.311 138.93C330.449 129.395 358.509 119.535 388.238 118.606C412.376 117.848 434.146 123.487 455.179 128.938C463.052 130.978 471.192 133.089 479.292 134.812C496.437 138.46 539.555 145.088 569.581 127.881C582.799 120.306 590.636 110.653 598.216 101.318C606.72 90.8429 614.754 80.9478 629.538 74.2001C657.79 61.2849 702.96 68.3161 735.193 81.0141C752.447 87.8125 766.964 96.7426 781.002 105.379C791.247 111.68 801.839 118.196 813.396 123.816C826.154 130.019 870.662 149.339 907.797 137.541C933.486 129.379 944.321 111.053 955.789 91.6532C960.589 83.5334 965.553 75.1366 971.732 67.3848C987.33 47.8169 1014.95 31.7737 1047.51 23.3677C1080.2 14.9267 1113.94 15.2193 1140.07 24.1676L1137.02 28.8746C1086.01 11.4059 1008.69 31.3887 977.922 69.9939C971.957 77.4764 967.078 85.7289 962.362 93.7082C950.847 113.184 938.943 133.323 910.662 142.307C901.33 145.273 891.63 146.466 882.073 146.467C850.19 146.468 819.824 133.198 809.422 128.141C797.53 122.358 786.779 115.746 776.384 109.351C761.99 100.495 748.394 92.1306 731.787 85.5884C701.386 73.6109 659.157 66.8061 633.346 78.6053C620.034 84.6819 612.429 94.0477 604.379 103.964C596.465 113.712 588.28 123.792 574.011 131.967C541.369 150.674 495.495 143.68 477.286 139.805C468.989 138.04 460.749 135.904 452.781 133.84C431.454 128.314 411.305 123.092 388.547 123.805C360.294 124.688 332.908 134.31 306.425 143.615C277.943 153.623 248.582 163.938 217.236 163.938Z" fill="#F2EDFF"/>
<path d="M222.636 164.186C219.15 164.186 215.641 164.058 212.105 163.789C193.003 162.334 175.862 156.257 159.287 150.381C148.429 146.53 137.201 142.55 125.65 139.978C96.7495 133.54 58.3854 139.015 46.7993 159.077L40.2031 157.062C53.3381 134.321 95.8713 127.903 127.745 135.004C139.832 137.695 151.316 141.767 162.423 145.704C179.178 151.645 195.005 157.256 212.851 158.615C246.01 161.146 277.717 150.092 308.383 139.407C334.365 130.354 361.231 120.992 389.479 119.492C413.297 118.224 434.71 123.173 455.417 127.955C463.196 129.752 471.239 131.61 479.244 133.093C496.128 136.221 538.665 141.694 568.952 125.01C582.251 117.683 590.484 108.756 598.448 100.122C607.573 90.2282 616.192 80.8819 631.391 74.7221C661.181 62.6276 707.243 71.4602 737.632 82.7002C754.942 89.1019 769.486 97.5546 783.551 105.729C793.721 111.639 804.239 117.752 815.721 123.039C828.626 128.98 873.577 147.517 910.081 136.607C935.822 128.917 947.077 111.198 958.994 92.4406C963.841 84.8098 968.854 76.9202 974.967 69.5755C1008.2 29.6398 1086.52 8.98716 1139.28 26.2426L1136.35 30.9873C1087.5 15.0078 1012.04 35.0725 981.086 72.2691C975.18 79.3654 970.253 87.1223 965.486 94.623C953.514 113.466 941.135 132.952 912.798 141.421C874.196 152.955 829.372 135.483 811.892 127.437C800.077 121.996 789.405 115.793 779.083 109.796C764.664 101.416 751.044 93.5006 734.388 87.3395C705.565 76.6783 662.208 68.1683 634.875 79.2678C621.177 84.8202 613.021 93.6606 604.388 103.022C596.096 112.011 587.524 121.307 573.271 129.159C540.505 147.209 495.364 141.451 477.479 138.137C469.271 136.616 461.128 134.736 453.253 132.916C432.268 128.069 412.457 123.497 390.001 124.683C363.104 126.111 336.859 135.257 311.476 144.101C283.086 153.99 253.826 164.186 222.636 164.186Z" fill="#EFE9FF"/>
<path d="M227.373 164.409C223.961 164.409 220.527 164.279 217.064 164.005C197.666 162.465 180.442 156.067 163.784 149.88C152.976 145.865 141.801 141.715 130.258 139.004C101.115 132.159 61.9857 137.428 49.5929 157.876L43.0469 155.778C57.0457 132.679 100.352 126.514 132.458 134.054C144.545 136.893 155.98 141.14 167.039 145.249C183.86 151.497 199.749 157.399 217.839 158.834C249.673 161.359 280.185 150.493 309.696 139.985C335.732 130.714 362.655 121.127 390.953 120.368C415.036 119.724 436.541 123.697 457.347 127.543C464.467 128.859 471.832 130.221 479.187 131.375C495.811 133.983 537.779 138.306 568.318 122.136C581.613 115.099 590.19 106.919 598.486 99.0087C608.292 89.6572 617.555 80.8234 633.251 75.2476C662.474 64.8387 707.59 73.1432 740.066 84.3845C757.424 90.3934 772.004 98.3649 786.103 106.074C796.198 111.594 806.637 117.302 818.039 122.257C834.789 129.538 877.508 145.423 912.365 135.671C938.184 128.448 949.883 111.323 962.267 93.1936C967.139 86.061 972.179 78.6838 978.203 71.758C1011.61 33.357 1088.01 12.6497 1138.49 28.3106L1135.69 33.0956C1088.98 18.604 1015.38 38.7455 984.25 74.5387C978.423 81.2383 973.467 88.4918 968.675 95.5074C955.653 114.571 943.353 132.577 914.935 140.526C877.145 151.098 832.018 134.395 814.369 126.724C802.642 121.625 792.05 115.834 781.805 110.232C767.352 102.329 753.702 94.8662 736.994 89.081C706.027 78.3613 663.34 70.326 636.397 79.9194C622.22 84.9567 613.858 92.9296 604.177 102.163C595.57 110.37 586.671 118.856 572.532 126.341C539.654 143.748 495.248 139.215 477.681 136.459C470.199 135.284 462.772 133.912 455.587 132.584C434.337 128.655 414.259 124.948 391.221 125.565C364.44 126.284 338.213 135.624 312.848 144.656C285.526 154.383 257.369 164.408 227.373 164.409Z" fill="#ECE4FF"/>
<path d="M232.647 164.652C229.135 164.652 225.602 164.513 222.038 164.219C202.351 162.595 185.053 155.877 168.323 149.38C157.559 145.2 146.427 140.877 134.884 138.028C105.5 130.776 65.6106 135.843 52.404 156.672L45.9062 154.493C60.7797 131.038 104.865 125.125 137.182 133.102C149.28 136.087 160.675 140.511 171.692 144.79C188.572 151.346 204.517 157.537 222.844 159.049C254.426 161.658 284.765 150.894 314.097 140.487C339.189 131.583 365.137 122.375 392.244 121.249C416.173 120.253 437.451 123.491 458.033 126.622C464.912 127.668 472.025 128.75 479.14 129.66C495.509 131.75 536.91 134.925 567.705 119.266C580.866 112.573 589.709 105.166 598.262 98.0017C608.837 89.1431 618.826 80.7749 635.138 75.7792C671.03 64.7498 726.398 80.8685 742.514 86.0723C759.92 91.6923 774.542 99.18 788.684 106.421C798.7 111.549 809.057 116.853 820.369 121.481C841.465 130.11 881.766 143.31 914.67 134.738C940.606 127.982 952.768 111.435 965.645 93.9138C970.515 87.2871 975.55 80.4354 981.461 73.9427C1015.02 37.0686 1089.5 16.3054 1137.71 30.3808L1135.05 35.2087C1090.48 22.1986 1018.74 42.4168 987.428 76.8145C981.703 83.103 976.746 89.8467 971.955 96.3668C958.409 114.797 945.615 132.204 917.083 139.636C881.512 148.902 839.022 135.08 816.864 126.015C805.235 121.258 794.727 115.877 784.566 110.674C770.07 103.251 756.377 96.2393 739.613 90.8261C724.162 85.8382 671.168 70.3543 637.921 80.572C623.142 85.0995 614.117 92.6587 603.667 101.412C595.241 108.469 585.694 116.468 571.808 123.529C538.827 140.302 495.153 136.988 477.906 134.783C470.678 133.86 463.506 132.769 456.572 131.714C435.519 128.513 415.634 125.49 392.657 126.442C366.986 127.51 341.696 136.485 317.24 145.162C290.186 154.761 262.308 164.651 232.647 164.652Z" fill="#E7DDFF"/>
<path d="M237.885 164.906C234.278 164.906 230.647 164.759 226.986 164.446C207.022 162.734 189.657 155.699 172.865 148.896C162.134 144.549 151.038 140.053 139.484 137.067C109.744 129.38 68.7738 134.944 55.1881 155.481L48.7422 153.226C64.492 129.418 109.354 123.757 141.882 132.166C153.999 135.298 165.36 139.901 176.349 144.353C193.277 151.211 209.269 157.689 227.827 159.28C259.192 161.972 289.35 151.299 318.516 140.981C342.651 132.444 367.608 123.615 393.511 122.144C417.327 120.793 438.409 123.288 458.795 125.702C465.396 126.483 472.225 127.291 479.064 127.961C495.182 129.537 536.023 131.568 567.069 116.407C579.921 110.132 588.916 103.525 597.615 97.136C609.091 88.7067 619.929 80.7442 637.011 76.3299C669.556 67.8836 718.601 79.8754 744.939 87.7754C762.397 93.0118 777.075 100.014 791.271 106.785C801.199 111.522 811.465 116.419 822.676 120.718C848.846 130.753 886.451 141.171 916.953 133.82C943.048 127.53 955.702 111.54 969.1 94.6102C973.934 88.5012 978.933 82.184 984.696 76.1413C1018.41 40.7929 1090.95 19.9738 1136.89 32.4637L1134.39 37.3371C1091.94 25.7993 1022.05 46.0969 990.576 79.1055C984.987 84.9674 980.063 91.1883 975.302 97.2037C961.205 115.017 947.889 131.843 919.207 138.757C886.31 146.686 846.742 135.827 819.34 125.318C807.829 120.904 797.418 115.938 787.349 111.135C772.792 104.191 759.043 97.6316 742.213 92.5838C716.823 84.9674 669.704 73.3658 639.413 81.2294C623.866 85.2483 614.057 92.4538 602.7 100.796C594.171 107.06 584.505 114.161 571.059 120.727C537.982 136.879 495.041 134.772 478.112 133.117C471.175 132.439 464.298 131.625 457.646 130.837C436.76 128.363 417.03 126.024 394.069 127.333C369.518 128.727 345.183 137.336 321.648 145.661C294.843 155.139 267.228 164.905 237.885 164.906Z" fill="#E4D8FF"/>
<path d="M243.137 165.146C239.437 165.146 235.711 164.99 231.953 164.656C211.716 162.857 194.292 155.504 177.442 148.394C166.741 143.879 155.676 139.21 144.106 136.086C114.137 127.993 72.3819 133.369 57.9913 154.267L51.5938 151.938C68.2271 127.781 113.856 122.367 146.595 131.209C158.736 134.487 170.07 139.27 181.032 143.894C198.007 151.055 214.039 157.821 232.823 159.489C263.972 162.257 293.98 151.673 322.997 141.434C346.155 133.264 370.102 124.815 394.787 123.022C418.567 121.298 439.493 123.048 459.731 124.742C466.003 125.267 472.488 125.81 478.995 126.245C494.866 127.307 535.155 128.194 566.449 113.532C578.736 107.775 588.11 101.743 596.382 96.4207C609.497 87.9823 620.822 80.6949 638.908 76.8671C662.585 71.8285 699.081 76.0646 747.379 89.4585C764.894 94.3163 779.644 100.832 793.91 107.133C803.738 111.474 813.902 115.964 824.993 119.933C863.729 133.797 895.445 138.154 919.257 132.881C945.563 127.056 958.745 111.599 972.701 95.2359C977.458 89.6562 982.378 83.8866 987.951 78.316C1021.79 44.488 1092.4 23.6156 1136.09 34.5252L1133.76 39.4455C1093.42 29.3721 1025.37 49.7504 993.736 81.3777C988.318 86.7935 983.468 92.4798 978.778 97.9789C964.092 115.199 950.221 131.465 921.339 137.86C895.733 143.532 862.251 139.071 821.832 124.604C810.457 120.533 800.157 115.982 790.195 111.582C775.559 105.117 761.737 99.0103 744.829 94.3215C698.024 81.3426 663.062 77.1507 640.911 81.8628C624.362 85.3667 613.593 92.2952 601.121 100.319C592.66 105.764 583.068 111.936 570.321 117.907C537.156 133.446 494.947 132.54 478.338 131.428C471.75 130.987 465.223 130.441 458.911 129.913C438.134 128.174 418.51 126.53 395.497 128.203C372.078 129.903 348.714 138.146 326.12 146.119C299.555 155.49 272.185 165.146 243.137 165.146Z" fill="#DED0FF"/>
<path d="M248.352 165.393C244.561 165.393 240.74 165.227 236.889 164.873C216.387 162.985 198.91 155.317 182.008 147.904C171.331 143.219 160.288 138.376 148.697 135.115C118.504 126.622 75.9623 131.806 60.7616 153.065L54.4141 150.664C71.9346 126.16 118.333 120.995 151.278 130.262C163.449 133.687 174.761 138.65 185.702 143.448C202.716 150.911 218.786 157.962 237.787 159.711C268.736 162.561 298.612 152.044 327.499 141.872C349.662 134.067 372.579 125.996 396.033 123.911C419.876 121.791 440.724 122.79 460.884 123.758C466.743 124.039 472.805 124.329 478.891 124.543C511.911 125.694 543.588 120.643 565.798 110.664C577.142 105.567 586.207 100.457 594.205 95.9491C608.776 87.7356 621.36 80.642 640.78 77.4217C670.153 72.5105 712.366 81.6097 749.784 91.1524C767.377 95.6395 782.22 101.668 796.574 107.499C806.286 111.443 816.327 115.521 827.275 119.161C867.336 132.478 898.167 136.663 921.529 131.953C948.112 126.593 961.232 112.329 976.426 95.8125C981.057 90.7791 985.844 85.5753 991.178 80.5002C1025.14 48.1888 1093.79 27.2643 1135.23 36.5937L1133.11 41.5634C1094.87 32.948 1028.65 53.4056 996.86 83.6582C991.664 88.6032 986.939 93.7393 982.371 98.7051C967.05 115.36 952.579 131.091 923.437 136.966C898.387 142.019 865.955 137.741 824.297 123.892C813.086 120.165 802.916 116.035 793.081 112.04C778.342 106.054 764.422 100.4 747.411 96.0609C713.091 87.3077 670.134 77.8522 642.37 82.4928C624.489 85.4595 613.056 91.9028 598.583 100.062C590.446 104.649 581.222 109.848 569.554 115.09C537.505 129.492 498.776 130.453 478.542 129.741C472.393 129.525 466.3 129.232 460.408 128.95C439.667 127.955 420.073 127.016 396.897 129.076C374.623 131.057 353.245 138.585 330.612 146.555C304.265 155.835 277.123 165.393 248.352 165.393Z" fill="#DACAFF"/>
<path d="M253.57 165.639C249.689 165.639 245.781 165.463 241.838 165.087C221.076 163.109 203.55 155.129 186.604 147.412C175.943 142.558 164.92 137.539 153.302 134.14C122.887 125.245 79.5656 130.239 63.5474 151.855L57.25 149.386C75.663 124.536 122.832 119.617 155.972 129.312C168.18 132.882 179.477 138.026 190.401 143.001C207.449 150.765 223.552 158.096 242.768 159.927C273.547 162.858 303.299 152.397 332.071 142.278C353.217 134.841 375.082 127.15 397.29 124.799C421.369 122.25 441.333 122.473 462.472 122.71C467.85 122.77 473.265 122.831 478.792 122.844C497.91 122.921 534.517 120.993 565.16 107.796C574.999 103.558 583.291 99.4497 590.608 95.8235C607.824 87.2914 621.424 80.5516 642.668 77.9815C672.696 74.3125 716.156 84.4404 751.077 92.5824L752.202 92.8451C769.899 96.9707 784.87 102.514 799.346 107.875C808.911 111.418 818.802 115.081 829.567 118.385C857.92 127.089 894.253 136.391 923.819 131.022C950.76 126.129 964.478 112.314 980.366 96.3165C984.805 91.8462 989.394 87.2251 994.423 82.6768C1028.48 51.878 1095.19 30.8989 1134.37 38.6584L1132.49 43.6775C1096.33 36.5189 1031.94 57.0531 999.998 85.9375C995.085 90.3817 990.549 94.9469 986.164 99.3625C970.151 115.486 955.027 130.715 925.552 136.07C893.933 141.811 856.161 132.197 826.784 123.178C815.783 119.801 805.776 116.095 796.098 112.511C781.219 107.001 767.167 101.796 750.018 97.7979L748.893 97.5352C714.712 89.5675 672.168 79.6515 643.849 83.1112C624.152 85.4953 611.771 91.6303 594.635 100.122C587.231 103.791 578.839 107.951 568.805 112.271C536.687 126.103 498.663 128.112 478.77 128.045C473.213 128.032 467.769 127.971 462.361 127.91C441.517 127.677 421.831 127.456 398.32 129.944C377.203 132.18 356.792 139.359 335.185 146.959C309.028 156.163 282.085 165.639 253.57 165.639Z" fill="#D4C0FF"/>
<path d="M258.803 165.89C254.834 165.89 250.836 165.704 246.805 165.308C225.79 163.237 208.223 154.946 191.235 146.927C180.588 141.902 169.58 136.706 157.927 133.171C127.297 123.876 83.1898 128.681 66.3507 150.648L60.1016 148.116C78.8025 123.722 127.209 118.211 160.682 128.369C172.931 132.085 184.215 137.412 195.129 142.562C212.208 150.624 228.338 158.238 247.766 160.151C278.385 163.164 308.045 152.742 336.722 142.659C356.825 135.59 377.611 128.282 398.561 125.695C423.226 122.649 443.496 122.113 464.956 121.544C469.487 121.425 474.055 121.304 478.707 121.157C497.51 120.565 533.665 117.67 564.54 104.935C572.015 101.853 578.739 98.8926 584.674 96.2809C605.625 87.0582 620.763 80.3951 644.576 78.5586C671.228 76.4711 708.077 84.4686 740.591 91.5245C745.385 92.565 750.083 93.5834 754.635 94.5472C772.484 98.3203 786.954 103.157 802.271 108.279C811.646 111.414 821.34 114.654 831.871 117.619C864.342 126.764 898.235 134.604 926.127 130.101C953.527 125.678 967.916 112.268 984.574 96.7413C988.738 92.8603 993.045 88.8465 997.688 84.8627C1031.83 55.5739 1096.56 34.5402 1133.52 40.7325L1131.91 45.801C1097.81 40.0887 1035.23 60.7036 1003.15 88.2261C998.597 92.1293 994.336 96.1014 990.215 99.9409C973.435 115.58 957.587 130.351 927.678 135.18C897.931 139.983 862.807 131.91 829.287 122.472C818.55 119.448 808.756 116.174 799.282 113.007C784.212 107.97 769.979 103.211 752.637 99.5442C748.069 98.5778 743.355 97.5555 738.545 96.5111C706.677 89.5957 670.552 81.7555 645.336 83.7325C623.102 85.448 609.288 91.5284 588.378 100.733C582.404 103.363 575.631 106.344 568.069 109.463C535.89 122.736 498.461 125.744 479.014 126.357C474.344 126.504 469.76 126.625 465.214 126.745C443.997 127.307 423.956 127.837 399.755 130.826C379.808 133.29 360.39 140.117 339.832 147.345C313.85 156.48 287.088 165.889 258.803 165.89Z" fill="#D0BBFF"/>
<path d="M264.02 166.135C259.965 166.136 255.882 165.94 251.763 165.521C230.497 163.358 212.893 154.756 195.868 146.438C185.231 141.242 174.233 135.868 162.545 132.195C131.706 122.505 86.8151 127.121 69.1462 149.437L62.9453 146.841C82.5191 122.122 131.715 116.841 165.384 127.419C177.676 131.282 188.953 136.791 199.858 142.12C216.963 150.477 233.119 158.371 252.754 160.369C283.241 163.469 312.829 153.064 341.435 142.998C360.468 136.301 380.148 129.377 399.823 126.585C425.875 122.89 447.055 121.518 469.478 120.065C472.491 119.87 475.53 119.674 478.61 119.47C497.114 118.242 532.803 114.349 563.914 102.07C567.713 100.572 571.297 99.1369 574.715 97.77C602.307 86.7368 618.962 80.0763 646.475 79.1372C670.239 78.3035 701.374 84.7871 731.48 91.0627C740.432 92.9291 748.886 94.6901 757.06 96.2431C775.149 99.6806 789.855 104.065 805.426 108.707C814.538 111.423 823.958 114.232 834.166 116.848C861.38 123.822 898.648 133.373 928.432 129.174C956.423 125.226 971.568 112.167 989.106 97.0456C992.889 93.7849 996.801 90.4111 1000.95 87.0385C1035.15 59.2559 1097.89 38.1688 1132.63 42.7977L1131.34 47.9157C1099.29 43.6366 1038.49 64.3387 1006.28 90.5086C1002.2 93.8239 998.325 97.1678 994.576 100.4C976.93 115.613 960.263 129.984 929.795 134.281C898.104 138.754 859.776 128.927 831.789 121.755C821.412 119.096 811.906 116.262 802.712 113.521C787.37 108.948 772.878 104.628 755.252 101.278C746.996 99.7092 738.502 97.9391 729.511 96.0649C699.963 89.9064 669.415 83.5346 646.818 84.3358C620.956 85.219 604.85 91.6597 578.164 102.33C574.737 103.701 571.138 105.139 567.329 106.643C535.09 119.368 498.313 123.387 479.261 124.651C476.176 124.856 473.132 125.053 470.113 125.25C447.879 126.689 426.882 128.05 401.193 131.694C382.43 134.355 364.031 140.83 344.552 147.683C318.715 156.772 292.105 166.134 264.02 166.135Z" fill="#C9B1FF"/>
<path d="M269.212 166.382C265.071 166.383 260.904 166.178 256.699 165.735C235.19 163.476 217.552 154.567 200.494 145.952C189.865 140.583 178.873 135.03 167.143 131.221C136.094 121.136 90.4224 125.562 71.9182 148.225L65.7656 145.569C86.214 120.524 136.204 115.475 170.059 126.471C182.401 130.479 193.675 136.173 204.576 141.679C221.705 150.331 237.884 158.504 257.722 160.587C288.111 163.777 317.645 153.368 346.205 143.298C364.136 136.976 382.678 130.438 401.061 127.48C431.235 122.625 455.257 120.165 478.488 117.789C496.697 115.925 531.923 111.034 563.267 99.2044C597.637 86.2332 617.059 79.4596 648.351 79.7262C669.531 79.8706 696.867 85.4919 723.305 90.9298C735.433 93.4231 747.972 96.0022 759.464 97.9441C777.95 101.066 793.024 105.013 808.985 109.192C817.7 111.473 826.713 113.833 836.437 116.079L842.196 117.416C869.305 123.726 903.044 131.583 930.72 128.249C959.469 124.785 975.496 112.004 994.054 97.2027C997.312 94.6028 1000.68 91.9157 1004.2 89.2143C1038.43 62.9364 1099.21 41.8051 1131.7 44.8681L1130.78 50.0277C1100.71 47.1819 1041.72 67.9711 1009.39 92.7923C1005.92 95.4573 1002.57 98.1275 999.339 100.708C979.885 116.224 963.083 129.623 931.888 133.382C902.509 136.92 867.856 128.853 840.014 122.371L834.271 121.038C824.416 118.761 815.339 116.384 806.561 114.086C790.804 109.961 775.924 106.065 757.845 103.011C746.189 101.042 733.566 98.4461 721.359 95.9359C695.375 90.5929 668.508 85.0666 648.279 84.93C618.57 84.6907 600.817 90.896 566.563 103.824C534.273 116.01 498.146 121.033 479.484 122.942C456.389 125.305 432.507 127.749 402.606 132.562C385.043 135.388 367.692 141.505 349.324 147.98C323.61 157.045 297.127 166.38 269.212 166.382Z" fill="#C3A9FF"/>
<path d="M274.426 166.632C270.205 166.632 265.954 166.417 261.665 165.952C239.914 163.595 222.247 154.38 205.161 145.468C194.535 139.926 183.547 134.194 171.771 130.247C140.518 119.77 94.0627 124.006 74.7215 147.012L68.6172 144.299C89.9419 118.93 140.718 114.109 174.767 125.523C187.163 129.678 198.433 135.557 209.332 141.242C226.481 150.188 242.681 158.636 262.72 160.808C293.032 164.089 322.55 153.65 351.09 143.552C367.884 137.61 385.251 131.465 402.326 128.378C430.69 123.249 452.729 119.697 478.394 116.117C496.304 113.62 531.065 107.729 562.648 96.3421C596.961 83.9731 617.742 78.7264 650.251 80.3248C669.032 81.2275 691.779 85.9539 715.863 90.9575C731.304 94.1648 747.272 97.4827 761.895 99.6469C781.093 102.489 796.793 106.03 813.412 109.779C821.467 111.597 829.798 113.475 838.732 115.314C842.515 116.092 846.421 116.926 850.424 117.779C877.069 123.459 907.269 129.896 933.035 127.329C962.767 124.367 979.025 112.363 999.611 97.1653C1002.17 95.2729 1004.79 93.3441 1007.48 91.3932C1041.7 66.6214 1100.45 45.4277 1130.77 46.9482L1130.28 52.1377C1102.19 50.733 1044.96 71.6054 1012.53 95.0804C1009.85 97.0184 1007.26 98.9355 1004.71 100.816C984.022 116.089 966.156 129.28 934.009 132.484C906.725 135.203 875.748 128.599 848.415 122.772C844.434 121.924 840.549 121.096 836.788 120.322C827.767 118.466 819.393 116.577 811.296 114.75C794.852 111.04 779.321 107.537 760.471 104.747C745.576 102.542 729.472 99.1969 713.9 95.961C690.194 91.0355 667.804 86.3845 649.777 85.5182C618.921 83.9978 598.945 89.0676 565.828 101.006C533.485 112.666 498.011 118.68 479.744 121.228C454.215 124.789 432.286 128.324 404.054 133.428C387.706 136.383 371.443 142.138 354.221 148.232C328.593 157.297 302.207 166.632 274.426 166.632Z" fill="#BDA2FF"/>
<path d="M279.634 166.886C275.331 166.886 270.995 166.661 266.624 166.172C244.64 163.716 226.946 154.197 209.835 144.992C199.209 139.276 188.22 133.363 176.394 129.279C144.939 118.411 97.7005 122.457 77.5187 145.804L71.4609 143.035C93.6692 117.349 145.231 112.753 179.465 124.58C191.917 128.883 203.188 134.946 214.09 140.811C231.258 150.046 247.474 158.771 267.71 161.03C297.99 164.417 327.519 153.911 356.071 143.755C371.686 138.2 387.835 132.455 403.581 129.281C411.667 127.651 419.192 126.106 426.387 124.627C444.711 120.863 460.536 117.613 478.292 114.455C495.904 111.323 530.199 104.433 562.022 93.486C598.036 81.0975 619.933 78.0476 652.138 80.9363C668.659 82.3982 688.261 86.5966 709.015 91.0421C727.535 95.0091 746.687 99.1112 764.318 101.355C785.005 103.989 801.955 107.206 819.899 110.613C826.647 111.894 833.626 113.219 841.02 114.554C846.607 115.562 852.343 116.69 858.417 117.884C883.238 122.766 911.366 128.297 935.349 126.413C966.369 123.974 983.851 111.999 1005.98 96.839C1007.55 95.7621 1009.15 94.6735 1010.76 93.5719C1044.94 70.3089 1101.67 49.0813 1129.79 49.0371L1129.8 54.2396C1103.64 54.2812 1048.16 75.2421 1015.65 97.3697C1014.04 98.4674 1012.45 99.5534 1010.89 100.625C988.692 115.827 969.526 128.957 936.116 131.584C910.803 133.577 881.977 127.907 856.548 122.906C850.512 121.719 844.808 120.598 839.294 119.601C831.859 118.259 824.86 116.93 818.091 115.645C800.291 112.266 783.481 109.074 763.084 106.478C745.052 104.182 725.704 100.039 706.992 96.0301C686.53 91.6469 667.204 87.5083 651.267 86.0972C620.615 83.3463 599.673 86.2857 565.081 98.1865C532.687 109.33 497.864 116.328 479.989 119.506C462.356 122.642 446.587 125.881 428.328 129.632C421.122 131.112 413.586 132.66 405.488 134.292C390.38 137.338 375.238 142.724 359.21 148.426C333.648 157.522 307.324 166.886 279.634 166.886Z" fill="#B799FF"/>
<path d="M284.843 167.131C280.459 167.131 276.045 166.894 271.59 166.382C249.374 163.825 231.655 154.004 214.523 144.505C203.894 138.614 192.903 132.521 181.026 128.298C149.367 117.04 101.352 120.898 80.322 144.581L74.3125 141.759C97.4025 115.755 149.758 111.388 184.168 123.624C196.679 128.072 207.956 134.323 218.86 140.368C236.044 149.894 252.275 158.892 272.708 161.243C303.005 164.734 332.574 154.133 361.17 143.884C376.226 138.487 390.447 133.392 404.843 130.175C418.54 127.115 430.501 124.171 442.068 121.324C454.228 118.332 465.712 115.504 478.2 112.788C495.5 109.024 529.314 101.14 561.408 90.6179C600.119 77.9264 623.822 77.6363 654.027 81.5421C668.389 83.3838 685.06 87.127 702.709 91.0913C724.091 95.8932 746.199 100.859 766.751 103.056C791.725 105.723 811.356 108.793 834.084 112.346L843.313 113.786C850.634 114.924 858.219 116.312 866.25 117.78C890.407 122.2 915.382 126.768 937.673 125.489C970.394 123.611 989.426 111.464 1013.52 96.0857L1014.06 95.7424C1048.12 74.0011 1102.8 52.7397 1128.78 51.1348L1129.38 56.3178C1105.08 57.82 1051.33 78.8797 1018.78 99.652L1018.24 99.9954C993.146 116.01 973.327 128.661 938.236 130.675C914.792 132.029 888.073 127.137 864.506 122.825C856.54 121.369 849.015 119.993 841.82 118.873L832.582 117.432C809.977 113.898 790.453 110.845 765.712 108.202C744.617 105.948 722.24 100.921 700.601 96.061C683.171 92.1474 666.708 88.4497 652.782 86.664C623.332 82.8558 601.569 83.1549 564.352 95.36C531.879 106.007 497.722 113.972 480.253 117.772C467.887 120.462 456.462 123.274 444.364 126.252C432.749 129.111 420.739 132.068 406.946 135.149C393.098 138.242 379.127 143.25 364.334 148.55C338.785 157.706 312.483 167.13 284.843 167.131Z" fill="#B08FFF"/>
<path d="M290.046 167.383C285.582 167.384 281.087 167.135 276.551 166.597C254.109 163.936 236.37 153.814 219.214 144.027C208.581 137.96 197.586 131.687 185.652 127.325C149.903 114.255 102.947 121.603 83.121 143.365L77.1562 140.492C98.8816 116.644 150.039 108.485 188.865 122.676C201.438 127.271 212.72 133.709 223.63 139.934C240.831 149.747 257.076 159.017 277.701 161.462C308.053 165.062 337.714 154.326 366.397 143.943C380.116 138.976 393.076 134.284 406.095 131.08C421.492 127.289 434.654 123.451 447.382 119.741C457.707 116.731 467.46 113.887 478.101 111.136C495.037 106.756 528.298 97.8966 560.784 87.7569C598.574 75.9629 623.368 76.6925 655.9 82.1603C668.196 84.2153 682.139 87.5436 696.904 91.0683C719.813 96.5375 745.781 102.736 769.177 104.763C797.094 107.18 818.521 109.497 845.597 113.027C854.617 114.203 864.012 115.815 873.96 117.523C896.274 121.353 919.355 125.316 939.989 124.571C972.333 123.408 991.619 113.262 1017.35 97.9148C1051.21 77.7226 1103.81 56.4365 1127.71 53.2578L1129 58.3758C1106.46 61.375 1054.4 82.5453 1021.89 101.939C995.876 117.453 974.799 128.529 940.341 129.768C918.677 130.54 895.111 126.5 872.315 122.588C862.465 120.897 853.161 119.3 844.331 118.149C817.405 114.638 796.096 112.334 768.329 109.929C744.223 107.841 717.898 101.557 694.67 96.012C680.067 92.525 666.273 89.2331 654.29 87.2315C623.234 82.0108 599.584 81.3084 563.604 92.538C530.935 102.735 497.511 111.638 480.494 116.036C469.985 118.753 460.298 121.578 450.041 124.569C437.224 128.307 423.97 132.171 408.386 136.008C395.827 139.099 383.078 143.714 369.58 148.6C344.018 157.854 317.695 167.381 290.046 167.383Z" fill="#A985FF"/>
<path d="M295.217 167.638C290.673 167.638 286.096 167.378 281.478 166.815C258.813 164.048 241.057 153.629 223.885 143.554C213.243 137.311 202.242 130.854 190.248 126.354C154.279 112.854 106.489 120.087 85.8888 142.151L79.9688 139.228C102.499 115.097 154.501 107.085 193.528 121.731C206.166 126.473 217.457 133.099 228.378 139.505C245.589 149.605 261.847 159.142 282.662 161.685C313.147 165.406 342.941 154.477 371.756 143.909C384.074 139.391 395.71 135.125 407.314 131.989C423.414 127.639 436.982 123.033 450.105 118.58C459.462 115.404 468.301 112.403 477.975 109.491C501.185 102.504 531.499 93.3956 560.13 84.8999C597.305 73.8706 623.112 75.6486 657.73 82.7877C668.047 84.9038 679.472 87.8329 691.568 90.9348C716.8 97.4042 745.399 104.736 771.571 106.476C777.042 106.84 782.263 107.174 787.321 107.5C808.145 108.834 826.126 109.988 847.846 112.274C858.386 113.385 869.375 115.297 881.01 117.322C901.664 120.916 923.019 124.634 942.101 123.668C975.292 121.987 996.025 113.752 1020.62 100.095C1053.45 81.8643 1104.94 60.1555 1126.57 55.4238L1128.63 60.4052C1107.64 64.9964 1057.26 86.2955 1024.96 104.231C999.287 118.487 977.58 127.087 942.598 128.859C922.423 129.881 900.524 126.069 879.344 122.383C867.873 120.386 857.04 118.502 846.822 117.425C825.3 115.158 807.409 114.011 786.693 112.683C781.626 112.357 776.398 112.023 770.92 111.658C743.863 109.859 714.815 102.413 689.189 95.8421C677.204 92.77 665.884 89.867 655.784 87.7951C621.951 80.8186 598.288 79.2006 562.832 89.7188C534.216 98.2093 503.914 107.315 480.71 114.299C471.182 117.167 462.413 120.143 453.131 123.294C439.879 127.792 426.178 132.443 409.805 136.866C398.573 139.901 387.111 144.106 374.977 148.555C349.335 157.957 322.941 167.638 295.217 167.638Z" fill="#A47CFF"/>
<path d="M300.102 167.867C295.57 167.869 291.022 167.605 286.459 167.031C263.575 164.155 245.802 153.441 228.614 143.079C217.963 136.659 206.951 130.02 194.898 125.381C158.711 111.451 110.082 118.572 88.7095 140.934L82.8359 137.965C106.171 113.553 159.022 105.686 198.245 120.785C210.949 125.675 222.251 132.486 233.178 139.075C250.402 149.458 266.671 159.266 287.677 161.907C318.359 165.764 348.355 154.578 377.36 143.76C388.198 139.718 398.434 135.901 408.584 132.9C424.983 128.054 438.651 122.733 451.868 117.588C460.219 114.336 468.854 110.974 477.907 107.851C498.231 100.841 528.888 90.6726 559.529 82.0443C600.031 70.6365 628.815 75.9183 659.607 83.4177C668.032 85.4623 677.149 87.9894 686.8 90.6648C714.153 98.2501 745.156 106.845 774.019 108.189C784.128 108.66 793.432 108.944 802.428 109.217C818.157 109.696 833.014 110.147 850.15 111.523C862.081 112.48 874.506 114.553 887.661 116.749C906.816 119.945 926.619 123.248 944.447 122.755C975.044 121.906 996.59 116.355 1023.95 102.273C1055.07 86.257 1105.34 64.145 1125.44 57.6328L1128.35 62.3853C1110.6 68.1354 1061.92 89.1041 1028.08 106.519C999.461 121.253 976.866 127.062 944.721 127.954C925.954 128.478 905.672 125.091 886.062 121.82C873.115 119.66 860.885 117.619 849.365 116.694C832.472 115.338 817.735 114.89 802.131 114.416C793.096 114.141 783.752 113.856 773.563 113.383C743.621 111.989 712.08 103.243 684.253 95.5279C674.675 92.872 665.629 90.3644 657.342 88.3536C626.837 80.9244 600.46 76.0978 562.115 86.8969C531.678 95.4693 501.192 105.58 480.977 112.554C472.08 115.623 463.905 118.806 455.248 122.176C441.867 127.387 428.029 132.774 411.281 137.723C401.422 140.636 391.321 144.403 380.627 148.392C355.933 157.598 328.395 167.867 300.102 167.867Z" fill="#9D73FF"/>
<path d="M305.326 168.123C300.713 168.123 296.083 167.847 291.436 167.246C268.335 164.257 250.55 153.25 233.348 142.606C222.686 136.009 211.662 129.187 199.546 124.408C163.146 110.051 113.681 117.06 91.5259 139.715L85.6953 136.7C109.837 112.01 163.534 104.286 202.957 119.836C215.731 124.874 227.043 131.874 237.984 138.644C255.218 149.309 271.496 159.383 292.688 162.124C323.674 166.134 353.938 154.607 383.199 143.458C392.463 139.929 401.213 136.594 409.851 133.811C426.345 128.495 439.963 122.488 453.132 116.678C461.05 113.186 469.236 109.574 477.843 106.213C497.735 98.4457 527.948 87.4502 558.924 79.1848C599.275 68.4169 629.239 75.0163 661.468 84.0478C664.244 84.823 667.104 85.6268 670.035 86.4514C701.53 95.3086 740.724 106.33 776.814 109.922C791.708 111.404 804.687 111.055 818.428 110.687C829.208 110.397 840.352 110.098 852.448 110.768C866.565 111.55 881.977 113.892 896.881 116.159C913.716 118.719 931.126 121.365 946.963 121.839C976.533 122.719 999.052 117.845 1027.28 104.444C1053.44 92.0285 1089.48 75.6874 1111.01 65.9223C1116.41 63.4719 1120.96 61.4104 1124.29 59.8926L1128.09 64.3004C1124.76 65.8208 1120.21 67.8836 1114.79 70.3379C1093.29 80.0913 1057.29 96.4142 1031.19 108.801C1006.49 120.525 982.68 128.103 946.668 127.037C930.239 126.546 912.534 123.855 895.414 121.251C880.058 118.916 865.554 116.71 851.903 115.955C840.211 115.308 829.272 115.602 818.691 115.886C805.247 116.245 791.35 116.619 775.843 115.076C738.922 111.4 699.296 100.256 667.454 91.3027C664.528 90.4794 661.674 89.6769 658.898 88.9017C626.94 79.9456 599.468 73.9042 561.387 84.0673C530.805 92.2287 500.915 103.107 481.227 110.796C472.785 114.092 465.04 117.509 456.842 121.126C443.479 127.022 429.663 133.117 412.747 138.567C404.323 141.282 395.674 144.578 386.516 148.066C361.627 157.549 333.874 168.122 305.326 168.123Z" fill="#9669FF"/>
<path d="M310.51 168.384C305.813 168.384 301.095 168.095 296.361 167.464C273.051 164.361 255.253 153.064 238.038 142.137C227.364 135.362 216.327 128.357 204.144 123.437C167.531 108.652 117.225 115.548 94.2937 138.497L88.5078 135.438C113.456 110.471 168.001 102.892 207.617 118.888C220.462 124.074 231.789 131.264 242.744 138.217C259.987 149.162 276.276 159.499 297.65 162.346C329.082 166.533 361.074 154.01 389.295 142.964C396.866 140 404.015 137.201 411.063 134.73C427.539 128.954 441.027 122.279 454.07 115.823C461.645 112.074 469.477 108.197 477.734 104.584C497.247 96.0428 527.059 84.2071 558.27 76.3292C598.745 66.1141 628.533 73.6994 663.268 84.6819L663.538 84.7664C695.487 94.8411 739.244 108.638 779.187 111.63C793.882 112.731 806.716 111.916 820.304 111.055C831.196 110.363 842.46 109.646 854.692 110.022C870.56 110.505 887.826 113.098 904.526 115.607C919.526 117.86 935.036 120.19 949.252 120.934C980.365 122.563 1003.17 118.549 1030.57 106.622C1064.96 91.6571 1109.07 71.0097 1123.1 62.2188L1127.77 66.1596C1113.44 75.1392 1068.89 96.009 1034.24 111.086C1005.82 123.454 981.054 127.812 948.737 126.122C934.051 125.355 918.305 122.989 903.077 120.701C886.656 118.235 869.678 115.685 854.391 115.219C842.621 114.864 831.589 115.561 820.922 116.238C807.6 117.083 793.828 117.956 778.45 116.805C737.408 113.731 693.067 99.7483 660.689 89.5397L660.416 89.4539C627.129 78.9292 598.645 71.6431 560.612 81.243C529.981 88.9752 500.64 100.626 481.419 109.04C473.333 112.579 465.585 116.415 458.091 120.123C444.831 126.686 431.12 133.471 414.166 139.415C407.263 141.835 400.18 144.607 392.682 147.542C367.514 157.399 339.448 168.382 310.51 168.384Z" fill="#9365FF"/>
<path d="M315.764 168.639C310.978 168.639 306.169 168.336 301.338 167.673C277.82 164.45 260.01 152.865 242.786 141.66C232.098 134.707 221.045 127.517 208.794 122.458C171.973 107.252 120.828 114.033 97.112 137.269L91.3672 134.169C117.126 108.93 172.518 101.496 212.326 117.934C225.243 123.27 236.586 130.648 247.555 137.783C264.807 149.005 281.102 159.606 302.66 162.56C334.73 166.951 367.197 153.798 395.844 142.19C401.571 139.868 406.981 137.677 412.324 135.642C428.703 129.407 442.015 122.078 454.889 114.99C462.179 110.976 469.716 106.826 477.682 102.95C496.83 93.6309 526.248 80.9511 557.664 73.4673C598.373 63.7672 629.13 72.6687 665.108 85.3121C700.838 97.841 742.253 111.373 781.603 113.334C797.018 114.101 810.454 112.818 824.678 111.456C834.894 110.478 845.459 109.467 856.875 109.272C874.98 108.961 894.543 112.045 913.475 115.026C926.226 117.034 939.411 119.11 951.591 120.023C983.838 122.44 1007.69 119.187 1033.91 108.795C1066 96.08 1110.07 74.7991 1122 64.5918L1127.45 67.9604C1114.83 78.7634 1070.66 100.159 1037.34 113.364C1009.73 124.304 984.675 127.731 950.857 125.198C938.286 124.257 924.904 122.15 911.962 120.112C893.44 117.194 874.303 114.173 857.043 114.473C846.012 114.662 835.642 115.654 825.611 116.614C811.666 117.949 797.245 119.33 781.114 118.524C740.495 116.499 698.33 102.737 661.998 89.9956C627.49 77.8686 598.061 69.3157 559.89 78.4097C529.247 85.7101 500.434 98.135 481.66 107.272C473.867 111.063 466.414 115.168 459.207 119.136C446.1 126.352 432.547 133.815 415.641 140.251C410.381 142.254 405.012 144.428 399.326 146.733C373.766 157.092 345.27 168.638 315.764 168.639Z" fill="#8F5FFF"/>
<path d="M321.019 168.905C316.135 168.905 311.22 168.585 306.278 167.888C282.559 164.542 264.739 152.672 247.507 141.191C236.802 134.06 225.733 126.686 213.41 121.485C176.379 105.857 124.397 112.524 99.8972 136.048L94.1953 132.907C120.766 107.397 177.003 100.106 217.003 116.985C229.997 122.468 241.356 130.037 252.341 137.355C269.601 148.854 285.905 159.715 307.641 162.78C340.597 167.429 373.702 153.409 402.909 141.039C406.538 139.501 410.09 137.998 413.553 136.567C429.78 129.868 442.887 121.896 455.564 114.186C462.607 109.903 469.892 105.472 477.606 101.325C496.389 91.2287 525.413 77.7048 557.026 70.6125C598.132 61.3897 629.789 71.6192 666.908 85.9495L672.858 88.2516C705.088 100.735 745.203 116.276 783.71 115.05C796.713 114.637 808.669 113.202 820.23 111.814C832.569 110.332 845.33 108.8 859.249 108.531C878.749 108.156 899.788 111.394 920.116 114.527C931.906 116.344 943.042 118.061 953.9 119.123C987.673 122.428 1011.82 120.071 1037.24 110.979C1068.75 99.7062 1110.88 78.8741 1120.94 67.0059L1127.03 69.7359C1116.17 82.547 1073.47 103.817 1040.39 115.647C1013.59 125.236 988.256 127.739 952.945 124.279C941.822 123.19 930.034 121.373 918.634 119.616C898.713 116.545 878.129 113.381 859.44 113.732C846.012 113.991 834.056 115.427 821.396 116.946C809.624 118.359 797.453 119.82 784.023 120.247C743.565 121.533 702.494 105.624 669.496 92.8428L663.556 90.5459C627.921 76.7892 597.604 66.9525 559.136 75.5848C528.486 82.4625 500.195 95.6548 481.859 105.511C474.317 109.565 467.118 113.943 460.155 118.178C447.234 126.036 433.876 134.161 417.085 141.092C413.646 142.512 410.117 144.007 406.51 145.534C380.417 156.585 351.328 168.905 321.019 168.905Z" fill="#8754FF"/>
<path d="M325.977 169.144C321.078 169.144 316.162 168.816 311.238 168.102C287.321 164.631 269.493 152.476 252.254 140.724C241.531 133.413 230.444 125.855 218.048 120.512C180.811 104.464 127.988 111.016 102.702 134.826L97.0391 131.646C124.422 105.863 181.504 98.7163 221.695 116.037C234.765 121.67 246.142 129.427 257.147 136.929C274.415 148.701 290.725 159.82 312.64 163.001C346.883 167.973 382.311 152.074 410.773 139.301L414.799 137.497C430.832 130.325 443.72 121.72 456.186 113.396C463.011 108.839 470.07 104.126 477.557 99.7048C504.353 83.8866 530.883 73.1395 556.407 67.7601C601.342 58.2876 638.701 73.981 668.718 86.588L670.666 87.4048C704.041 101.411 745.6 118.844 786.142 116.772C799.272 116.102 811.389 114.179 823.108 112.321C835.265 110.393 847.834 108.398 861.535 107.793C882.983 106.853 905.914 110.521 928.09 114.073C937.882 115.641 947.132 117.123 956.23 118.226C986.054 121.838 1011.81 122.36 1040.58 113.162C1071.66 103.232 1112.22 82.4169 1119.99 69.4262L1126.55 71.5007C1117.89 85.978 1075.81 107.588 1043.46 117.925C1011.28 128.212 981.95 126.615 955.055 123.357C945.775 122.233 936.002 120.667 926.55 119.153C904.853 115.678 882.418 112.083 861.967 112.987C848.82 113.567 837.071 115.431 824.632 117.404C812.665 119.301 800.29 121.265 786.643 121.961C743.888 124.136 701.309 106.27 667.089 91.9114L665.141 91.0933C628.46 75.6874 597.309 64.5554 558.397 72.7571C533.798 77.9414 508.114 88.3672 482.066 103.743C474.748 108.064 467.77 112.723 461.024 117.228C448.311 125.717 435.165 134.495 418.548 141.928L414.533 143.728C388.928 155.217 357.897 169.144 325.977 169.144Z" fill="#7D4AF4"/>
<path d="M331.35 169.428C326.311 169.428 321.253 169.077 316.174 168.317C292.066 164.713 274.231 152.28 256.984 140.257C246.24 132.768 235.132 125.025 222.66 119.54C185.215 103.071 131.554 109.513 105.483 133.603L99.8594 130.386C128.054 104.334 185.985 97.3303 226.363 115.088C239.512 120.87 250.91 128.817 261.935 136.501C279.208 148.544 295.525 159.919 317.614 163.22C350.891 168.198 384.475 153.699 416.017 138.426C431.817 130.776 444.478 121.544 456.721 112.615C463.351 107.781 470.206 102.78 477.489 98.0821C503.756 81.1349 530.088 69.9729 555.759 64.9057C601.386 55.8989 639.704 73.2674 670.49 87.2245C702.405 101.677 746.117 121.47 788.55 118.494C801.749 117.567 813.977 115.154 825.805 112.819C837.826 110.446 850.254 107.992 863.792 107.059C887.246 105.446 912.125 109.654 936.186 113.726C943.939 115.038 951.262 116.278 958.532 117.33C989.619 121.826 1016.03 123.21 1043.91 115.352C1074.67 106.681 1113.36 86.2269 1119.08 71.8341L1125.96 73.2804C1119.48 89.5578 1078.88 111.073 1046.5 120.202C1017.01 128.514 989.449 127.106 957.137 122.431C949.754 121.363 942.033 120.056 934.566 118.793C911.064 114.815 886.764 110.702 864.469 112.239C851.54 113.13 839.952 115.418 827.681 117.841C815.569 120.233 803.042 122.706 789.238 123.675C786.099 123.894 782.953 124 779.816 124C738.158 124.001 697.197 105.449 666.709 91.6427C630.352 75.1598 597.055 62.1471 557.637 69.93C533.041 74.7853 507.674 85.5675 482.241 101.977C475.123 106.571 468.344 111.514 461.789 116.293C449.296 125.402 436.38 134.822 419.984 142.76C391.815 156.397 361.996 169.428 331.35 169.428Z" fill="#7643ED"/>
<path d="M336.25 169.663C331.222 169.664 326.184 169.307 321.146 168.531C296.848 164.791 279.009 152.082 261.757 139.793C250.992 132.124 239.862 124.196 227.314 118.568C189.661 101.683 135.161 108.008 108.301 132.382L102.719 129.128C131.722 102.811 190.5 95.9474 231.069 114.141C244.299 120.073 255.719 128.209 266.765 136.077C284.048 148.387 300.37 160.016 322.628 163.442C355.993 168.581 390.736 153.272 417.276 139.364C432.809 131.223 445.24 121.372 457.259 111.845C463.71 106.732 470.381 101.444 477.473 96.4637C503.206 78.3876 529.342 66.8107 555.152 62.0543C598.102 54.1374 633.615 69.0582 672.294 87.8627C710.091 106.221 750.382 123.843 790.996 120.218C804.235 119.037 816.541 116.127 828.441 113.312C840.354 110.495 852.673 107.581 866.086 106.325C891.644 103.931 918.511 108.811 944.493 113.531C950.158 114.559 955.505 115.531 960.867 116.434C988.119 121.022 1017.24 124.888 1047.28 117.54C1077.75 110.089 1114.59 89.9749 1118.28 74.21L1125.34 75.084C1121.11 93.1237 1082.01 114.536 1049.56 122.471C1017.74 130.253 987.499 126.26 959.252 121.502C953.831 120.589 948.203 119.567 942.758 118.578C917.42 113.975 891.222 109.216 866.998 111.485C854.247 112.68 842.785 115.39 830.651 118.26C818.428 121.151 805.789 124.14 791.863 125.382C787.932 125.733 784.006 125.901 780.098 125.901C741.244 125.902 703.678 109.362 668.317 92.1873C631.083 74.0864 596.999 59.708 556.905 67.0956C532.318 71.6269 507.264 82.7668 482.438 100.204C475.502 105.075 468.905 110.304 462.524 115.36C450.26 125.08 437.579 135.131 421.452 143.583C397.591 156.092 367.254 169.662 336.25 169.663Z" fill="#713CEE"/>
<path d="M341.256 169.915C336.058 169.915 330.998 169.526 326.082 168.746C301.645 164.87 283.835 151.909 266.613 139.376C255.798 131.506 244.616 123.367 231.935 117.597C194.127 100.243 138.79 106.453 111.084 131.155L105.539 127.867C135.415 101.23 195.041 94.5111 235.741 113.192C249.098 119.27 260.575 127.621 271.673 135.698C288.925 148.253 305.22 160.111 327.606 163.662C353.382 167.753 383.96 159.891 418.495 140.304C433.728 131.664 445.928 121.197 457.727 111.076C464.014 105.684 470.515 100.106 477.424 94.8441C502.628 75.6417 528.564 63.6499 554.506 59.2017C601.867 51.0819 643.59 72.7074 674.054 88.4983C709.877 107.053 751.587 126.469 793.405 121.945C806.661 120.509 819.022 117.102 830.975 113.806C842.801 110.545 855.031 107.173 868.348 105.595C896.11 102.307 925.012 108.019 952.962 113.543C956.394 114.221 959.799 114.895 963.167 115.542C993.728 121.425 1021.4 125.802 1050.62 119.737C1080.81 113.47 1115.82 93.6722 1117.5 76.556L1124.63 76.9254C1122.7 96.6897 1085.11 117.987 1052.59 124.74C1021.66 131.158 991.775 126.431 961.338 120.573C957.954 119.921 954.534 119.245 951.088 118.565C923.873 113.186 895.73 107.623 869.498 110.731C856.892 112.224 845.537 115.355 833.513 118.672C821.206 122.065 808.479 125.575 794.458 127.092C750.008 131.907 706.861 111.881 669.903 92.7371C631.848 73.0144 597.016 57.2573 556.148 64.2677C531.576 68.4804 506.831 79.9767 482.598 98.4377C475.836 103.59 469.404 109.107 463.184 114.443C451.15 124.765 438.708 135.439 422.893 144.408C392.989 161.37 365.607 169.915 341.256 169.915Z" fill="#6B39E1"/>
<path d="M346.445 170.184C341.351 170.184 336.207 169.803 331.046 168.959C306.417 164.932 288.595 151.697 271.357 138.898C260.525 130.856 249.327 122.54 236.58 116.625C198.556 98.8723 142.376 104.967 113.896 129.931L108.391 126.608C139.062 99.7268 199.533 93.1469 240.438 112.243C253.865 118.475 265.356 127.007 276.468 135.257C293.738 148.08 310.05 160.193 332.616 163.883C367.158 169.53 402.034 152.126 419.748 141.249C434.647 132.101 446.619 121.027 458.2 110.318C464.336 104.643 470.682 98.7734 477.418 93.2237C502.09 72.8988 527.82 60.4921 553.894 56.3509C598.552 49.2573 637.062 67.8107 675.841 89.1345C711.439 108.701 753.004 129.121 795.852 123.673C809.112 121.987 821.512 118.079 833.503 114.299C845.253 110.595 857.406 106.763 870.647 104.868C900.737 100.563 933.122 107.609 961.694 113.827L965.502 114.654C992.589 120.529 1023.29 127.188 1054 121.938C1083.9 116.826 1117.1 97.3206 1116.78 78.8673L1123.93 78.7997C1124.31 100.261 1088.25 121.428 1055.64 127.002C1023.08 132.569 991.402 125.7 963.458 119.641L959.645 118.812C930.509 112.473 900.383 105.918 872.03 109.974C859.546 111.76 847.754 115.479 836.35 119.074C823.977 122.974 811.183 127.009 797.084 128.8C751.405 134.604 708.327 113.512 671.529 93.2861C634.133 72.7219 597.114 54.8136 555.423 61.4364C530.866 65.3369 506.428 77.1909 482.783 96.669C476.182 102.108 469.9 107.917 463.825 113.534C452.024 124.449 439.821 135.735 424.366 145.225C408.208 155.145 378.429 170.182 346.445 170.184Z" fill="#6432D8"/>
<path d="M351.827 170.483C346.629 170.484 341.328 170.078 335.962 169.174C311.152 164.989 293.315 151.483 276.063 138.422C265.213 130.209 253.996 121.714 241.181 115.652C202.94 97.5071 145.918 103.486 116.665 128.707L111.195 125.352C126.559 112.107 149.071 103.348 174.585 100.688C200.046 98.0365 225.08 101.801 245.085 111.294C258.585 117.68 270.092 126.393 281.221 134.818C298.509 147.908 314.838 160.27 337.577 164.106C373.894 170.233 407.985 150.828 420.954 142.199C435.484 132.533 447.238 120.853 458.604 109.56C464.599 103.603 470.798 97.4434 477.368 91.6049C501.508 70.1589 527.032 57.3386 553.232 53.5031C598.85 46.8191 639.676 67.7553 677.571 89.7697C715.622 111.871 756.585 131.485 798.247 125.403C811.506 123.469 823.376 119.255 835.944 114.794C847.632 110.646 859.717 106.355 872.895 104.144C905.381 98.6907 939.982 107.051 967.783 113.766L968.307 113.892C997.361 120.911 1027.4 128.173 1057.33 124.141C1086.94 120.156 1118.33 100.92 1116.03 81.1453L1123.15 80.7057C1125.86 103.836 1091.32 124.858 1058.63 129.258C1026.9 133.527 995.965 126.057 966.049 118.83L965.527 118.703C938.574 112.194 905.034 104.094 874.503 109.213C862.121 111.29 850.408 115.448 839.083 119.468C826.662 123.877 813.818 128.436 799.657 130.503C755.11 136.999 712.512 116.719 673.109 93.8342C636.531 72.5859 597.255 52.365 554.647 58.6015C530.11 62.1951 505.974 74.4067 482.909 94.8981C476.461 100.627 470.321 106.729 464.381 112.631C452.808 124.13 440.84 136.021 425.786 146.036C413.85 153.978 385.027 170.481 351.827 170.483Z" fill="#5D2DCD"/>
<path d="M356.817 170.732C351.411 170.732 346.09 170.291 340.924 169.392C315.937 165.042 298.085 151.269 280.823 137.952C269.954 129.567 258.714 120.896 245.828 114.685C207.367 96.1476 149.506 102.01 119.479 127.487L114.047 124.101C129.786 110.747 152.672 101.952 178.486 99.3367C204.302 96.7199 229.62 100.633 249.781 110.349C263.354 116.891 274.881 125.784 286.029 134.383C303.335 147.734 319.682 160.344 342.593 164.334C367.944 168.75 397.712 160.833 422.213 143.16C436.341 132.971 447.877 120.693 459.034 108.821C464.9 102.577 470.967 96.1203 477.381 89.9904C501.315 67.1098 525.927 54.2453 552.619 50.6608C599.314 44.397 642.518 67.8915 679.348 90.4118C717.3 113.616 758.267 134.127 800.698 127.142C813.951 124.96 825.838 120.265 838.422 115.295C850.049 110.704 862.072 105.954 875.198 103.43C907.046 97.3039 940.889 105.101 970.114 112.891L973.596 113.821C1002 121.41 1031.39 129.26 1060.72 126.362C1078.32 124.626 1095.7 117.315 1106.08 107.28C1113.79 99.8232 1117 91.5681 1115.34 83.4067L1122.42 82.6484C1124.36 92.2158 1120.69 101.814 1111.8 110.408C1100.31 121.514 1081.11 129.604 1061.68 131.519C1030.57 134.585 1000.35 126.513 971.13 118.704L967.653 117.777C938.16 109.915 906.866 102.72 877.029 108.461C864.733 110.826 853.093 115.423 841.836 119.868C829.379 124.789 816.496 129.877 802.277 132.217C756.804 139.699 714.108 118.461 674.744 94.3943C637.534 71.6425 597.549 49.9155 553.919 55.7787C529.055 59.1161 505.883 71.3381 483.076 93.1418C476.775 99.1663 470.758 105.567 464.942 111.758C453.595 123.833 441.862 136.317 427.252 146.856C405.861 162.279 380.498 170.732 356.817 170.732Z" fill="#5829C7"/>
</g>
<defs>
<filter id="filter0_dddd_1599_794" x="0" y="0.193359" width="1169.16" height="261.539" filterUnits="userSpaceOnUse" color-interpolation-filters="sRGB">
<feFlood flood-opacity="0" result="BackgroundImageFix"/>
<feColorMatrix in="SourceAlpha" type="matrix" values="0 0 0 0 0 0 0 0 0 0 0 0 0 0 0 0 0 0 127 0" result="hardAlpha"/>
<feOffset dy="4"/>
<feGaussianBlur stdDeviation="4.5"/>
<feColorMatrix type="matrix" values="0 0 0 0 0 0 0 0 0 0 0 0 0 0 0 0 0 0 0.1 0"/>
<feBlend mode="normal" in2="BackgroundImageFix" result="effect1_dropShadow_1599_794"/>
<feColorMatrix in="SourceAlpha" type="matrix" values="0 0 0 0 0 0 0 0 0 0 0 0 0 0 0 0 0 0 127 0" result="hardAlpha"/>
<feOffset dy="16"/>
<feGaussianBlur stdDeviation="8"/>
<feColorMatrix type="matrix" values="0 0 0 0 0 0 0 0 0 0 0 0 0 0 0 0 0 0 0.09 0"/>
<feBlend mode="normal" in2="effect1_dropShadow_1599_794" result="effect2_dropShadow_1599_794"/>
<feColorMatrix in="SourceAlpha" type="matrix" values="0 0 0 0 0 0 0 0 0 0 0 0 0 0 0 0 0 0 127 0" result="hardAlpha"/>
<feOffset dy="37"/>
<feGaussianBlur stdDeviation="11"/>
<feColorMatrix type="matrix" values="0 0 0 0 0 0 0 0 0 0 0 0 0 0 0 0 0 0 0.05 0"/>
<feBlend mode="normal" in2="effect2_dropShadow_1599_794" result="effect3_dropShadow_1599_794"/>
<feColorMatrix in="SourceAlpha" type="matrix" values="0 0 0 0 0 0 0 0 0 0 0 0 0 0 0 0 0 0 127 0" result="hardAlpha"/>
<feOffset dy="65"/>
<feGaussianBlur stdDeviation="13"/>
<feColorMatrix type="matrix" values="0 0 0 0 0 0 0 0 0 0 0 0 0 0 0 0 0 0 0.01 0"/>
<feBlend mode="normal" in2="effect3_dropShadow_1599_794" result="effect4_dropShadow_1599_794"/>
<feBlend mode="normal" in="SourceGraphic" in2="effect4_dropShadow_1599_794" result="shape"/>
</filter>
</defs>
</svg>
